G04 #@! TF.GenerationSoftware,KiCad,Pcbnew,(5.1.6)-1*
G04 #@! TF.CreationDate,2022-08-02T16:41:35-04:00*
G04 #@! TF.ProjectId,amiga-500-usb-kb-stamp,616d6967-612d-4353-9030-2d7573622d6b,rev?*
G04 #@! TF.SameCoordinates,Original*
G04 #@! TF.FileFunction,Paste,Top*
G04 #@! TF.FilePolarity,Positive*
%FSLAX46Y46*%
G04 Gerber Fmt 4.6, Leading zero omitted, Abs format (unit mm)*
G04 Created by KiCad (PCBNEW (5.1.6)-1) date 2022-08-02 16:41:35*
%MOMM*%
%LPD*%
G01*
G04 APERTURE LIST*
%ADD10R,0.650000X1.525000*%
%ADD11R,0.400000X1.400000*%
%ADD12R,1.750000X1.900000*%
%ADD13R,1.150000X1.450000*%
%ADD14R,2.800000X1.500000*%
%ADD15R,1.500000X2.800000*%
G04 APERTURE END LIST*
G36*
G01*
X126432000Y-87814999D02*
X126432000Y-88715001D01*
G75*
G02*
X126182001Y-88965000I-249999J0D01*
G01*
X125531999Y-88965000D01*
G75*
G02*
X125282000Y-88715001I0J249999D01*
G01*
X125282000Y-87814999D01*
G75*
G02*
X125531999Y-87565000I249999J0D01*
G01*
X126182001Y-87565000D01*
G75*
G02*
X126432000Y-87814999I0J-249999D01*
G01*
G37*
G36*
G01*
X124382000Y-87814999D02*
X124382000Y-88715001D01*
G75*
G02*
X124132001Y-88965000I-249999J0D01*
G01*
X123481999Y-88965000D01*
G75*
G02*
X123232000Y-88715001I0J249999D01*
G01*
X123232000Y-87814999D01*
G75*
G02*
X123481999Y-87565000I249999J0D01*
G01*
X124132001Y-87565000D01*
G75*
G02*
X124382000Y-87814999I0J-249999D01*
G01*
G37*
G36*
G01*
X125282000Y-83127001D02*
X125282000Y-82226999D01*
G75*
G02*
X125531999Y-81977000I249999J0D01*
G01*
X126182001Y-81977000D01*
G75*
G02*
X126432000Y-82226999I0J-249999D01*
G01*
X126432000Y-83127001D01*
G75*
G02*
X126182001Y-83377000I-249999J0D01*
G01*
X125531999Y-83377000D01*
G75*
G02*
X125282000Y-83127001I0J249999D01*
G01*
G37*
G36*
G01*
X123232000Y-83127001D02*
X123232000Y-82226999D01*
G75*
G02*
X123481999Y-81977000I249999J0D01*
G01*
X124132001Y-81977000D01*
G75*
G02*
X124382000Y-82226999I0J-249999D01*
G01*
X124382000Y-83127001D01*
G75*
G02*
X124132001Y-83377000I-249999J0D01*
G01*
X123481999Y-83377000D01*
G75*
G02*
X123232000Y-83127001I0J249999D01*
G01*
G37*
D10*
X127762000Y-88183000D03*
X129032000Y-88183000D03*
X130302000Y-88183000D03*
X131572000Y-88183000D03*
X132842000Y-88183000D03*
X134112000Y-88183000D03*
X135382000Y-88183000D03*
X135382000Y-82759000D03*
X134112000Y-82759000D03*
X132842000Y-82759000D03*
X131572000Y-82759000D03*
X130302000Y-82759000D03*
X129032000Y-82759000D03*
X127762000Y-82759000D03*
D11*
X122204000Y-78850000D03*
X121554000Y-78850000D03*
X120904000Y-78850000D03*
X120254000Y-78850000D03*
X119604000Y-78850000D03*
D12*
X122029000Y-76200000D03*
X119779000Y-76200000D03*
D13*
X123224000Y-78430000D03*
X118584000Y-78430000D03*
G36*
G01*
X137090999Y-84007000D02*
X137991001Y-84007000D01*
G75*
G02*
X138241000Y-84256999I0J-249999D01*
G01*
X138241000Y-84907001D01*
G75*
G02*
X137991001Y-85157000I-249999J0D01*
G01*
X137090999Y-85157000D01*
G75*
G02*
X136841000Y-84907001I0J249999D01*
G01*
X136841000Y-84256999D01*
G75*
G02*
X137090999Y-84007000I249999J0D01*
G01*
G37*
G36*
G01*
X137090999Y-86057000D02*
X137991001Y-86057000D01*
G75*
G02*
X138241000Y-86306999I0J-249999D01*
G01*
X138241000Y-86957001D01*
G75*
G02*
X137991001Y-87207000I-249999J0D01*
G01*
X137090999Y-87207000D01*
G75*
G02*
X136841000Y-86957001I0J249999D01*
G01*
X136841000Y-86306999D01*
G75*
G02*
X137090999Y-86057000I249999J0D01*
G01*
G37*
D14*
X142968000Y-94759000D03*
X142968000Y-96759000D03*
X142968000Y-98759000D03*
X142968000Y-100759000D03*
X142968000Y-102759000D03*
X142968000Y-104759000D03*
X142968000Y-106759000D03*
X142968000Y-108759000D03*
X142968000Y-110759000D03*
X142968000Y-112759000D03*
D15*
X140318000Y-115409000D03*
X138318000Y-115409000D03*
X136318000Y-115409000D03*
X134318000Y-115409000D03*
X132318000Y-115409000D03*
X130318000Y-115409000D03*
X128318000Y-115409000D03*
X126318000Y-115409000D03*
X124318000Y-115409000D03*
X122318000Y-115409000D03*
D14*
X119668000Y-112759000D03*
X119668000Y-110759000D03*
X119668000Y-108759000D03*
X119668000Y-106759000D03*
X119668000Y-104759000D03*
X119668000Y-102759000D03*
X119668000Y-100759000D03*
X119668000Y-98759000D03*
X119668000Y-96759000D03*
X119668000Y-94759000D03*
D15*
X122318000Y-92109000D03*
X124318000Y-92109000D03*
X126318000Y-92109000D03*
X128318000Y-92109000D03*
X130318000Y-92109000D03*
X132318000Y-92109000D03*
X134318000Y-92109000D03*
X136318000Y-92109000D03*
X138318000Y-92109000D03*
X140318000Y-92109000D03*
G36*
G01*
X146742999Y-110795000D02*
X147643001Y-110795000D01*
G75*
G02*
X147893000Y-111044999I0J-249999D01*
G01*
X147893000Y-111695001D01*
G75*
G02*
X147643001Y-111945000I-249999J0D01*
G01*
X146742999Y-111945000D01*
G75*
G02*
X146493000Y-111695001I0J249999D01*
G01*
X146493000Y-111044999D01*
G75*
G02*
X146742999Y-110795000I249999J0D01*
G01*
G37*
G36*
G01*
X146742999Y-112845000D02*
X147643001Y-112845000D01*
G75*
G02*
X147893000Y-113094999I0J-249999D01*
G01*
X147893000Y-113745001D01*
G75*
G02*
X147643001Y-113995000I-249999J0D01*
G01*
X146742999Y-113995000D01*
G75*
G02*
X146493000Y-113745001I0J249999D01*
G01*
X146493000Y-113094999D01*
G75*
G02*
X146742999Y-112845000I249999J0D01*
G01*
G37*
M02*
