G04 #@! TF.GenerationSoftware,KiCad,Pcbnew,(5.1.6)-1*
G04 #@! TF.CreationDate,2022-08-02T16:41:35-04:00*
G04 #@! TF.ProjectId,amiga-500-usb-kb-stamp,616d6967-612d-4353-9030-2d7573622d6b,rev?*
G04 #@! TF.SameCoordinates,Original*
G04 #@! TF.FileFunction,Soldermask,Top*
G04 #@! TF.FilePolarity,Negative*
%FSLAX46Y46*%
G04 Gerber Fmt 4.6, Leading zero omitted, Abs format (unit mm)*
G04 Created by KiCad (PCBNEW (5.1.6)-1) date 2022-08-02 16:41:35*
%MOMM*%
%LPD*%
G01*
G04 APERTURE LIST*
%ADD10R,0.750000X1.625000*%
%ADD11R,0.500000X1.500000*%
%ADD12C,1.950000*%
%ADD13R,1.850000X2.000000*%
%ADD14R,1.250000X1.550000*%
%ADD15R,1.800000X1.800000*%
%ADD16O,1.800000X1.800000*%
%ADD17C,1.700000*%
%ADD18O,1.700000X1.700000*%
%ADD19O,1.450000X1.450000*%
%ADD20R,2.900000X1.600000*%
%ADD21R,1.600000X2.900000*%
%ADD22C,1.450000*%
G04 APERTURE END LIST*
G36*
G01*
X126482000Y-87786738D02*
X126482000Y-88743262D01*
G75*
G02*
X126210262Y-89015000I-271738J0D01*
G01*
X125503738Y-89015000D01*
G75*
G02*
X125232000Y-88743262I0J271738D01*
G01*
X125232000Y-87786738D01*
G75*
G02*
X125503738Y-87515000I271738J0D01*
G01*
X126210262Y-87515000D01*
G75*
G02*
X126482000Y-87786738I0J-271738D01*
G01*
G37*
G36*
G01*
X124432000Y-87786738D02*
X124432000Y-88743262D01*
G75*
G02*
X124160262Y-89015000I-271738J0D01*
G01*
X123453738Y-89015000D01*
G75*
G02*
X123182000Y-88743262I0J271738D01*
G01*
X123182000Y-87786738D01*
G75*
G02*
X123453738Y-87515000I271738J0D01*
G01*
X124160262Y-87515000D01*
G75*
G02*
X124432000Y-87786738I0J-271738D01*
G01*
G37*
G36*
G01*
X125232000Y-83155262D02*
X125232000Y-82198738D01*
G75*
G02*
X125503738Y-81927000I271738J0D01*
G01*
X126210262Y-81927000D01*
G75*
G02*
X126482000Y-82198738I0J-271738D01*
G01*
X126482000Y-83155262D01*
G75*
G02*
X126210262Y-83427000I-271738J0D01*
G01*
X125503738Y-83427000D01*
G75*
G02*
X125232000Y-83155262I0J271738D01*
G01*
G37*
G36*
G01*
X123182000Y-83155262D02*
X123182000Y-82198738D01*
G75*
G02*
X123453738Y-81927000I271738J0D01*
G01*
X124160262Y-81927000D01*
G75*
G02*
X124432000Y-82198738I0J-271738D01*
G01*
X124432000Y-83155262D01*
G75*
G02*
X124160262Y-83427000I-271738J0D01*
G01*
X123453738Y-83427000D01*
G75*
G02*
X123182000Y-83155262I0J271738D01*
G01*
G37*
D10*
X127762000Y-88183000D03*
X129032000Y-88183000D03*
X130302000Y-88183000D03*
X131572000Y-88183000D03*
X132842000Y-88183000D03*
X134112000Y-88183000D03*
X135382000Y-88183000D03*
X135382000Y-82759000D03*
X134112000Y-82759000D03*
X132842000Y-82759000D03*
X131572000Y-82759000D03*
X130302000Y-82759000D03*
X129032000Y-82759000D03*
X127762000Y-82759000D03*
D11*
X122204000Y-78850000D03*
X121554000Y-78850000D03*
X120904000Y-78850000D03*
X120254000Y-78850000D03*
X119604000Y-78850000D03*
D12*
X124479000Y-76200000D03*
X117329000Y-76200000D03*
D13*
X122029000Y-76200000D03*
X119779000Y-76200000D03*
D14*
X123224000Y-78430000D03*
X118584000Y-78430000D03*
D15*
X113538000Y-89916000D03*
D16*
X113538000Y-87376000D03*
X113538000Y-84836000D03*
X113538000Y-82296000D03*
D15*
X129032000Y-75819000D03*
D16*
X131572000Y-75819000D03*
X134112000Y-75819000D03*
X136652000Y-75819000D03*
X139192000Y-75819000D03*
X141732000Y-75819000D03*
X144272000Y-75819000D03*
X146812000Y-75819000D03*
X146812000Y-79502000D03*
X144272000Y-79502000D03*
X141732000Y-79502000D03*
X139192000Y-79502000D03*
X136652000Y-79502000D03*
X134112000Y-79502000D03*
X131572000Y-79502000D03*
D15*
X129032000Y-79502000D03*
X115062000Y-94615000D03*
D16*
X115062000Y-97155000D03*
X115062000Y-99695000D03*
X115062000Y-102235000D03*
D15*
X147193000Y-84455000D03*
D16*
X147193000Y-86995000D03*
X147193000Y-89535000D03*
X147193000Y-92075000D03*
X147193000Y-94615000D03*
X147193000Y-97155000D03*
D15*
X142367000Y-86995000D03*
D16*
X142367000Y-84455000D03*
G36*
G01*
X137062738Y-83957000D02*
X138019262Y-83957000D01*
G75*
G02*
X138291000Y-84228738I0J-271738D01*
G01*
X138291000Y-84935262D01*
G75*
G02*
X138019262Y-85207000I-271738J0D01*
G01*
X137062738Y-85207000D01*
G75*
G02*
X136791000Y-84935262I0J271738D01*
G01*
X136791000Y-84228738D01*
G75*
G02*
X137062738Y-83957000I271738J0D01*
G01*
G37*
G36*
G01*
X137062738Y-86007000D02*
X138019262Y-86007000D01*
G75*
G02*
X138291000Y-86278738I0J-271738D01*
G01*
X138291000Y-86985262D01*
G75*
G02*
X138019262Y-87257000I-271738J0D01*
G01*
X137062738Y-87257000D01*
G75*
G02*
X136791000Y-86985262I0J271738D01*
G01*
X136791000Y-86278738D01*
G75*
G02*
X137062738Y-86007000I271738J0D01*
G01*
G37*
D17*
X147193000Y-108966000D03*
D18*
X147193000Y-101346000D03*
X150495000Y-101346000D03*
D17*
X150495000Y-108966000D03*
D19*
X142318000Y-94759000D03*
D20*
X142968000Y-94759000D03*
X142968000Y-96759000D03*
D19*
X142318000Y-96759000D03*
X142318000Y-98759000D03*
D20*
X142968000Y-98759000D03*
X142968000Y-100759000D03*
D19*
X142318000Y-100759000D03*
X142318000Y-102759000D03*
D20*
X142968000Y-102759000D03*
D19*
X142318000Y-104759000D03*
D20*
X142968000Y-104759000D03*
X142968000Y-106759000D03*
D19*
X142318000Y-106759000D03*
D20*
X142968000Y-108759000D03*
D19*
X142318000Y-108759000D03*
X142318000Y-110759000D03*
D20*
X142968000Y-110759000D03*
D19*
X142318000Y-112759000D03*
D20*
X142968000Y-112759000D03*
D21*
X140318000Y-115409000D03*
D19*
X140318000Y-114759000D03*
D21*
X138318000Y-115409000D03*
D19*
X138318000Y-114759000D03*
D21*
X136318000Y-115409000D03*
D19*
X136318000Y-114759000D03*
D21*
X134318000Y-115409000D03*
D19*
X134318000Y-114759000D03*
X132318000Y-114759000D03*
D21*
X132318000Y-115409000D03*
X130318000Y-115409000D03*
D19*
X130318000Y-114759000D03*
X128318000Y-114759000D03*
D21*
X128318000Y-115409000D03*
X126318000Y-115409000D03*
D19*
X126318000Y-114759000D03*
D21*
X124318000Y-115409000D03*
D19*
X124318000Y-114759000D03*
D21*
X122318000Y-115409000D03*
D19*
X122318000Y-114759000D03*
X120318000Y-112759000D03*
D20*
X119668000Y-112759000D03*
D19*
X120318000Y-110759000D03*
D20*
X119668000Y-110759000D03*
X119668000Y-108759000D03*
D19*
X120318000Y-108759000D03*
D20*
X119668000Y-106759000D03*
D19*
X120318000Y-106759000D03*
X120318000Y-104759000D03*
D20*
X119668000Y-104759000D03*
X119668000Y-102759000D03*
D19*
X120318000Y-102759000D03*
D20*
X119668000Y-100759000D03*
D19*
X120318000Y-100759000D03*
D20*
X119668000Y-98759000D03*
D19*
X120318000Y-98759000D03*
D20*
X119668000Y-96759000D03*
D19*
X120318000Y-96759000D03*
X120318000Y-94759000D03*
D20*
X119668000Y-94759000D03*
D21*
X122318000Y-92109000D03*
D19*
X122318000Y-92759000D03*
D21*
X124318000Y-92109000D03*
D19*
X124318000Y-92759000D03*
D21*
X126318000Y-92109000D03*
D19*
X126318000Y-92759000D03*
X128318000Y-92759000D03*
D21*
X128318000Y-92109000D03*
X130318000Y-92109000D03*
D19*
X130318000Y-92759000D03*
X132318000Y-92759000D03*
D21*
X132318000Y-92109000D03*
X134318000Y-92109000D03*
D19*
X134318000Y-92759000D03*
X136318000Y-92759000D03*
D21*
X136318000Y-92109000D03*
D19*
X138318000Y-92759000D03*
D21*
X138318000Y-92109000D03*
X140318000Y-92109000D03*
D22*
X140318000Y-92759000D03*
D15*
X153924000Y-111633000D03*
D16*
X153924000Y-114173000D03*
X153924000Y-106807000D03*
D15*
X153924000Y-104267000D03*
G36*
G01*
X146714738Y-110745000D02*
X147671262Y-110745000D01*
G75*
G02*
X147943000Y-111016738I0J-271738D01*
G01*
X147943000Y-111723262D01*
G75*
G02*
X147671262Y-111995000I-271738J0D01*
G01*
X146714738Y-111995000D01*
G75*
G02*
X146443000Y-111723262I0J271738D01*
G01*
X146443000Y-111016738D01*
G75*
G02*
X146714738Y-110745000I271738J0D01*
G01*
G37*
G36*
G01*
X146714738Y-112795000D02*
X147671262Y-112795000D01*
G75*
G02*
X147943000Y-113066738I0J-271738D01*
G01*
X147943000Y-113773262D01*
G75*
G02*
X147671262Y-114045000I-271738J0D01*
G01*
X146714738Y-114045000D01*
G75*
G02*
X146443000Y-113773262I0J271738D01*
G01*
X146443000Y-113066738D01*
G75*
G02*
X146714738Y-112795000I271738J0D01*
G01*
G37*
M02*
