G04 #@! TF.GenerationSoftware,KiCad,Pcbnew,(5.1.6)-1*
G04 #@! TF.CreationDate,2022-08-02T16:41:35-04:00*
G04 #@! TF.ProjectId,amiga-500-usb-kb-stamp,616d6967-612d-4353-9030-2d7573622d6b,rev?*
G04 #@! TF.SameCoordinates,Original*
G04 #@! TF.FileFunction,Legend,Bot*
G04 #@! TF.FilePolarity,Positive*
%FSLAX46Y46*%
G04 Gerber Fmt 4.6, Leading zero omitted, Abs format (unit mm)*
G04 Created by KiCad (PCBNEW (5.1.6)-1) date 2022-08-02 16:41:35*
%MOMM*%
%LPD*%
G01*
G04 APERTURE LIST*
%ADD10C,0.150000*%
%ADD11C,0.120000*%
%ADD12C,1.950000*%
%ADD13R,1.800000X1.800000*%
%ADD14O,1.800000X1.800000*%
%ADD15C,1.700000*%
%ADD16O,1.700000X1.700000*%
%ADD17O,1.450000X1.450000*%
%ADD18C,1.450000*%
G04 APERTURE END LIST*
D10*
X116733137Y-115594900D02*
X117204541Y-115123496D01*
X117069854Y-115258183D02*
X117103526Y-115157167D01*
X117103526Y-115089824D01*
X117069854Y-114988809D01*
X117002511Y-114921465D01*
X116059702Y-114854122D02*
X116093374Y-114955137D01*
X116228061Y-115089824D01*
X116329076Y-115123496D01*
X116430091Y-115089824D01*
X116699465Y-114820450D01*
X116733137Y-114719435D01*
X116699465Y-114618419D01*
X116564778Y-114483732D01*
X116463763Y-114450061D01*
X116362748Y-114483732D01*
X116295404Y-114551076D01*
X116564778Y-114955137D01*
X116228061Y-114147015D02*
X115588297Y-114450061D01*
X115891343Y-113810297D01*
X114241427Y-113103190D02*
X114645488Y-113507251D01*
X114443458Y-113305221D02*
X115150564Y-112598114D01*
X115116893Y-112766473D01*
X115116893Y-112901160D01*
X115150564Y-113002175D01*
X157741333Y-116244714D02*
X157550857Y-116911380D01*
X157360380Y-116435190D01*
X157169904Y-116911380D01*
X156979428Y-116244714D01*
X156598476Y-116911380D02*
X156598476Y-116244714D01*
X156598476Y-115911380D02*
X156646095Y-115959000D01*
X156598476Y-116006619D01*
X156550857Y-115959000D01*
X156598476Y-115911380D01*
X156598476Y-116006619D01*
X156122285Y-116911380D02*
X156122285Y-116244714D01*
X156122285Y-116435190D02*
X156074666Y-116339952D01*
X156027047Y-116292333D01*
X155931809Y-116244714D01*
X155836571Y-116244714D01*
X155122285Y-116863761D02*
X155217523Y-116911380D01*
X155408000Y-116911380D01*
X155503238Y-116863761D01*
X155550857Y-116768523D01*
X155550857Y-116387571D01*
X155503238Y-116292333D01*
X155408000Y-116244714D01*
X155217523Y-116244714D01*
X155122285Y-116292333D01*
X155074666Y-116387571D01*
X155074666Y-116482809D01*
X155550857Y-116578047D01*
X154788952Y-116244714D02*
X154408000Y-116244714D01*
X154646095Y-115911380D02*
X154646095Y-116768523D01*
X154598476Y-116863761D01*
X154503238Y-116911380D01*
X154408000Y-116911380D01*
X153646095Y-116911380D02*
X153646095Y-116387571D01*
X153693714Y-116292333D01*
X153788952Y-116244714D01*
X153979428Y-116244714D01*
X154074666Y-116292333D01*
X153646095Y-116863761D02*
X153741333Y-116911380D01*
X153979428Y-116911380D01*
X154074666Y-116863761D01*
X154122285Y-116768523D01*
X154122285Y-116673285D01*
X154074666Y-116578047D01*
X153979428Y-116530428D01*
X153741333Y-116530428D01*
X153646095Y-116482809D01*
X153169904Y-116244714D02*
X153169904Y-117244714D01*
X153169904Y-116292333D02*
X153074666Y-116244714D01*
X152884190Y-116244714D01*
X152788952Y-116292333D01*
X152741333Y-116339952D01*
X152693714Y-116435190D01*
X152693714Y-116720904D01*
X152741333Y-116816142D01*
X152788952Y-116863761D01*
X152884190Y-116911380D01*
X153074666Y-116911380D01*
X153169904Y-116863761D01*
X151550857Y-116006619D02*
X151503238Y-115959000D01*
X151408000Y-115911380D01*
X151169904Y-115911380D01*
X151074666Y-115959000D01*
X151027047Y-116006619D01*
X150979428Y-116101857D01*
X150979428Y-116197095D01*
X151027047Y-116339952D01*
X151598476Y-116911380D01*
X150979428Y-116911380D01*
X150360380Y-115911380D02*
X150265142Y-115911380D01*
X150169904Y-115959000D01*
X150122285Y-116006619D01*
X150074666Y-116101857D01*
X150027047Y-116292333D01*
X150027047Y-116530428D01*
X150074666Y-116720904D01*
X150122285Y-116816142D01*
X150169904Y-116863761D01*
X150265142Y-116911380D01*
X150360380Y-116911380D01*
X150455619Y-116863761D01*
X150503238Y-116816142D01*
X150550857Y-116720904D01*
X150598476Y-116530428D01*
X150598476Y-116292333D01*
X150550857Y-116101857D01*
X150503238Y-116006619D01*
X150455619Y-115959000D01*
X150360380Y-115911380D01*
X149646095Y-116006619D02*
X149598476Y-115959000D01*
X149503238Y-115911380D01*
X149265142Y-115911380D01*
X149169904Y-115959000D01*
X149122285Y-116006619D01*
X149074666Y-116101857D01*
X149074666Y-116197095D01*
X149122285Y-116339952D01*
X149693714Y-116911380D01*
X149074666Y-116911380D01*
X148693714Y-116006619D02*
X148646095Y-115959000D01*
X148550857Y-115911380D01*
X148312761Y-115911380D01*
X148217523Y-115959000D01*
X148169904Y-116006619D01*
X148122285Y-116101857D01*
X148122285Y-116197095D01*
X148169904Y-116339952D01*
X148741333Y-116911380D01*
X148122285Y-116911380D01*
X135539857Y-84939666D02*
X135063666Y-84939666D01*
X135635095Y-85225380D02*
X135301761Y-84225380D01*
X134968428Y-85225380D01*
X134635095Y-85225380D02*
X134635095Y-84558714D01*
X134635095Y-84653952D02*
X134587476Y-84606333D01*
X134492238Y-84558714D01*
X134349380Y-84558714D01*
X134254142Y-84606333D01*
X134206523Y-84701571D01*
X134206523Y-85225380D01*
X134206523Y-84701571D02*
X134158904Y-84606333D01*
X134063666Y-84558714D01*
X133920809Y-84558714D01*
X133825571Y-84606333D01*
X133777952Y-84701571D01*
X133777952Y-85225380D01*
X133301761Y-85225380D02*
X133301761Y-84558714D01*
X133301761Y-84225380D02*
X133349380Y-84273000D01*
X133301761Y-84320619D01*
X133254142Y-84273000D01*
X133301761Y-84225380D01*
X133301761Y-84320619D01*
X132397000Y-84558714D02*
X132397000Y-85368238D01*
X132444619Y-85463476D01*
X132492238Y-85511095D01*
X132587476Y-85558714D01*
X132730333Y-85558714D01*
X132825571Y-85511095D01*
X132397000Y-85177761D02*
X132492238Y-85225380D01*
X132682714Y-85225380D01*
X132777952Y-85177761D01*
X132825571Y-85130142D01*
X132873190Y-85034904D01*
X132873190Y-84749190D01*
X132825571Y-84653952D01*
X132777952Y-84606333D01*
X132682714Y-84558714D01*
X132492238Y-84558714D01*
X132397000Y-84606333D01*
X131492238Y-85225380D02*
X131492238Y-84701571D01*
X131539857Y-84606333D01*
X131635095Y-84558714D01*
X131825571Y-84558714D01*
X131920809Y-84606333D01*
X131492238Y-85177761D02*
X131587476Y-85225380D01*
X131825571Y-85225380D01*
X131920809Y-85177761D01*
X131968428Y-85082523D01*
X131968428Y-84987285D01*
X131920809Y-84892047D01*
X131825571Y-84844428D01*
X131587476Y-84844428D01*
X131492238Y-84796809D01*
X129777952Y-84225380D02*
X130254142Y-84225380D01*
X130301761Y-84701571D01*
X130254142Y-84653952D01*
X130158904Y-84606333D01*
X129920809Y-84606333D01*
X129825571Y-84653952D01*
X129777952Y-84701571D01*
X129730333Y-84796809D01*
X129730333Y-85034904D01*
X129777952Y-85130142D01*
X129825571Y-85177761D01*
X129920809Y-85225380D01*
X130158904Y-85225380D01*
X130254142Y-85177761D01*
X130301761Y-85130142D01*
X129111285Y-84225380D02*
X129016047Y-84225380D01*
X128920809Y-84273000D01*
X128873190Y-84320619D01*
X128825571Y-84415857D01*
X128777952Y-84606333D01*
X128777952Y-84844428D01*
X128825571Y-85034904D01*
X128873190Y-85130142D01*
X128920809Y-85177761D01*
X129016047Y-85225380D01*
X129111285Y-85225380D01*
X129206523Y-85177761D01*
X129254142Y-85130142D01*
X129301761Y-85034904D01*
X129349380Y-84844428D01*
X129349380Y-84606333D01*
X129301761Y-84415857D01*
X129254142Y-84320619D01*
X129206523Y-84273000D01*
X129111285Y-84225380D01*
X128158904Y-84225380D02*
X128063666Y-84225380D01*
X127968428Y-84273000D01*
X127920809Y-84320619D01*
X127873190Y-84415857D01*
X127825571Y-84606333D01*
X127825571Y-84844428D01*
X127873190Y-85034904D01*
X127920809Y-85130142D01*
X127968428Y-85177761D01*
X128063666Y-85225380D01*
X128158904Y-85225380D01*
X128254142Y-85177761D01*
X128301761Y-85130142D01*
X128349380Y-85034904D01*
X128397000Y-84844428D01*
X128397000Y-84606333D01*
X128349380Y-84415857D01*
X128301761Y-84320619D01*
X128254142Y-84273000D01*
X128158904Y-84225380D01*
X126063666Y-85225380D02*
X126397000Y-84749190D01*
X126635095Y-85225380D02*
X126635095Y-84225380D01*
X126254142Y-84225380D01*
X126158904Y-84273000D01*
X126111285Y-84320619D01*
X126063666Y-84415857D01*
X126063666Y-84558714D01*
X126111285Y-84653952D01*
X126158904Y-84701571D01*
X126254142Y-84749190D01*
X126635095Y-84749190D01*
X125635095Y-85225380D02*
X125635095Y-84225380D01*
X125254142Y-84225380D01*
X125158904Y-84273000D01*
X125111285Y-84320619D01*
X125063666Y-84415857D01*
X125063666Y-84558714D01*
X125111285Y-84653952D01*
X125158904Y-84701571D01*
X125254142Y-84749190D01*
X125635095Y-84749190D01*
X124682714Y-84320619D02*
X124635095Y-84273000D01*
X124539857Y-84225380D01*
X124301761Y-84225380D01*
X124206523Y-84273000D01*
X124158904Y-84320619D01*
X124111285Y-84415857D01*
X124111285Y-84511095D01*
X124158904Y-84653952D01*
X124730333Y-85225380D01*
X124111285Y-85225380D01*
X123492238Y-84225380D02*
X123397000Y-84225380D01*
X123301761Y-84273000D01*
X123254142Y-84320619D01*
X123206523Y-84415857D01*
X123158904Y-84606333D01*
X123158904Y-84844428D01*
X123206523Y-85034904D01*
X123254142Y-85130142D01*
X123301761Y-85177761D01*
X123397000Y-85225380D01*
X123492238Y-85225380D01*
X123587476Y-85177761D01*
X123635095Y-85130142D01*
X123682714Y-85034904D01*
X123730333Y-84844428D01*
X123730333Y-84606333D01*
X123682714Y-84415857D01*
X123635095Y-84320619D01*
X123587476Y-84273000D01*
X123492238Y-84225380D01*
X122301761Y-84558714D02*
X122301761Y-85225380D01*
X122539857Y-84177761D02*
X122777952Y-84892047D01*
X122158904Y-84892047D01*
X121587476Y-84225380D02*
X121492238Y-84225380D01*
X121397000Y-84273000D01*
X121349380Y-84320619D01*
X121301761Y-84415857D01*
X121254142Y-84606333D01*
X121254142Y-84844428D01*
X121301761Y-85034904D01*
X121349380Y-85130142D01*
X121397000Y-85177761D01*
X121492238Y-85225380D01*
X121587476Y-85225380D01*
X121682714Y-85177761D01*
X121730333Y-85130142D01*
X121777952Y-85034904D01*
X121825571Y-84844428D01*
X121825571Y-84606333D01*
X121777952Y-84415857D01*
X121730333Y-84320619D01*
X121682714Y-84273000D01*
X121587476Y-84225380D01*
X136658904Y-85875380D02*
X136658904Y-86684904D01*
X136611285Y-86780142D01*
X136563666Y-86827761D01*
X136468428Y-86875380D01*
X136277952Y-86875380D01*
X136182714Y-86827761D01*
X136135095Y-86780142D01*
X136087476Y-86684904D01*
X136087476Y-85875380D01*
X135658904Y-86827761D02*
X135516047Y-86875380D01*
X135277952Y-86875380D01*
X135182714Y-86827761D01*
X135135095Y-86780142D01*
X135087476Y-86684904D01*
X135087476Y-86589666D01*
X135135095Y-86494428D01*
X135182714Y-86446809D01*
X135277952Y-86399190D01*
X135468428Y-86351571D01*
X135563666Y-86303952D01*
X135611285Y-86256333D01*
X135658904Y-86161095D01*
X135658904Y-86065857D01*
X135611285Y-85970619D01*
X135563666Y-85923000D01*
X135468428Y-85875380D01*
X135230333Y-85875380D01*
X135087476Y-85923000D01*
X134325571Y-86351571D02*
X134182714Y-86399190D01*
X134135095Y-86446809D01*
X134087476Y-86542047D01*
X134087476Y-86684904D01*
X134135095Y-86780142D01*
X134182714Y-86827761D01*
X134277952Y-86875380D01*
X134658904Y-86875380D01*
X134658904Y-85875380D01*
X134325571Y-85875380D01*
X134230333Y-85923000D01*
X134182714Y-85970619D01*
X134135095Y-86065857D01*
X134135095Y-86161095D01*
X134182714Y-86256333D01*
X134230333Y-86303952D01*
X134325571Y-86351571D01*
X134658904Y-86351571D01*
X132897000Y-86875380D02*
X132897000Y-85875380D01*
X132325571Y-86875380D02*
X132754142Y-86303952D01*
X132325571Y-85875380D02*
X132897000Y-86446809D01*
X131516047Y-86827761D02*
X131611285Y-86875380D01*
X131801761Y-86875380D01*
X131897000Y-86827761D01*
X131944619Y-86732523D01*
X131944619Y-86351571D01*
X131897000Y-86256333D01*
X131801761Y-86208714D01*
X131611285Y-86208714D01*
X131516047Y-86256333D01*
X131468428Y-86351571D01*
X131468428Y-86446809D01*
X131944619Y-86542047D01*
X131135095Y-86208714D02*
X130897000Y-86875380D01*
X130658904Y-86208714D02*
X130897000Y-86875380D01*
X130992238Y-87113476D01*
X131039857Y-87161095D01*
X131135095Y-87208714D01*
X130277952Y-86875380D02*
X130277952Y-85875380D01*
X130277952Y-86256333D02*
X130182714Y-86208714D01*
X129992238Y-86208714D01*
X129897000Y-86256333D01*
X129849380Y-86303952D01*
X129801761Y-86399190D01*
X129801761Y-86684904D01*
X129849380Y-86780142D01*
X129897000Y-86827761D01*
X129992238Y-86875380D01*
X130182714Y-86875380D01*
X130277952Y-86827761D01*
X129230333Y-86875380D02*
X129325571Y-86827761D01*
X129373190Y-86780142D01*
X129420809Y-86684904D01*
X129420809Y-86399190D01*
X129373190Y-86303952D01*
X129325571Y-86256333D01*
X129230333Y-86208714D01*
X129087476Y-86208714D01*
X128992238Y-86256333D01*
X128944619Y-86303952D01*
X128897000Y-86399190D01*
X128897000Y-86684904D01*
X128944619Y-86780142D01*
X128992238Y-86827761D01*
X129087476Y-86875380D01*
X129230333Y-86875380D01*
X128039857Y-86875380D02*
X128039857Y-86351571D01*
X128087476Y-86256333D01*
X128182714Y-86208714D01*
X128373190Y-86208714D01*
X128468428Y-86256333D01*
X128039857Y-86827761D02*
X128135095Y-86875380D01*
X128373190Y-86875380D01*
X128468428Y-86827761D01*
X128516047Y-86732523D01*
X128516047Y-86637285D01*
X128468428Y-86542047D01*
X128373190Y-86494428D01*
X128135095Y-86494428D01*
X128039857Y-86446809D01*
X127563666Y-86875380D02*
X127563666Y-86208714D01*
X127563666Y-86399190D02*
X127516047Y-86303952D01*
X127468428Y-86256333D01*
X127373190Y-86208714D01*
X127277952Y-86208714D01*
X126516047Y-86875380D02*
X126516047Y-85875380D01*
X126516047Y-86827761D02*
X126611285Y-86875380D01*
X126801761Y-86875380D01*
X126897000Y-86827761D01*
X126944619Y-86780142D01*
X126992238Y-86684904D01*
X126992238Y-86399190D01*
X126944619Y-86303952D01*
X126897000Y-86256333D01*
X126801761Y-86208714D01*
X126611285Y-86208714D01*
X126516047Y-86256333D01*
X125325571Y-86589666D02*
X124849380Y-86589666D01*
X125420809Y-86875380D02*
X125087476Y-85875380D01*
X124754142Y-86875380D01*
X123992238Y-86875380D02*
X123992238Y-85875380D01*
X123992238Y-86827761D02*
X124087476Y-86875380D01*
X124277952Y-86875380D01*
X124373190Y-86827761D01*
X124420809Y-86780142D01*
X124468428Y-86684904D01*
X124468428Y-86399190D01*
X124420809Y-86303952D01*
X124373190Y-86256333D01*
X124277952Y-86208714D01*
X124087476Y-86208714D01*
X123992238Y-86256333D01*
X123087476Y-86875380D02*
X123087476Y-86351571D01*
X123135095Y-86256333D01*
X123230333Y-86208714D01*
X123420809Y-86208714D01*
X123516047Y-86256333D01*
X123087476Y-86827761D02*
X123182714Y-86875380D01*
X123420809Y-86875380D01*
X123516047Y-86827761D01*
X123563666Y-86732523D01*
X123563666Y-86637285D01*
X123516047Y-86542047D01*
X123420809Y-86494428D01*
X123182714Y-86494428D01*
X123087476Y-86446809D01*
X122611285Y-86208714D02*
X122611285Y-87208714D01*
X122611285Y-86256333D02*
X122516047Y-86208714D01*
X122325571Y-86208714D01*
X122230333Y-86256333D01*
X122182714Y-86303952D01*
X122135095Y-86399190D01*
X122135095Y-86684904D01*
X122182714Y-86780142D01*
X122230333Y-86827761D01*
X122325571Y-86875380D01*
X122516047Y-86875380D01*
X122611285Y-86827761D01*
X121849380Y-86208714D02*
X121468428Y-86208714D01*
X121706523Y-85875380D02*
X121706523Y-86732523D01*
X121658904Y-86827761D01*
X121563666Y-86875380D01*
X121468428Y-86875380D01*
X120754142Y-86827761D02*
X120849380Y-86875380D01*
X121039857Y-86875380D01*
X121135095Y-86827761D01*
X121182714Y-86732523D01*
X121182714Y-86351571D01*
X121135095Y-86256333D01*
X121039857Y-86208714D01*
X120849380Y-86208714D01*
X120754142Y-86256333D01*
X120706523Y-86351571D01*
X120706523Y-86446809D01*
X121182714Y-86542047D01*
X120277952Y-86875380D02*
X120277952Y-86208714D01*
X120277952Y-86399190D02*
X120230333Y-86303952D01*
X120182714Y-86256333D01*
X120087476Y-86208714D01*
X119992238Y-86208714D01*
D11*
X130302000Y-74489000D02*
X130302000Y-77149000D01*
X130302000Y-74489000D02*
X148142000Y-74489000D01*
X148142000Y-74489000D02*
X148142000Y-77149000D01*
X130302000Y-77149000D02*
X148142000Y-77149000D01*
X127702000Y-77149000D02*
X129032000Y-77149000D01*
X127702000Y-75819000D02*
X127702000Y-77149000D01*
X127702000Y-79502000D02*
X127702000Y-80832000D01*
X127702000Y-80832000D02*
X129032000Y-80832000D01*
X130302000Y-80832000D02*
X148142000Y-80832000D01*
X148142000Y-78172000D02*
X148142000Y-80832000D01*
X130302000Y-78172000D02*
X148142000Y-78172000D01*
X130302000Y-78172000D02*
X130302000Y-80832000D01*
D10*
X126071380Y-75485666D02*
X126785666Y-75485666D01*
X126928523Y-75438047D01*
X127023761Y-75342809D01*
X127071380Y-75199952D01*
X127071380Y-75104714D01*
X126071380Y-75866619D02*
X126071380Y-76485666D01*
X126452333Y-76152333D01*
X126452333Y-76295190D01*
X126499952Y-76390428D01*
X126547571Y-76438047D01*
X126642809Y-76485666D01*
X126880904Y-76485666D01*
X126976142Y-76438047D01*
X127023761Y-76390428D01*
X127071380Y-76295190D01*
X127071380Y-76009476D01*
X127023761Y-75914238D01*
X126976142Y-75866619D01*
X126071380Y-79168666D02*
X126785666Y-79168666D01*
X126928523Y-79121047D01*
X127023761Y-79025809D01*
X127071380Y-78882952D01*
X127071380Y-78787714D01*
X126404714Y-80073428D02*
X127071380Y-80073428D01*
X126023761Y-79835333D02*
X126738047Y-79597238D01*
X126738047Y-80216285D01*
%LPC*%
D12*
X124479000Y-76200000D03*
X117329000Y-76200000D03*
D13*
X113538000Y-89916000D03*
D14*
X113538000Y-87376000D03*
X113538000Y-84836000D03*
X113538000Y-82296000D03*
D13*
X129032000Y-75819000D03*
D14*
X131572000Y-75819000D03*
X134112000Y-75819000D03*
X136652000Y-75819000D03*
X139192000Y-75819000D03*
X141732000Y-75819000D03*
X144272000Y-75819000D03*
X146812000Y-75819000D03*
X146812000Y-79502000D03*
X144272000Y-79502000D03*
X141732000Y-79502000D03*
X139192000Y-79502000D03*
X136652000Y-79502000D03*
X134112000Y-79502000D03*
X131572000Y-79502000D03*
D13*
X129032000Y-79502000D03*
X115062000Y-94615000D03*
D14*
X115062000Y-97155000D03*
X115062000Y-99695000D03*
X115062000Y-102235000D03*
D13*
X147193000Y-84455000D03*
D14*
X147193000Y-86995000D03*
X147193000Y-89535000D03*
X147193000Y-92075000D03*
X147193000Y-94615000D03*
X147193000Y-97155000D03*
D13*
X142367000Y-86995000D03*
D14*
X142367000Y-84455000D03*
D15*
X147193000Y-108966000D03*
D16*
X147193000Y-101346000D03*
X150495000Y-101346000D03*
D15*
X150495000Y-108966000D03*
D17*
X142318000Y-94759000D03*
X142318000Y-96759000D03*
X142318000Y-98759000D03*
X142318000Y-100759000D03*
X142318000Y-102759000D03*
X142318000Y-104759000D03*
X142318000Y-106759000D03*
X142318000Y-108759000D03*
X142318000Y-110759000D03*
X142318000Y-112759000D03*
X140318000Y-114759000D03*
X138318000Y-114759000D03*
X136318000Y-114759000D03*
X134318000Y-114759000D03*
X132318000Y-114759000D03*
X130318000Y-114759000D03*
X128318000Y-114759000D03*
X126318000Y-114759000D03*
X124318000Y-114759000D03*
X122318000Y-114759000D03*
X120318000Y-112759000D03*
X120318000Y-110759000D03*
X120318000Y-108759000D03*
X120318000Y-106759000D03*
X120318000Y-104759000D03*
X120318000Y-102759000D03*
X120318000Y-100759000D03*
X120318000Y-98759000D03*
X120318000Y-96759000D03*
X120318000Y-94759000D03*
X122318000Y-92759000D03*
X124318000Y-92759000D03*
X126318000Y-92759000D03*
X128318000Y-92759000D03*
X130318000Y-92759000D03*
X132318000Y-92759000D03*
X134318000Y-92759000D03*
X136318000Y-92759000D03*
X138318000Y-92759000D03*
D18*
X140318000Y-92759000D03*
D13*
X153924000Y-111633000D03*
D14*
X153924000Y-114173000D03*
X153924000Y-106807000D03*
D13*
X153924000Y-104267000D03*
M02*
