G04 #@! TF.GenerationSoftware,KiCad,Pcbnew,(5.1.6)-1*
G04 #@! TF.CreationDate,2022-08-02T16:41:35-04:00*
G04 #@! TF.ProjectId,amiga-500-usb-kb-stamp,616d6967-612d-4353-9030-2d7573622d6b,rev?*
G04 #@! TF.SameCoordinates,Original*
G04 #@! TF.FileFunction,Soldermask,Bot*
G04 #@! TF.FilePolarity,Negative*
%FSLAX46Y46*%
G04 Gerber Fmt 4.6, Leading zero omitted, Abs format (unit mm)*
G04 Created by KiCad (PCBNEW (5.1.6)-1) date 2022-08-02 16:41:35*
%MOMM*%
%LPD*%
G01*
G04 APERTURE LIST*
%ADD10C,1.950000*%
%ADD11R,1.800000X1.800000*%
%ADD12O,1.800000X1.800000*%
%ADD13C,1.700000*%
%ADD14O,1.700000X1.700000*%
%ADD15O,1.450000X1.450000*%
%ADD16C,1.450000*%
G04 APERTURE END LIST*
D10*
X124479000Y-76200000D03*
X117329000Y-76200000D03*
D11*
X113538000Y-89916000D03*
D12*
X113538000Y-87376000D03*
X113538000Y-84836000D03*
X113538000Y-82296000D03*
D11*
X129032000Y-75819000D03*
D12*
X131572000Y-75819000D03*
X134112000Y-75819000D03*
X136652000Y-75819000D03*
X139192000Y-75819000D03*
X141732000Y-75819000D03*
X144272000Y-75819000D03*
X146812000Y-75819000D03*
X146812000Y-79502000D03*
X144272000Y-79502000D03*
X141732000Y-79502000D03*
X139192000Y-79502000D03*
X136652000Y-79502000D03*
X134112000Y-79502000D03*
X131572000Y-79502000D03*
D11*
X129032000Y-79502000D03*
X115062000Y-94615000D03*
D12*
X115062000Y-97155000D03*
X115062000Y-99695000D03*
X115062000Y-102235000D03*
D11*
X147193000Y-84455000D03*
D12*
X147193000Y-86995000D03*
X147193000Y-89535000D03*
X147193000Y-92075000D03*
X147193000Y-94615000D03*
X147193000Y-97155000D03*
D11*
X142367000Y-86995000D03*
D12*
X142367000Y-84455000D03*
D13*
X147193000Y-108966000D03*
D14*
X147193000Y-101346000D03*
X150495000Y-101346000D03*
D13*
X150495000Y-108966000D03*
D15*
X142318000Y-94759000D03*
X142318000Y-96759000D03*
X142318000Y-98759000D03*
X142318000Y-100759000D03*
X142318000Y-102759000D03*
X142318000Y-104759000D03*
X142318000Y-106759000D03*
X142318000Y-108759000D03*
X142318000Y-110759000D03*
X142318000Y-112759000D03*
X140318000Y-114759000D03*
X138318000Y-114759000D03*
X136318000Y-114759000D03*
X134318000Y-114759000D03*
X132318000Y-114759000D03*
X130318000Y-114759000D03*
X128318000Y-114759000D03*
X126318000Y-114759000D03*
X124318000Y-114759000D03*
X122318000Y-114759000D03*
X120318000Y-112759000D03*
X120318000Y-110759000D03*
X120318000Y-108759000D03*
X120318000Y-106759000D03*
X120318000Y-104759000D03*
X120318000Y-102759000D03*
X120318000Y-100759000D03*
X120318000Y-98759000D03*
X120318000Y-96759000D03*
X120318000Y-94759000D03*
X122318000Y-92759000D03*
X124318000Y-92759000D03*
X126318000Y-92759000D03*
X128318000Y-92759000D03*
X130318000Y-92759000D03*
X132318000Y-92759000D03*
X134318000Y-92759000D03*
X136318000Y-92759000D03*
X138318000Y-92759000D03*
D16*
X140318000Y-92759000D03*
D11*
X153924000Y-111633000D03*
D12*
X153924000Y-114173000D03*
X153924000Y-106807000D03*
D11*
X153924000Y-104267000D03*
M02*
