%FSLAX45Y45*%
G04 Gerber Fmt 4.5, Leading zero omitted, Abs format (unit mm)*
G04 Created by KiCad (PCBNEW (5.1.6)-1) date 2024-01-16 16:58:59*
%MOMM*%
%LPD*%
G01*
G04 APERTURE LIST*
%TA.AperFunction,Profile*%
%ADD10C,0.050000*%
%TD*%
%ADD11C,0.200000*%
%ADD12C,0.300000*%
G04 APERTURE END LIST*
D10*
X14909800Y-7353300D02*
X15265400Y-7708900D01*
X14897100Y-7353300D02*
X14909800Y-7353300D01*
X11595100Y-7353300D02*
X14897100Y-7353300D01*
X11544300Y-7404100D02*
X11595100Y-7353300D01*
X15265400Y-9690100D02*
X15265400Y-7708900D01*
X15811500Y-10236200D02*
X15265400Y-9690100D01*
X15811500Y-11747500D02*
X15811500Y-10236200D01*
X11772900Y-11747500D02*
X15811500Y-11747500D01*
X11290300Y-11264900D02*
X11772900Y-11747500D01*
X11290300Y-11201400D02*
X11290300Y-11264900D01*
X11290300Y-11036300D02*
X11290300Y-11201400D01*
X11290300Y-10947400D02*
X11290300Y-11036300D01*
X11290300Y-9550400D02*
X11290300Y-10947400D01*
X10934700Y-9194800D02*
X11290300Y-9550400D01*
X10934700Y-8013700D02*
X10934700Y-9194800D01*
X11544300Y-7404100D02*
X10934700Y-8013700D01*
D11*
X11664000Y-10076500D02*
X11704000Y-10116500D01*
X11704000Y-10076500D02*
X11664000Y-10116500D01*
X11689400Y-8463600D02*
X11729400Y-8503600D01*
X11729400Y-8463600D02*
X11689400Y-8503600D01*
X11689400Y-11054400D02*
X11729400Y-11094400D01*
X11729400Y-11054400D02*
X11689400Y-11094400D01*
X11772020Y-8546221D02*
X11812020Y-8586221D01*
X11812020Y-8546221D02*
X11772020Y-8586221D01*
X12210100Y-9949500D02*
X12250100Y-9989500D01*
X12250100Y-9949500D02*
X12210100Y-9989500D01*
X12210100Y-10152700D02*
X12250100Y-10192700D01*
X12250100Y-10152700D02*
X12210100Y-10192700D01*
X12235500Y-11054400D02*
X12275500Y-11094400D01*
X12275500Y-11054400D02*
X12235500Y-11094400D01*
X12718100Y-7752400D02*
X12758100Y-7792400D01*
X12758100Y-7752400D02*
X12718100Y-7792400D01*
X12819700Y-8628700D02*
X12859700Y-8668700D01*
X12859700Y-8628700D02*
X12819700Y-8668700D01*
X13251500Y-7752400D02*
X13291500Y-7792400D01*
X13291500Y-7752400D02*
X13251500Y-7792400D01*
X14013500Y-9466900D02*
X14053500Y-9506900D01*
X14053500Y-9466900D02*
X14013500Y-9506900D01*
X14026200Y-10355900D02*
X14066200Y-10395900D01*
X14066200Y-10355900D02*
X14026200Y-10395900D01*
X14216700Y-9035100D02*
X14256700Y-9075100D01*
X14256700Y-9035100D02*
X14216700Y-9075100D01*
X14534200Y-11117900D02*
X14574200Y-11157900D01*
X14574200Y-11117900D02*
X14534200Y-11157900D01*
X14534200Y-11321100D02*
X14574200Y-11361100D01*
X14574200Y-11321100D02*
X14534200Y-11361100D01*
X14699300Y-10317800D02*
X14739300Y-10357800D01*
X14739300Y-10317800D02*
X14699300Y-10357800D01*
X14940600Y-7790500D02*
X14980600Y-7830500D01*
X14980600Y-7790500D02*
X14940600Y-7830500D01*
X14759300Y-10134600D02*
G75*
G03*
X14759300Y-10134600I-40000J0D01*
G01*
X14759300Y-10896600D02*
G75*
G03*
X14759300Y-10896600I-40000J0D01*
G01*
X15089500Y-10134600D02*
G75*
G03*
X15089500Y-10134600I-40000J0D01*
G01*
X15089500Y-10896600D02*
G75*
G03*
X15089500Y-10896600I-40000J0D01*
G01*
X12071800Y-9475900D02*
G75*
G03*
X12071800Y-9475900I-40000J0D01*
G01*
X12071800Y-9675900D02*
G75*
G03*
X12071800Y-9675900I-40000J0D01*
G01*
X12071800Y-9875900D02*
G75*
G03*
X12071800Y-9875900I-40000J0D01*
G01*
X12071800Y-10075900D02*
G75*
G03*
X12071800Y-10075900I-40000J0D01*
G01*
X12071800Y-10275900D02*
G75*
G03*
X12071800Y-10275900I-40000J0D01*
G01*
X12071800Y-10475900D02*
G75*
G03*
X12071800Y-10475900I-40000J0D01*
G01*
X12071800Y-10675900D02*
G75*
G03*
X12071800Y-10675900I-40000J0D01*
G01*
X12071800Y-10875900D02*
G75*
G03*
X12071800Y-10875900I-40000J0D01*
G01*
X12071800Y-11075900D02*
G75*
G03*
X12071800Y-11075900I-40000J0D01*
G01*
X12071800Y-11275900D02*
G75*
G03*
X12071800Y-11275900I-40000J0D01*
G01*
X12271800Y-9275900D02*
G75*
G03*
X12271800Y-9275900I-40000J0D01*
G01*
X12271800Y-11475900D02*
G75*
G03*
X12271800Y-11475900I-40000J0D01*
G01*
X12471800Y-9275900D02*
G75*
G03*
X12471800Y-9275900I-40000J0D01*
G01*
X12471800Y-11475900D02*
G75*
G03*
X12471800Y-11475900I-40000J0D01*
G01*
X12671800Y-9275900D02*
G75*
G03*
X12671800Y-9275900I-40000J0D01*
G01*
X12671800Y-11475900D02*
G75*
G03*
X12671800Y-11475900I-40000J0D01*
G01*
X12871800Y-9275900D02*
G75*
G03*
X12871800Y-9275900I-40000J0D01*
G01*
X12871800Y-11475900D02*
G75*
G03*
X12871800Y-11475900I-40000J0D01*
G01*
X13071800Y-9275900D02*
G75*
G03*
X13071800Y-9275900I-40000J0D01*
G01*
X13071800Y-11475900D02*
G75*
G03*
X13071800Y-11475900I-40000J0D01*
G01*
X13271800Y-9275900D02*
G75*
G03*
X13271800Y-9275900I-40000J0D01*
G01*
X13271800Y-11475900D02*
G75*
G03*
X13271800Y-11475900I-40000J0D01*
G01*
X13471800Y-9275900D02*
G75*
G03*
X13471800Y-9275900I-40000J0D01*
G01*
X13471800Y-11475900D02*
G75*
G03*
X13471800Y-11475900I-40000J0D01*
G01*
X13671800Y-9275900D02*
G75*
G03*
X13671800Y-9275900I-40000J0D01*
G01*
X13671800Y-11475900D02*
G75*
G03*
X13671800Y-11475900I-40000J0D01*
G01*
X13871800Y-9275900D02*
G75*
G03*
X13871800Y-9275900I-40000J0D01*
G01*
X13871800Y-11475900D02*
G75*
G03*
X13871800Y-11475900I-40000J0D01*
G01*
X14071800Y-9275900D02*
G75*
G03*
X14071800Y-9275900I-40000J0D01*
G01*
X14071800Y-11475900D02*
G75*
G03*
X14071800Y-11475900I-40000J0D01*
G01*
X14271800Y-9475900D02*
G75*
G03*
X14271800Y-9475900I-40000J0D01*
G01*
X14271800Y-9675900D02*
G75*
G03*
X14271800Y-9675900I-40000J0D01*
G01*
X14271800Y-9875900D02*
G75*
G03*
X14271800Y-9875900I-40000J0D01*
G01*
X14271800Y-10075900D02*
G75*
G03*
X14271800Y-10075900I-40000J0D01*
G01*
X14271800Y-10275900D02*
G75*
G03*
X14271800Y-10275900I-40000J0D01*
G01*
X14271800Y-10475900D02*
G75*
G03*
X14271800Y-10475900I-40000J0D01*
G01*
X14271800Y-10675900D02*
G75*
G03*
X14271800Y-10675900I-40000J0D01*
G01*
X14271800Y-10875900D02*
G75*
G03*
X14271800Y-10875900I-40000J0D01*
G01*
X14271800Y-11075900D02*
G75*
G03*
X14271800Y-11075900I-40000J0D01*
G01*
X14271800Y-11275900D02*
G75*
G03*
X14271800Y-11275900I-40000J0D01*
G01*
X11506200Y-9411500D02*
X11506200Y-9511500D01*
X11456200Y-9461500D02*
X11556200Y-9461500D01*
X11506200Y-9665500D02*
X11506200Y-9765500D01*
X11456200Y-9715500D02*
X11556200Y-9715500D01*
X11506200Y-9919500D02*
X11506200Y-10019500D01*
X11456200Y-9969500D02*
X11556200Y-9969500D01*
X11506200Y-10173500D02*
X11506200Y-10273500D01*
X11456200Y-10223500D02*
X11556200Y-10223500D01*
X11353800Y-8179600D02*
X11353800Y-8279600D01*
X11303800Y-8229600D02*
X11403800Y-8229600D01*
X11353800Y-8433600D02*
X11353800Y-8533600D01*
X11303800Y-8483600D02*
X11403800Y-8483600D01*
X11353800Y-8687600D02*
X11353800Y-8787600D01*
X11303800Y-8737600D02*
X11403800Y-8737600D01*
X11353800Y-8941600D02*
X11353800Y-9041600D01*
X11303800Y-8991600D02*
X11403800Y-8991600D01*
X12903200Y-7900200D02*
X12903200Y-8000200D01*
X12853200Y-7950200D02*
X12953200Y-7950200D01*
X13157200Y-7900200D02*
X13157200Y-8000200D01*
X13107200Y-7950200D02*
X13207200Y-7950200D01*
X13411200Y-7900200D02*
X13411200Y-8000200D01*
X13361200Y-7950200D02*
X13461200Y-7950200D01*
X13665200Y-7900200D02*
X13665200Y-8000200D01*
X13615200Y-7950200D02*
X13715200Y-7950200D01*
X13919200Y-7900200D02*
X13919200Y-8000200D01*
X13869200Y-7950200D02*
X13969200Y-7950200D01*
X14173200Y-7900200D02*
X14173200Y-8000200D01*
X14123200Y-7950200D02*
X14223200Y-7950200D01*
X14427200Y-7900200D02*
X14427200Y-8000200D01*
X14377200Y-7950200D02*
X14477200Y-7950200D01*
X14681200Y-7900200D02*
X14681200Y-8000200D01*
X14631200Y-7950200D02*
X14731200Y-7950200D01*
X14236700Y-8395500D02*
X14236700Y-8495500D01*
X14186700Y-8445500D02*
X14286700Y-8445500D01*
X14236700Y-8649500D02*
X14236700Y-8749500D01*
X14186700Y-8699500D02*
X14286700Y-8699500D01*
X14719300Y-8395500D02*
X14719300Y-8495500D01*
X14669300Y-8445500D02*
X14769300Y-8445500D01*
X14719300Y-8649500D02*
X14719300Y-8749500D01*
X14669300Y-8699500D02*
X14769300Y-8699500D01*
X14719300Y-8903500D02*
X14719300Y-9003500D01*
X14669300Y-8953500D02*
X14769300Y-8953500D01*
X14719300Y-9157500D02*
X14719300Y-9257500D01*
X14669300Y-9207500D02*
X14769300Y-9207500D01*
X14719300Y-9411500D02*
X14719300Y-9511500D01*
X14669300Y-9461500D02*
X14769300Y-9461500D01*
X14719300Y-9665500D02*
X14719300Y-9765500D01*
X14669300Y-9715500D02*
X14769300Y-9715500D01*
X15392400Y-11113300D02*
X15392400Y-11213300D01*
X15342400Y-11163300D02*
X15442400Y-11163300D01*
X15392400Y-11367300D02*
X15392400Y-11467300D01*
X15342400Y-11417300D02*
X15442400Y-11417300D01*
X15392400Y-10376700D02*
X15392400Y-10476700D01*
X15342400Y-10426700D02*
X15442400Y-10426700D01*
X15392400Y-10630700D02*
X15392400Y-10730700D01*
X15342400Y-10680700D02*
X15442400Y-10680700D01*
X12903200Y-7531900D02*
X12903200Y-7631900D01*
X12853200Y-7581900D02*
X12953200Y-7581900D01*
X13157200Y-7531900D02*
X13157200Y-7631900D01*
X13107200Y-7581900D02*
X13207200Y-7581900D01*
X13411200Y-7531900D02*
X13411200Y-7631900D01*
X13361200Y-7581900D02*
X13461200Y-7581900D01*
X13665200Y-7531900D02*
X13665200Y-7631900D01*
X13615200Y-7581900D02*
X13715200Y-7581900D01*
X13919200Y-7531900D02*
X13919200Y-7631900D01*
X13869200Y-7581900D02*
X13969200Y-7581900D01*
X14173200Y-7531900D02*
X14173200Y-7631900D01*
X14123200Y-7581900D02*
X14223200Y-7581900D01*
X14427200Y-7531900D02*
X14427200Y-7631900D01*
X14377200Y-7581900D02*
X14477200Y-7581900D01*
X14681200Y-7531900D02*
X14681200Y-7631900D01*
X14631200Y-7581900D02*
X14731200Y-7581900D01*
X11779870Y-7666970D02*
X11779870Y-7573030D01*
X11685930Y-7573030D01*
X11685930Y-7666970D01*
X11779870Y-7666970D01*
X12494870Y-7666970D02*
X12494870Y-7573030D01*
X12400930Y-7573030D01*
X12400930Y-7666970D01*
X12494870Y-7666970D01*
D12*
X11218628Y-12215714D02*
X11218628Y-11915714D01*
X11290057Y-11915714D01*
X11332914Y-11930000D01*
X11361486Y-11958571D01*
X11375771Y-11987143D01*
X11390057Y-12044286D01*
X11390057Y-12087143D01*
X11375771Y-12144286D01*
X11361486Y-12172857D01*
X11332914Y-12201429D01*
X11290057Y-12215714D01*
X11218628Y-12215714D01*
X11518628Y-12215714D02*
X11518628Y-12015714D01*
X11518628Y-12072857D02*
X11532914Y-12044286D01*
X11547200Y-12030000D01*
X11575771Y-12015714D01*
X11604343Y-12015714D01*
X11704343Y-12215714D02*
X11704343Y-12015714D01*
X11704343Y-11915714D02*
X11690057Y-11930000D01*
X11704343Y-11944286D01*
X11718628Y-11930000D01*
X11704343Y-11915714D01*
X11704343Y-11944286D01*
X11890057Y-12215714D02*
X11861486Y-12201429D01*
X11847200Y-12172857D01*
X11847200Y-11915714D01*
X12047200Y-12215714D02*
X12018628Y-12201429D01*
X12004343Y-12172857D01*
X12004343Y-11915714D01*
X12390057Y-12215714D02*
X12390057Y-11915714D01*
X12490057Y-12130000D01*
X12590057Y-11915714D01*
X12590057Y-12215714D01*
X12861486Y-12215714D02*
X12861486Y-12058571D01*
X12847200Y-12030000D01*
X12818628Y-12015714D01*
X12761486Y-12015714D01*
X12732914Y-12030000D01*
X12861486Y-12201429D02*
X12832914Y-12215714D01*
X12761486Y-12215714D01*
X12732914Y-12201429D01*
X12718628Y-12172857D01*
X12718628Y-12144286D01*
X12732914Y-12115714D01*
X12761486Y-12101429D01*
X12832914Y-12101429D01*
X12861486Y-12087143D01*
X13004343Y-12015714D02*
X13004343Y-12315714D01*
X13004343Y-12030000D02*
X13032914Y-12015714D01*
X13090057Y-12015714D01*
X13118628Y-12030000D01*
X13132914Y-12044286D01*
X13147200Y-12072857D01*
X13147200Y-12158571D01*
X13132914Y-12187143D01*
X13118628Y-12201429D01*
X13090057Y-12215714D01*
X13032914Y-12215714D01*
X13004343Y-12201429D01*
X13275771Y-12187143D02*
X13290057Y-12201429D01*
X13275771Y-12215714D01*
X13261486Y-12201429D01*
X13275771Y-12187143D01*
X13275771Y-12215714D01*
X13275771Y-12030000D02*
X13290057Y-12044286D01*
X13275771Y-12058571D01*
X13261486Y-12044286D01*
X13275771Y-12030000D01*
X13275771Y-12058571D01*
X10892200Y-12690000D02*
X10932200Y-12730000D01*
X10932200Y-12690000D02*
X10892200Y-12730000D01*
X11275771Y-12545714D02*
X11304343Y-12545714D01*
X11332914Y-12560000D01*
X11347200Y-12574286D01*
X11361486Y-12602857D01*
X11375771Y-12660000D01*
X11375771Y-12731429D01*
X11361486Y-12788571D01*
X11347200Y-12817143D01*
X11332914Y-12831429D01*
X11304343Y-12845714D01*
X11275771Y-12845714D01*
X11247200Y-12831429D01*
X11232914Y-12817143D01*
X11218628Y-12788571D01*
X11204343Y-12731429D01*
X11204343Y-12660000D01*
X11218628Y-12602857D01*
X11232914Y-12574286D01*
X11247200Y-12560000D01*
X11275771Y-12545714D01*
X11504343Y-12817143D02*
X11518628Y-12831429D01*
X11504343Y-12845714D01*
X11490057Y-12831429D01*
X11504343Y-12817143D01*
X11504343Y-12845714D01*
X11775771Y-12645714D02*
X11775771Y-12845714D01*
X11704343Y-12531429D02*
X11632914Y-12745714D01*
X11818628Y-12745714D01*
X11990057Y-12545714D02*
X12018628Y-12545714D01*
X12047200Y-12560000D01*
X12061486Y-12574286D01*
X12075771Y-12602857D01*
X12090057Y-12660000D01*
X12090057Y-12731429D01*
X12075771Y-12788571D01*
X12061486Y-12817143D01*
X12047200Y-12831429D01*
X12018628Y-12845714D01*
X11990057Y-12845714D01*
X11961486Y-12831429D01*
X11947200Y-12817143D01*
X11932914Y-12788571D01*
X11918628Y-12731429D01*
X11918628Y-12660000D01*
X11932914Y-12602857D01*
X11947200Y-12574286D01*
X11961486Y-12560000D01*
X11990057Y-12545714D01*
X12218628Y-12845714D02*
X12218628Y-12645714D01*
X12218628Y-12674286D02*
X12232914Y-12660000D01*
X12261486Y-12645714D01*
X12304343Y-12645714D01*
X12332914Y-12660000D01*
X12347200Y-12688571D01*
X12347200Y-12845714D01*
X12347200Y-12688571D02*
X12361486Y-12660000D01*
X12390057Y-12645714D01*
X12432914Y-12645714D01*
X12461486Y-12660000D01*
X12475771Y-12688571D01*
X12475771Y-12845714D01*
X12618628Y-12845714D02*
X12618628Y-12645714D01*
X12618628Y-12674286D02*
X12632914Y-12660000D01*
X12661486Y-12645714D01*
X12704343Y-12645714D01*
X12732914Y-12660000D01*
X12747200Y-12688571D01*
X12747200Y-12845714D01*
X12747200Y-12688571D02*
X12761486Y-12660000D01*
X12790057Y-12645714D01*
X12832914Y-12645714D01*
X12861486Y-12660000D01*
X12875771Y-12688571D01*
X12875771Y-12845714D01*
X13461486Y-12531429D02*
X13204343Y-12917143D01*
X13847200Y-12545714D02*
X13875771Y-12545714D01*
X13904343Y-12560000D01*
X13918628Y-12574286D01*
X13932914Y-12602857D01*
X13947200Y-12660000D01*
X13947200Y-12731429D01*
X13932914Y-12788571D01*
X13918628Y-12817143D01*
X13904343Y-12831429D01*
X13875771Y-12845714D01*
X13847200Y-12845714D01*
X13818628Y-12831429D01*
X13804343Y-12817143D01*
X13790057Y-12788571D01*
X13775771Y-12731429D01*
X13775771Y-12660000D01*
X13790057Y-12602857D01*
X13804343Y-12574286D01*
X13818628Y-12560000D01*
X13847200Y-12545714D01*
X14075771Y-12817143D02*
X14090057Y-12831429D01*
X14075771Y-12845714D01*
X14061486Y-12831429D01*
X14075771Y-12817143D01*
X14075771Y-12845714D01*
X14275771Y-12545714D02*
X14304343Y-12545714D01*
X14332914Y-12560000D01*
X14347200Y-12574286D01*
X14361486Y-12602857D01*
X14375771Y-12660000D01*
X14375771Y-12731429D01*
X14361486Y-12788571D01*
X14347200Y-12817143D01*
X14332914Y-12831429D01*
X14304343Y-12845714D01*
X14275771Y-12845714D01*
X14247200Y-12831429D01*
X14232914Y-12817143D01*
X14218628Y-12788571D01*
X14204343Y-12731429D01*
X14204343Y-12660000D01*
X14218628Y-12602857D01*
X14232914Y-12574286D01*
X14247200Y-12560000D01*
X14275771Y-12545714D01*
X14661486Y-12845714D02*
X14490057Y-12845714D01*
X14575771Y-12845714D02*
X14575771Y-12545714D01*
X14547200Y-12588571D01*
X14518628Y-12617143D01*
X14490057Y-12631429D01*
X14918628Y-12545714D02*
X14861486Y-12545714D01*
X14832914Y-12560000D01*
X14818628Y-12574286D01*
X14790057Y-12617143D01*
X14775771Y-12674286D01*
X14775771Y-12788571D01*
X14790057Y-12817143D01*
X14804343Y-12831429D01*
X14832914Y-12845714D01*
X14890057Y-12845714D01*
X14918628Y-12831429D01*
X14932914Y-12817143D01*
X14947200Y-12788571D01*
X14947200Y-12717143D01*
X14932914Y-12688571D01*
X14918628Y-12674286D01*
X14890057Y-12660000D01*
X14832914Y-12660000D01*
X14804343Y-12674286D01*
X14790057Y-12688571D01*
X14775771Y-12717143D01*
X15061486Y-12545714D02*
X15061486Y-12602857D01*
X15175771Y-12545714D02*
X15175771Y-12602857D01*
X15618628Y-12960000D02*
X15604343Y-12945714D01*
X15575771Y-12902857D01*
X15561486Y-12874286D01*
X15547200Y-12831429D01*
X15532914Y-12760000D01*
X15532914Y-12702857D01*
X15547200Y-12631429D01*
X15561486Y-12588571D01*
X15575771Y-12560000D01*
X15604343Y-12517143D01*
X15618628Y-12502857D01*
X15890057Y-12845714D02*
X15718628Y-12845714D01*
X15804343Y-12845714D02*
X15804343Y-12545714D01*
X15775771Y-12588571D01*
X15747200Y-12617143D01*
X15718628Y-12631429D01*
X15990057Y-12545714D02*
X16190057Y-12545714D01*
X16061486Y-12845714D01*
X16532914Y-12845714D02*
X16532914Y-12545714D01*
X16661486Y-12845714D02*
X16661486Y-12688571D01*
X16647200Y-12660000D01*
X16618628Y-12645714D01*
X16575771Y-12645714D01*
X16547200Y-12660000D01*
X16532914Y-12674286D01*
X16847200Y-12845714D02*
X16818628Y-12831429D01*
X16804343Y-12817143D01*
X16790057Y-12788571D01*
X16790057Y-12702857D01*
X16804343Y-12674286D01*
X16818628Y-12660000D01*
X16847200Y-12645714D01*
X16890057Y-12645714D01*
X16918628Y-12660000D01*
X16932914Y-12674286D01*
X16947200Y-12702857D01*
X16947200Y-12788571D01*
X16932914Y-12817143D01*
X16918628Y-12831429D01*
X16890057Y-12845714D01*
X16847200Y-12845714D01*
X17118628Y-12845714D02*
X17090057Y-12831429D01*
X17075771Y-12802857D01*
X17075771Y-12545714D01*
X17347200Y-12831429D02*
X17318628Y-12845714D01*
X17261486Y-12845714D01*
X17232914Y-12831429D01*
X17218628Y-12802857D01*
X17218628Y-12688571D01*
X17232914Y-12660000D01*
X17261486Y-12645714D01*
X17318628Y-12645714D01*
X17347200Y-12660000D01*
X17361486Y-12688571D01*
X17361486Y-12717143D01*
X17218628Y-12745714D01*
X17475771Y-12831429D02*
X17504343Y-12845714D01*
X17561486Y-12845714D01*
X17590057Y-12831429D01*
X17604343Y-12802857D01*
X17604343Y-12788571D01*
X17590057Y-12760000D01*
X17561486Y-12745714D01*
X17518628Y-12745714D01*
X17490057Y-12731429D01*
X17475771Y-12702857D01*
X17475771Y-12688571D01*
X17490057Y-12660000D01*
X17518628Y-12645714D01*
X17561486Y-12645714D01*
X17590057Y-12660000D01*
X17704343Y-12960000D02*
X17718628Y-12945714D01*
X17747200Y-12902857D01*
X17761486Y-12874286D01*
X17775771Y-12831429D01*
X17790057Y-12760000D01*
X17790057Y-12702857D01*
X17775771Y-12631429D01*
X17761486Y-12588571D01*
X17747200Y-12560000D01*
X17718628Y-12517143D01*
X17704343Y-12502857D01*
X10932200Y-13106000D02*
G75*
G03*
X10932200Y-13106000I-40000J0D01*
G01*
X11275771Y-12941714D02*
X11304343Y-12941714D01*
X11332914Y-12956000D01*
X11347200Y-12970286D01*
X11361486Y-12998857D01*
X11375771Y-13056000D01*
X11375771Y-13127429D01*
X11361486Y-13184571D01*
X11347200Y-13213143D01*
X11332914Y-13227429D01*
X11304343Y-13241714D01*
X11275771Y-13241714D01*
X11247200Y-13227429D01*
X11232914Y-13213143D01*
X11218628Y-13184571D01*
X11204343Y-13127429D01*
X11204343Y-13056000D01*
X11218628Y-12998857D01*
X11232914Y-12970286D01*
X11247200Y-12956000D01*
X11275771Y-12941714D01*
X11504343Y-13213143D02*
X11518628Y-13227429D01*
X11504343Y-13241714D01*
X11490057Y-13227429D01*
X11504343Y-13213143D01*
X11504343Y-13241714D01*
X11690057Y-13070286D02*
X11661486Y-13056000D01*
X11647200Y-13041714D01*
X11632914Y-13013143D01*
X11632914Y-12998857D01*
X11647200Y-12970286D01*
X11661486Y-12956000D01*
X11690057Y-12941714D01*
X11747200Y-12941714D01*
X11775771Y-12956000D01*
X11790057Y-12970286D01*
X11804343Y-12998857D01*
X11804343Y-13013143D01*
X11790057Y-13041714D01*
X11775771Y-13056000D01*
X11747200Y-13070286D01*
X11690057Y-13070286D01*
X11661486Y-13084571D01*
X11647200Y-13098857D01*
X11632914Y-13127429D01*
X11632914Y-13184571D01*
X11647200Y-13213143D01*
X11661486Y-13227429D01*
X11690057Y-13241714D01*
X11747200Y-13241714D01*
X11775771Y-13227429D01*
X11790057Y-13213143D01*
X11804343Y-13184571D01*
X11804343Y-13127429D01*
X11790057Y-13098857D01*
X11775771Y-13084571D01*
X11747200Y-13070286D01*
X11990057Y-12941714D02*
X12018628Y-12941714D01*
X12047200Y-12956000D01*
X12061486Y-12970286D01*
X12075771Y-12998857D01*
X12090057Y-13056000D01*
X12090057Y-13127429D01*
X12075771Y-13184571D01*
X12061486Y-13213143D01*
X12047200Y-13227429D01*
X12018628Y-13241714D01*
X11990057Y-13241714D01*
X11961486Y-13227429D01*
X11947200Y-13213143D01*
X11932914Y-13184571D01*
X11918628Y-13127429D01*
X11918628Y-13056000D01*
X11932914Y-12998857D01*
X11947200Y-12970286D01*
X11961486Y-12956000D01*
X11990057Y-12941714D01*
X12218628Y-13241714D02*
X12218628Y-13041714D01*
X12218628Y-13070286D02*
X12232914Y-13056000D01*
X12261486Y-13041714D01*
X12304343Y-13041714D01*
X12332914Y-13056000D01*
X12347200Y-13084571D01*
X12347200Y-13241714D01*
X12347200Y-13084571D02*
X12361486Y-13056000D01*
X12390057Y-13041714D01*
X12432914Y-13041714D01*
X12461486Y-13056000D01*
X12475771Y-13084571D01*
X12475771Y-13241714D01*
X12618628Y-13241714D02*
X12618628Y-13041714D01*
X12618628Y-13070286D02*
X12632914Y-13056000D01*
X12661486Y-13041714D01*
X12704343Y-13041714D01*
X12732914Y-13056000D01*
X12747200Y-13084571D01*
X12747200Y-13241714D01*
X12747200Y-13084571D02*
X12761486Y-13056000D01*
X12790057Y-13041714D01*
X12832914Y-13041714D01*
X12861486Y-13056000D01*
X12875771Y-13084571D01*
X12875771Y-13241714D01*
X13461486Y-12927429D02*
X13204343Y-13313143D01*
X13847200Y-12941714D02*
X13875771Y-12941714D01*
X13904343Y-12956000D01*
X13918628Y-12970286D01*
X13932914Y-12998857D01*
X13947200Y-13056000D01*
X13947200Y-13127429D01*
X13932914Y-13184571D01*
X13918628Y-13213143D01*
X13904343Y-13227429D01*
X13875771Y-13241714D01*
X13847200Y-13241714D01*
X13818628Y-13227429D01*
X13804343Y-13213143D01*
X13790057Y-13184571D01*
X13775771Y-13127429D01*
X13775771Y-13056000D01*
X13790057Y-12998857D01*
X13804343Y-12970286D01*
X13818628Y-12956000D01*
X13847200Y-12941714D01*
X14075771Y-13213143D02*
X14090057Y-13227429D01*
X14075771Y-13241714D01*
X14061486Y-13227429D01*
X14075771Y-13213143D01*
X14075771Y-13241714D01*
X14275771Y-12941714D02*
X14304343Y-12941714D01*
X14332914Y-12956000D01*
X14347200Y-12970286D01*
X14361486Y-12998857D01*
X14375771Y-13056000D01*
X14375771Y-13127429D01*
X14361486Y-13184571D01*
X14347200Y-13213143D01*
X14332914Y-13227429D01*
X14304343Y-13241714D01*
X14275771Y-13241714D01*
X14247200Y-13227429D01*
X14232914Y-13213143D01*
X14218628Y-13184571D01*
X14204343Y-13127429D01*
X14204343Y-13056000D01*
X14218628Y-12998857D01*
X14232914Y-12970286D01*
X14247200Y-12956000D01*
X14275771Y-12941714D01*
X14475771Y-12941714D02*
X14661486Y-12941714D01*
X14561486Y-13056000D01*
X14604343Y-13056000D01*
X14632914Y-13070286D01*
X14647200Y-13084571D01*
X14661486Y-13113143D01*
X14661486Y-13184571D01*
X14647200Y-13213143D01*
X14632914Y-13227429D01*
X14604343Y-13241714D01*
X14518628Y-13241714D01*
X14490057Y-13227429D01*
X14475771Y-13213143D01*
X14947200Y-13241714D02*
X14775771Y-13241714D01*
X14861486Y-13241714D02*
X14861486Y-12941714D01*
X14832914Y-12984571D01*
X14804343Y-13013143D01*
X14775771Y-13027429D01*
X15061486Y-12941714D02*
X15061486Y-12998857D01*
X15175771Y-12941714D02*
X15175771Y-12998857D01*
X15618628Y-13356000D02*
X15604343Y-13341714D01*
X15575771Y-13298857D01*
X15561486Y-13270286D01*
X15547200Y-13227429D01*
X15532914Y-13156000D01*
X15532914Y-13098857D01*
X15547200Y-13027429D01*
X15561486Y-12984571D01*
X15575771Y-12956000D01*
X15604343Y-12913143D01*
X15618628Y-12898857D01*
X15861486Y-13041714D02*
X15861486Y-13241714D01*
X15790057Y-12927429D02*
X15718628Y-13141714D01*
X15904343Y-13141714D01*
X16147200Y-13041714D02*
X16147200Y-13241714D01*
X16075771Y-12927429D02*
X16004343Y-13141714D01*
X16190057Y-13141714D01*
X16532914Y-13241714D02*
X16532914Y-12941714D01*
X16661486Y-13241714D02*
X16661486Y-13084571D01*
X16647200Y-13056000D01*
X16618628Y-13041714D01*
X16575771Y-13041714D01*
X16547200Y-13056000D01*
X16532914Y-13070286D01*
X16847200Y-13241714D02*
X16818628Y-13227429D01*
X16804343Y-13213143D01*
X16790057Y-13184571D01*
X16790057Y-13098857D01*
X16804343Y-13070286D01*
X16818628Y-13056000D01*
X16847200Y-13041714D01*
X16890057Y-13041714D01*
X16918628Y-13056000D01*
X16932914Y-13070286D01*
X16947200Y-13098857D01*
X16947200Y-13184571D01*
X16932914Y-13213143D01*
X16918628Y-13227429D01*
X16890057Y-13241714D01*
X16847200Y-13241714D01*
X17118628Y-13241714D02*
X17090057Y-13227429D01*
X17075771Y-13198857D01*
X17075771Y-12941714D01*
X17347200Y-13227429D02*
X17318628Y-13241714D01*
X17261486Y-13241714D01*
X17232914Y-13227429D01*
X17218628Y-13198857D01*
X17218628Y-13084571D01*
X17232914Y-13056000D01*
X17261486Y-13041714D01*
X17318628Y-13041714D01*
X17347200Y-13056000D01*
X17361486Y-13084571D01*
X17361486Y-13113143D01*
X17218628Y-13141714D01*
X17475771Y-13227429D02*
X17504343Y-13241714D01*
X17561486Y-13241714D01*
X17590057Y-13227429D01*
X17604343Y-13198857D01*
X17604343Y-13184571D01*
X17590057Y-13156000D01*
X17561486Y-13141714D01*
X17518628Y-13141714D01*
X17490057Y-13127429D01*
X17475771Y-13098857D01*
X17475771Y-13084571D01*
X17490057Y-13056000D01*
X17518628Y-13041714D01*
X17561486Y-13041714D01*
X17590057Y-13056000D01*
X17704343Y-13356000D02*
X17718628Y-13341714D01*
X17747200Y-13298857D01*
X17761486Y-13270286D01*
X17775771Y-13227429D01*
X17790057Y-13156000D01*
X17790057Y-13098857D01*
X17775771Y-13027429D01*
X17761486Y-12984571D01*
X17747200Y-12956000D01*
X17718628Y-12913143D01*
X17704343Y-12898857D01*
X10882200Y-13452000D02*
X10882200Y-13552000D01*
X10832200Y-13502000D02*
X10932200Y-13502000D01*
X11375771Y-13637714D02*
X11204343Y-13637714D01*
X11290057Y-13637714D02*
X11290057Y-13337714D01*
X11261486Y-13380571D01*
X11232914Y-13409143D01*
X11204343Y-13423429D01*
X11504343Y-13609143D02*
X11518628Y-13623429D01*
X11504343Y-13637714D01*
X11490057Y-13623429D01*
X11504343Y-13609143D01*
X11504343Y-13637714D01*
X11704343Y-13337714D02*
X11732914Y-13337714D01*
X11761486Y-13352000D01*
X11775771Y-13366286D01*
X11790057Y-13394857D01*
X11804343Y-13452000D01*
X11804343Y-13523429D01*
X11790057Y-13580571D01*
X11775771Y-13609143D01*
X11761486Y-13623429D01*
X11732914Y-13637714D01*
X11704343Y-13637714D01*
X11675771Y-13623429D01*
X11661486Y-13609143D01*
X11647200Y-13580571D01*
X11632914Y-13523429D01*
X11632914Y-13452000D01*
X11647200Y-13394857D01*
X11661486Y-13366286D01*
X11675771Y-13352000D01*
X11704343Y-13337714D01*
X11990057Y-13337714D02*
X12018628Y-13337714D01*
X12047200Y-13352000D01*
X12061486Y-13366286D01*
X12075771Y-13394857D01*
X12090057Y-13452000D01*
X12090057Y-13523429D01*
X12075771Y-13580571D01*
X12061486Y-13609143D01*
X12047200Y-13623429D01*
X12018628Y-13637714D01*
X11990057Y-13637714D01*
X11961486Y-13623429D01*
X11947200Y-13609143D01*
X11932914Y-13580571D01*
X11918628Y-13523429D01*
X11918628Y-13452000D01*
X11932914Y-13394857D01*
X11947200Y-13366286D01*
X11961486Y-13352000D01*
X11990057Y-13337714D01*
X12218628Y-13637714D02*
X12218628Y-13437714D01*
X12218628Y-13466286D02*
X12232914Y-13452000D01*
X12261486Y-13437714D01*
X12304343Y-13437714D01*
X12332914Y-13452000D01*
X12347200Y-13480571D01*
X12347200Y-13637714D01*
X12347200Y-13480571D02*
X12361486Y-13452000D01*
X12390057Y-13437714D01*
X12432914Y-13437714D01*
X12461486Y-13452000D01*
X12475771Y-13480571D01*
X12475771Y-13637714D01*
X12618628Y-13637714D02*
X12618628Y-13437714D01*
X12618628Y-13466286D02*
X12632914Y-13452000D01*
X12661486Y-13437714D01*
X12704343Y-13437714D01*
X12732914Y-13452000D01*
X12747200Y-13480571D01*
X12747200Y-13637714D01*
X12747200Y-13480571D02*
X12761486Y-13452000D01*
X12790057Y-13437714D01*
X12832914Y-13437714D01*
X12861486Y-13452000D01*
X12875771Y-13480571D01*
X12875771Y-13637714D01*
X13461486Y-13323429D02*
X13204343Y-13709143D01*
X13847200Y-13337714D02*
X13875771Y-13337714D01*
X13904343Y-13352000D01*
X13918628Y-13366286D01*
X13932914Y-13394857D01*
X13947200Y-13452000D01*
X13947200Y-13523429D01*
X13932914Y-13580571D01*
X13918628Y-13609143D01*
X13904343Y-13623429D01*
X13875771Y-13637714D01*
X13847200Y-13637714D01*
X13818628Y-13623429D01*
X13804343Y-13609143D01*
X13790057Y-13580571D01*
X13775771Y-13523429D01*
X13775771Y-13452000D01*
X13790057Y-13394857D01*
X13804343Y-13366286D01*
X13818628Y-13352000D01*
X13847200Y-13337714D01*
X14075771Y-13609143D02*
X14090057Y-13623429D01*
X14075771Y-13637714D01*
X14061486Y-13623429D01*
X14075771Y-13609143D01*
X14075771Y-13637714D01*
X14275771Y-13337714D02*
X14304343Y-13337714D01*
X14332914Y-13352000D01*
X14347200Y-13366286D01*
X14361486Y-13394857D01*
X14375771Y-13452000D01*
X14375771Y-13523429D01*
X14361486Y-13580571D01*
X14347200Y-13609143D01*
X14332914Y-13623429D01*
X14304343Y-13637714D01*
X14275771Y-13637714D01*
X14247200Y-13623429D01*
X14232914Y-13609143D01*
X14218628Y-13580571D01*
X14204343Y-13523429D01*
X14204343Y-13452000D01*
X14218628Y-13394857D01*
X14232914Y-13366286D01*
X14247200Y-13352000D01*
X14275771Y-13337714D01*
X14475771Y-13337714D02*
X14661486Y-13337714D01*
X14561486Y-13452000D01*
X14604343Y-13452000D01*
X14632914Y-13466286D01*
X14647200Y-13480571D01*
X14661486Y-13509143D01*
X14661486Y-13580571D01*
X14647200Y-13609143D01*
X14632914Y-13623429D01*
X14604343Y-13637714D01*
X14518628Y-13637714D01*
X14490057Y-13623429D01*
X14475771Y-13609143D01*
X14804343Y-13637714D02*
X14861486Y-13637714D01*
X14890057Y-13623429D01*
X14904343Y-13609143D01*
X14932914Y-13566286D01*
X14947200Y-13509143D01*
X14947200Y-13394857D01*
X14932914Y-13366286D01*
X14918628Y-13352000D01*
X14890057Y-13337714D01*
X14832914Y-13337714D01*
X14804343Y-13352000D01*
X14790057Y-13366286D01*
X14775771Y-13394857D01*
X14775771Y-13466286D01*
X14790057Y-13494857D01*
X14804343Y-13509143D01*
X14832914Y-13523429D01*
X14890057Y-13523429D01*
X14918628Y-13509143D01*
X14932914Y-13494857D01*
X14947200Y-13466286D01*
X15061486Y-13337714D02*
X15061486Y-13394857D01*
X15175771Y-13337714D02*
X15175771Y-13394857D01*
X15618628Y-13752000D02*
X15604343Y-13737714D01*
X15575771Y-13694857D01*
X15561486Y-13666286D01*
X15547200Y-13623429D01*
X15532914Y-13552000D01*
X15532914Y-13494857D01*
X15547200Y-13423429D01*
X15561486Y-13380571D01*
X15575771Y-13352000D01*
X15604343Y-13309143D01*
X15618628Y-13294857D01*
X15704343Y-13337714D02*
X15890057Y-13337714D01*
X15790057Y-13452000D01*
X15832914Y-13452000D01*
X15861486Y-13466286D01*
X15875771Y-13480571D01*
X15890057Y-13509143D01*
X15890057Y-13580571D01*
X15875771Y-13609143D01*
X15861486Y-13623429D01*
X15832914Y-13637714D01*
X15747200Y-13637714D01*
X15718628Y-13623429D01*
X15704343Y-13609143D01*
X16147200Y-13337714D02*
X16090057Y-13337714D01*
X16061486Y-13352000D01*
X16047200Y-13366286D01*
X16018628Y-13409143D01*
X16004343Y-13466286D01*
X16004343Y-13580571D01*
X16018628Y-13609143D01*
X16032914Y-13623429D01*
X16061486Y-13637714D01*
X16118628Y-13637714D01*
X16147200Y-13623429D01*
X16161486Y-13609143D01*
X16175771Y-13580571D01*
X16175771Y-13509143D01*
X16161486Y-13480571D01*
X16147200Y-13466286D01*
X16118628Y-13452000D01*
X16061486Y-13452000D01*
X16032914Y-13466286D01*
X16018628Y-13480571D01*
X16004343Y-13509143D01*
X16532914Y-13637714D02*
X16532914Y-13337714D01*
X16661486Y-13637714D02*
X16661486Y-13480571D01*
X16647200Y-13452000D01*
X16618628Y-13437714D01*
X16575771Y-13437714D01*
X16547200Y-13452000D01*
X16532914Y-13466286D01*
X16847200Y-13637714D02*
X16818628Y-13623429D01*
X16804343Y-13609143D01*
X16790057Y-13580571D01*
X16790057Y-13494857D01*
X16804343Y-13466286D01*
X16818628Y-13452000D01*
X16847200Y-13437714D01*
X16890057Y-13437714D01*
X16918628Y-13452000D01*
X16932914Y-13466286D01*
X16947200Y-13494857D01*
X16947200Y-13580571D01*
X16932914Y-13609143D01*
X16918628Y-13623429D01*
X16890057Y-13637714D01*
X16847200Y-13637714D01*
X17118628Y-13637714D02*
X17090057Y-13623429D01*
X17075771Y-13594857D01*
X17075771Y-13337714D01*
X17347200Y-13623429D02*
X17318628Y-13637714D01*
X17261486Y-13637714D01*
X17232914Y-13623429D01*
X17218628Y-13594857D01*
X17218628Y-13480571D01*
X17232914Y-13452000D01*
X17261486Y-13437714D01*
X17318628Y-13437714D01*
X17347200Y-13452000D01*
X17361486Y-13480571D01*
X17361486Y-13509143D01*
X17218628Y-13537714D01*
X17475771Y-13623429D02*
X17504343Y-13637714D01*
X17561486Y-13637714D01*
X17590057Y-13623429D01*
X17604343Y-13594857D01*
X17604343Y-13580571D01*
X17590057Y-13552000D01*
X17561486Y-13537714D01*
X17518628Y-13537714D01*
X17490057Y-13523429D01*
X17475771Y-13494857D01*
X17475771Y-13480571D01*
X17490057Y-13452000D01*
X17518628Y-13437714D01*
X17561486Y-13437714D01*
X17590057Y-13452000D01*
X17704343Y-13752000D02*
X17718628Y-13737714D01*
X17747200Y-13694857D01*
X17761486Y-13666286D01*
X17775771Y-13623429D01*
X17790057Y-13552000D01*
X17790057Y-13494857D01*
X17775771Y-13423429D01*
X17761486Y-13380571D01*
X17747200Y-13352000D01*
X17718628Y-13309143D01*
X17704343Y-13294857D01*
X10912745Y-13944970D02*
X10912745Y-13851030D01*
X10818805Y-13851030D01*
X10818805Y-13944970D01*
X10912745Y-13944970D01*
X11375771Y-14033714D02*
X11204343Y-14033714D01*
X11290057Y-14033714D02*
X11290057Y-13733714D01*
X11261486Y-13776571D01*
X11232914Y-13805143D01*
X11204343Y-13819429D01*
X11504343Y-14005143D02*
X11518628Y-14019429D01*
X11504343Y-14033714D01*
X11490057Y-14019429D01*
X11504343Y-14005143D01*
X11504343Y-14033714D01*
X11618628Y-13733714D02*
X11804343Y-13733714D01*
X11704343Y-13848000D01*
X11747200Y-13848000D01*
X11775771Y-13862286D01*
X11790057Y-13876571D01*
X11804343Y-13905143D01*
X11804343Y-13976571D01*
X11790057Y-14005143D01*
X11775771Y-14019429D01*
X11747200Y-14033714D01*
X11661486Y-14033714D01*
X11632914Y-14019429D01*
X11618628Y-14005143D01*
X11904343Y-13733714D02*
X12090057Y-13733714D01*
X11990057Y-13848000D01*
X12032914Y-13848000D01*
X12061486Y-13862286D01*
X12075771Y-13876571D01*
X12090057Y-13905143D01*
X12090057Y-13976571D01*
X12075771Y-14005143D01*
X12061486Y-14019429D01*
X12032914Y-14033714D01*
X11947200Y-14033714D01*
X11918628Y-14019429D01*
X11904343Y-14005143D01*
X12218628Y-14033714D02*
X12218628Y-13833714D01*
X12218628Y-13862286D02*
X12232914Y-13848000D01*
X12261486Y-13833714D01*
X12304343Y-13833714D01*
X12332914Y-13848000D01*
X12347200Y-13876571D01*
X12347200Y-14033714D01*
X12347200Y-13876571D02*
X12361486Y-13848000D01*
X12390057Y-13833714D01*
X12432914Y-13833714D01*
X12461486Y-13848000D01*
X12475771Y-13876571D01*
X12475771Y-14033714D01*
X12618628Y-14033714D02*
X12618628Y-13833714D01*
X12618628Y-13862286D02*
X12632914Y-13848000D01*
X12661486Y-13833714D01*
X12704343Y-13833714D01*
X12732914Y-13848000D01*
X12747200Y-13876571D01*
X12747200Y-14033714D01*
X12747200Y-13876571D02*
X12761486Y-13848000D01*
X12790057Y-13833714D01*
X12832914Y-13833714D01*
X12861486Y-13848000D01*
X12875771Y-13876571D01*
X12875771Y-14033714D01*
X13461486Y-13719429D02*
X13204343Y-14105143D01*
X13847200Y-13733714D02*
X13875771Y-13733714D01*
X13904343Y-13748000D01*
X13918628Y-13762286D01*
X13932914Y-13790857D01*
X13947200Y-13848000D01*
X13947200Y-13919429D01*
X13932914Y-13976571D01*
X13918628Y-14005143D01*
X13904343Y-14019429D01*
X13875771Y-14033714D01*
X13847200Y-14033714D01*
X13818628Y-14019429D01*
X13804343Y-14005143D01*
X13790057Y-13976571D01*
X13775771Y-13919429D01*
X13775771Y-13848000D01*
X13790057Y-13790857D01*
X13804343Y-13762286D01*
X13818628Y-13748000D01*
X13847200Y-13733714D01*
X14075771Y-14005143D02*
X14090057Y-14019429D01*
X14075771Y-14033714D01*
X14061486Y-14019429D01*
X14075771Y-14005143D01*
X14075771Y-14033714D01*
X14275771Y-13733714D02*
X14304343Y-13733714D01*
X14332914Y-13748000D01*
X14347200Y-13762286D01*
X14361486Y-13790857D01*
X14375771Y-13848000D01*
X14375771Y-13919429D01*
X14361486Y-13976571D01*
X14347200Y-14005143D01*
X14332914Y-14019429D01*
X14304343Y-14033714D01*
X14275771Y-14033714D01*
X14247200Y-14019429D01*
X14232914Y-14005143D01*
X14218628Y-13976571D01*
X14204343Y-13919429D01*
X14204343Y-13848000D01*
X14218628Y-13790857D01*
X14232914Y-13762286D01*
X14247200Y-13748000D01*
X14275771Y-13733714D01*
X14647200Y-13733714D02*
X14504343Y-13733714D01*
X14490057Y-13876571D01*
X14504343Y-13862286D01*
X14532914Y-13848000D01*
X14604343Y-13848000D01*
X14632914Y-13862286D01*
X14647200Y-13876571D01*
X14661486Y-13905143D01*
X14661486Y-13976571D01*
X14647200Y-14005143D01*
X14632914Y-14019429D01*
X14604343Y-14033714D01*
X14532914Y-14033714D01*
X14504343Y-14019429D01*
X14490057Y-14005143D01*
X14775771Y-13762286D02*
X14790057Y-13748000D01*
X14818628Y-13733714D01*
X14890057Y-13733714D01*
X14918628Y-13748000D01*
X14932914Y-13762286D01*
X14947200Y-13790857D01*
X14947200Y-13819429D01*
X14932914Y-13862286D01*
X14761486Y-14033714D01*
X14947200Y-14033714D01*
X15061486Y-13733714D02*
X15061486Y-13790857D01*
X15175771Y-13733714D02*
X15175771Y-13790857D01*
X15618628Y-14148000D02*
X15604343Y-14133714D01*
X15575771Y-14090857D01*
X15561486Y-14062286D01*
X15547200Y-14019429D01*
X15532914Y-13948000D01*
X15532914Y-13890857D01*
X15547200Y-13819429D01*
X15561486Y-13776571D01*
X15575771Y-13748000D01*
X15604343Y-13705143D01*
X15618628Y-13690857D01*
X15718628Y-13762286D02*
X15732914Y-13748000D01*
X15761486Y-13733714D01*
X15832914Y-13733714D01*
X15861486Y-13748000D01*
X15875771Y-13762286D01*
X15890057Y-13790857D01*
X15890057Y-13819429D01*
X15875771Y-13862286D01*
X15704343Y-14033714D01*
X15890057Y-14033714D01*
X16247200Y-14033714D02*
X16247200Y-13733714D01*
X16375771Y-14033714D02*
X16375771Y-13876571D01*
X16361486Y-13848000D01*
X16332914Y-13833714D01*
X16290057Y-13833714D01*
X16261486Y-13848000D01*
X16247200Y-13862286D01*
X16561486Y-14033714D02*
X16532914Y-14019429D01*
X16518628Y-14005143D01*
X16504343Y-13976571D01*
X16504343Y-13890857D01*
X16518628Y-13862286D01*
X16532914Y-13848000D01*
X16561486Y-13833714D01*
X16604343Y-13833714D01*
X16632914Y-13848000D01*
X16647200Y-13862286D01*
X16661486Y-13890857D01*
X16661486Y-13976571D01*
X16647200Y-14005143D01*
X16632914Y-14019429D01*
X16604343Y-14033714D01*
X16561486Y-14033714D01*
X16832914Y-14033714D02*
X16804343Y-14019429D01*
X16790057Y-13990857D01*
X16790057Y-13733714D01*
X17061486Y-14019429D02*
X17032914Y-14033714D01*
X16975771Y-14033714D01*
X16947200Y-14019429D01*
X16932914Y-13990857D01*
X16932914Y-13876571D01*
X16947200Y-13848000D01*
X16975771Y-13833714D01*
X17032914Y-13833714D01*
X17061486Y-13848000D01*
X17075771Y-13876571D01*
X17075771Y-13905143D01*
X16932914Y-13933714D01*
X17190057Y-14019429D02*
X17218628Y-14033714D01*
X17275771Y-14033714D01*
X17304343Y-14019429D01*
X17318628Y-13990857D01*
X17318628Y-13976571D01*
X17304343Y-13948000D01*
X17275771Y-13933714D01*
X17232914Y-13933714D01*
X17204343Y-13919429D01*
X17190057Y-13890857D01*
X17190057Y-13876571D01*
X17204343Y-13848000D01*
X17232914Y-13833714D01*
X17275771Y-13833714D01*
X17304343Y-13848000D01*
X17418628Y-14148000D02*
X17432914Y-14133714D01*
X17461486Y-14090857D01*
X17475771Y-14062286D01*
X17490057Y-14019429D01*
X17504343Y-13948000D01*
X17504343Y-13890857D01*
X17490057Y-13819429D01*
X17475771Y-13776571D01*
X17461486Y-13748000D01*
X17432914Y-13705143D01*
X17418628Y-13690857D01*
M02*
