M48
; DRILL file {KiCad (5.1.6)-1} date 01/16/24 16:58:58
; FORMAT={-:-/ absolute / metric / decimal}
; #@! TF.CreationDate,2024-01-16T16:58:58-05:00
; #@! TF.GenerationSoftware,Kicad,Pcbnew,(5.1.6)-1
; #@! TF.FileFunction,Plated,1,2,PTH
FMAT,2
METRIC
T1C0.400
T2C0.800
T3C1.000
T4C1.329
%
G90
G05
T1
X116.84Y-100.965
X117.094Y-84.836
X117.094Y-110.744
X117.92Y-85.662
X122.301Y-99.695
X122.301Y-101.727
X122.555Y-110.744
X127.381Y-77.724
X128.397Y-86.487
X132.715Y-77.724
X140.335Y-94.869
X140.462Y-103.759
X142.367Y-90.551
X145.542Y-111.379
X145.542Y-113.411
X147.193Y-103.378
X149.606Y-78.105
T2
X147.193Y-101.346
X147.193Y-108.966
X150.495Y-101.346
X150.495Y-108.966
X120.318Y-94.759
X120.318Y-96.759
X120.318Y-98.759
X120.318Y-100.759
X120.318Y-102.759
X120.318Y-104.759
X120.318Y-106.759
X120.318Y-108.759
X120.318Y-110.759
X120.318Y-112.759
X122.318Y-92.759
X122.318Y-114.759
X124.318Y-92.759
X124.318Y-114.759
X126.318Y-92.759
X126.318Y-114.759
X128.318Y-92.759
X128.318Y-114.759
X130.318Y-92.759
X130.318Y-114.759
X132.318Y-92.759
X132.318Y-114.759
X134.318Y-92.759
X134.318Y-114.759
X136.318Y-92.759
X136.318Y-114.759
X138.318Y-92.759
X138.318Y-114.759
X140.318Y-92.759
X140.318Y-114.759
X142.318Y-94.759
X142.318Y-96.759
X142.318Y-98.759
X142.318Y-100.759
X142.318Y-102.759
X142.318Y-104.759
X142.318Y-106.759
X142.318Y-108.759
X142.318Y-110.759
X142.318Y-112.759
T3
X115.062Y-94.615
X115.062Y-97.155
X115.062Y-99.695
X115.062Y-102.235
X113.538Y-82.296
X113.538Y-84.836
X113.538Y-87.376
X113.538Y-89.916
X129.032Y-79.502
X131.572Y-79.502
X134.112Y-79.502
X136.652Y-79.502
X139.192Y-79.502
X141.732Y-79.502
X144.272Y-79.502
X146.812Y-79.502
X142.367Y-84.455
X142.367Y-86.995
X147.193Y-84.455
X147.193Y-86.995
X147.193Y-89.535
X147.193Y-92.075
X147.193Y-94.615
X147.193Y-97.155
X153.924Y-111.633
X153.924Y-114.173
X153.924Y-104.267
X153.924Y-106.807
X129.032Y-75.819
X131.572Y-75.819
X134.112Y-75.819
X136.652Y-75.819
X139.192Y-75.819
X141.732Y-75.819
X144.272Y-75.819
X146.812Y-75.819
T4
X117.329Y-76.2
X124.479Y-76.2
T0
M30
