G04 #@! TF.GenerationSoftware,KiCad,Pcbnew,(5.1.6)-1*
G04 #@! TF.CreationDate,2024-01-16T16:58:56-05:00*
G04 #@! TF.ProjectId,amiga-500-usb-kb-stamp,616d6967-612d-4353-9030-2d7573622d6b,rev?*
G04 #@! TF.SameCoordinates,Original*
G04 #@! TF.FileFunction,Copper,L1,Top*
G04 #@! TF.FilePolarity,Positive*
%FSLAX46Y46*%
G04 Gerber Fmt 4.6, Leading zero omitted, Abs format (unit mm)*
G04 Created by KiCad (PCBNEW (5.1.6)-1) date 2024-01-16 16:58:56*
%MOMM*%
%LPD*%
G01*
G04 APERTURE LIST*
G04 #@! TA.AperFunction,SMDPad,CuDef*
%ADD10R,0.650000X1.525000*%
G04 #@! TD*
G04 #@! TA.AperFunction,SMDPad,CuDef*
%ADD11R,0.400000X1.400000*%
G04 #@! TD*
G04 #@! TA.AperFunction,ComponentPad*
%ADD12C,1.850000*%
G04 #@! TD*
G04 #@! TA.AperFunction,SMDPad,CuDef*
%ADD13R,1.750000X1.900000*%
G04 #@! TD*
G04 #@! TA.AperFunction,SMDPad,CuDef*
%ADD14R,1.150000X1.450000*%
G04 #@! TD*
G04 #@! TA.AperFunction,ComponentPad*
%ADD15R,1.700000X1.700000*%
G04 #@! TD*
G04 #@! TA.AperFunction,ComponentPad*
%ADD16O,1.700000X1.700000*%
G04 #@! TD*
G04 #@! TA.AperFunction,ComponentPad*
%ADD17C,1.600000*%
G04 #@! TD*
G04 #@! TA.AperFunction,ComponentPad*
%ADD18O,1.600000X1.600000*%
G04 #@! TD*
G04 #@! TA.AperFunction,ComponentPad*
%ADD19O,1.350000X1.350000*%
G04 #@! TD*
G04 #@! TA.AperFunction,SMDPad,CuDef*
%ADD20R,2.800000X1.500000*%
G04 #@! TD*
G04 #@! TA.AperFunction,SMDPad,CuDef*
%ADD21R,1.500000X2.800000*%
G04 #@! TD*
G04 #@! TA.AperFunction,ComponentPad*
%ADD22C,1.350000*%
G04 #@! TD*
G04 #@! TA.AperFunction,ViaPad*
%ADD23C,0.800000*%
G04 #@! TD*
G04 #@! TA.AperFunction,Conductor*
%ADD24C,0.400000*%
G04 #@! TD*
G04 #@! TA.AperFunction,Conductor*
%ADD25C,0.250000*%
G04 #@! TD*
G04 #@! TA.AperFunction,Conductor*
%ADD26C,0.500000*%
G04 #@! TD*
G04 #@! TA.AperFunction,Conductor*
%ADD27C,0.200000*%
G04 #@! TD*
G04 APERTURE END LIST*
G04 #@! TA.AperFunction,SMDPad,CuDef*
G36*
G01*
X126432000Y-87814999D02*
X126432000Y-88715001D01*
G75*
G02*
X126182001Y-88965000I-249999J0D01*
G01*
X125531999Y-88965000D01*
G75*
G02*
X125282000Y-88715001I0J249999D01*
G01*
X125282000Y-87814999D01*
G75*
G02*
X125531999Y-87565000I249999J0D01*
G01*
X126182001Y-87565000D01*
G75*
G02*
X126432000Y-87814999I0J-249999D01*
G01*
G37*
G04 #@! TD.AperFunction*
G04 #@! TA.AperFunction,SMDPad,CuDef*
G36*
G01*
X124382000Y-87814999D02*
X124382000Y-88715001D01*
G75*
G02*
X124132001Y-88965000I-249999J0D01*
G01*
X123481999Y-88965000D01*
G75*
G02*
X123232000Y-88715001I0J249999D01*
G01*
X123232000Y-87814999D01*
G75*
G02*
X123481999Y-87565000I249999J0D01*
G01*
X124132001Y-87565000D01*
G75*
G02*
X124382000Y-87814999I0J-249999D01*
G01*
G37*
G04 #@! TD.AperFunction*
G04 #@! TA.AperFunction,SMDPad,CuDef*
G36*
G01*
X125282000Y-83127001D02*
X125282000Y-82226999D01*
G75*
G02*
X125531999Y-81977000I249999J0D01*
G01*
X126182001Y-81977000D01*
G75*
G02*
X126432000Y-82226999I0J-249999D01*
G01*
X126432000Y-83127001D01*
G75*
G02*
X126182001Y-83377000I-249999J0D01*
G01*
X125531999Y-83377000D01*
G75*
G02*
X125282000Y-83127001I0J249999D01*
G01*
G37*
G04 #@! TD.AperFunction*
G04 #@! TA.AperFunction,SMDPad,CuDef*
G36*
G01*
X123232000Y-83127001D02*
X123232000Y-82226999D01*
G75*
G02*
X123481999Y-81977000I249999J0D01*
G01*
X124132001Y-81977000D01*
G75*
G02*
X124382000Y-82226999I0J-249999D01*
G01*
X124382000Y-83127001D01*
G75*
G02*
X124132001Y-83377000I-249999J0D01*
G01*
X123481999Y-83377000D01*
G75*
G02*
X123232000Y-83127001I0J249999D01*
G01*
G37*
G04 #@! TD.AperFunction*
D10*
X127762000Y-88183000D03*
X129032000Y-88183000D03*
X130302000Y-88183000D03*
X131572000Y-88183000D03*
X132842000Y-88183000D03*
X134112000Y-88183000D03*
X135382000Y-88183000D03*
X135382000Y-82759000D03*
X134112000Y-82759000D03*
X132842000Y-82759000D03*
X131572000Y-82759000D03*
X130302000Y-82759000D03*
X129032000Y-82759000D03*
X127762000Y-82759000D03*
D11*
X122204000Y-78850000D03*
X121554000Y-78850000D03*
X120904000Y-78850000D03*
X120254000Y-78850000D03*
X119604000Y-78850000D03*
D12*
X124479000Y-76200000D03*
X117329000Y-76200000D03*
D13*
X122029000Y-76200000D03*
X119779000Y-76200000D03*
D14*
X123224000Y-78430000D03*
X118584000Y-78430000D03*
D15*
X113538000Y-89916000D03*
D16*
X113538000Y-87376000D03*
X113538000Y-84836000D03*
X113538000Y-82296000D03*
D15*
X129032000Y-75819000D03*
D16*
X131572000Y-75819000D03*
X134112000Y-75819000D03*
X136652000Y-75819000D03*
X139192000Y-75819000D03*
X141732000Y-75819000D03*
X144272000Y-75819000D03*
X146812000Y-75819000D03*
X146812000Y-79502000D03*
X144272000Y-79502000D03*
X141732000Y-79502000D03*
X139192000Y-79502000D03*
X136652000Y-79502000D03*
X134112000Y-79502000D03*
X131572000Y-79502000D03*
D15*
X129032000Y-79502000D03*
X115062000Y-94615000D03*
D16*
X115062000Y-97155000D03*
X115062000Y-99695000D03*
X115062000Y-102235000D03*
D15*
X147193000Y-84455000D03*
D16*
X147193000Y-86995000D03*
X147193000Y-89535000D03*
X147193000Y-92075000D03*
X147193000Y-94615000D03*
X147193000Y-97155000D03*
D15*
X142367000Y-86995000D03*
D16*
X142367000Y-84455000D03*
G04 #@! TA.AperFunction,SMDPad,CuDef*
G36*
G01*
X137090999Y-84007000D02*
X137991001Y-84007000D01*
G75*
G02*
X138241000Y-84256999I0J-249999D01*
G01*
X138241000Y-84907001D01*
G75*
G02*
X137991001Y-85157000I-249999J0D01*
G01*
X137090999Y-85157000D01*
G75*
G02*
X136841000Y-84907001I0J249999D01*
G01*
X136841000Y-84256999D01*
G75*
G02*
X137090999Y-84007000I249999J0D01*
G01*
G37*
G04 #@! TD.AperFunction*
G04 #@! TA.AperFunction,SMDPad,CuDef*
G36*
G01*
X137090999Y-86057000D02*
X137991001Y-86057000D01*
G75*
G02*
X138241000Y-86306999I0J-249999D01*
G01*
X138241000Y-86957001D01*
G75*
G02*
X137991001Y-87207000I-249999J0D01*
G01*
X137090999Y-87207000D01*
G75*
G02*
X136841000Y-86957001I0J249999D01*
G01*
X136841000Y-86306999D01*
G75*
G02*
X137090999Y-86057000I249999J0D01*
G01*
G37*
G04 #@! TD.AperFunction*
D17*
X147193000Y-108966000D03*
D18*
X147193000Y-101346000D03*
X150495000Y-101346000D03*
D17*
X150495000Y-108966000D03*
D19*
X142318000Y-94759000D03*
D20*
X142968000Y-94759000D03*
X142968000Y-96759000D03*
D19*
X142318000Y-96759000D03*
X142318000Y-98759000D03*
D20*
X142968000Y-98759000D03*
X142968000Y-100759000D03*
D19*
X142318000Y-100759000D03*
X142318000Y-102759000D03*
D20*
X142968000Y-102759000D03*
D19*
X142318000Y-104759000D03*
D20*
X142968000Y-104759000D03*
X142968000Y-106759000D03*
D19*
X142318000Y-106759000D03*
D20*
X142968000Y-108759000D03*
D19*
X142318000Y-108759000D03*
X142318000Y-110759000D03*
D20*
X142968000Y-110759000D03*
D19*
X142318000Y-112759000D03*
D20*
X142968000Y-112759000D03*
D21*
X140318000Y-115409000D03*
D19*
X140318000Y-114759000D03*
D21*
X138318000Y-115409000D03*
D19*
X138318000Y-114759000D03*
D21*
X136318000Y-115409000D03*
D19*
X136318000Y-114759000D03*
D21*
X134318000Y-115409000D03*
D19*
X134318000Y-114759000D03*
X132318000Y-114759000D03*
D21*
X132318000Y-115409000D03*
X130318000Y-115409000D03*
D19*
X130318000Y-114759000D03*
X128318000Y-114759000D03*
D21*
X128318000Y-115409000D03*
X126318000Y-115409000D03*
D19*
X126318000Y-114759000D03*
D21*
X124318000Y-115409000D03*
D19*
X124318000Y-114759000D03*
D21*
X122318000Y-115409000D03*
D19*
X122318000Y-114759000D03*
X120318000Y-112759000D03*
D20*
X119668000Y-112759000D03*
D19*
X120318000Y-110759000D03*
D20*
X119668000Y-110759000D03*
X119668000Y-108759000D03*
D19*
X120318000Y-108759000D03*
D20*
X119668000Y-106759000D03*
D19*
X120318000Y-106759000D03*
X120318000Y-104759000D03*
D20*
X119668000Y-104759000D03*
X119668000Y-102759000D03*
D19*
X120318000Y-102759000D03*
D20*
X119668000Y-100759000D03*
D19*
X120318000Y-100759000D03*
D20*
X119668000Y-98759000D03*
D19*
X120318000Y-98759000D03*
D20*
X119668000Y-96759000D03*
D19*
X120318000Y-96759000D03*
X120318000Y-94759000D03*
D20*
X119668000Y-94759000D03*
D21*
X122318000Y-92109000D03*
D19*
X122318000Y-92759000D03*
D21*
X124318000Y-92109000D03*
D19*
X124318000Y-92759000D03*
D21*
X126318000Y-92109000D03*
D19*
X126318000Y-92759000D03*
X128318000Y-92759000D03*
D21*
X128318000Y-92109000D03*
X130318000Y-92109000D03*
D19*
X130318000Y-92759000D03*
X132318000Y-92759000D03*
D21*
X132318000Y-92109000D03*
X134318000Y-92109000D03*
D19*
X134318000Y-92759000D03*
X136318000Y-92759000D03*
D21*
X136318000Y-92109000D03*
D19*
X138318000Y-92759000D03*
D21*
X138318000Y-92109000D03*
X140318000Y-92109000D03*
D22*
X140318000Y-92759000D03*
D15*
X153924000Y-111633000D03*
D16*
X153924000Y-114173000D03*
X153924000Y-106807000D03*
D15*
X153924000Y-104267000D03*
G04 #@! TA.AperFunction,SMDPad,CuDef*
G36*
G01*
X146742999Y-110795000D02*
X147643001Y-110795000D01*
G75*
G02*
X147893000Y-111044999I0J-249999D01*
G01*
X147893000Y-111695001D01*
G75*
G02*
X147643001Y-111945000I-249999J0D01*
G01*
X146742999Y-111945000D01*
G75*
G02*
X146493000Y-111695001I0J249999D01*
G01*
X146493000Y-111044999D01*
G75*
G02*
X146742999Y-110795000I249999J0D01*
G01*
G37*
G04 #@! TD.AperFunction*
G04 #@! TA.AperFunction,SMDPad,CuDef*
G36*
G01*
X146742999Y-112845000D02*
X147643001Y-112845000D01*
G75*
G02*
X147893000Y-113094999I0J-249999D01*
G01*
X147893000Y-113745001D01*
G75*
G02*
X147643001Y-113995000I-249999J0D01*
G01*
X146742999Y-113995000D01*
G75*
G02*
X146493000Y-113745001I0J249999D01*
G01*
X146493000Y-113094999D01*
G75*
G02*
X146742999Y-112845000I249999J0D01*
G01*
G37*
G04 #@! TD.AperFunction*
D23*
X145542000Y-113411000D03*
X117094000Y-110744000D03*
X122555000Y-110744000D03*
X140335000Y-94869000D03*
X140462000Y-103759000D03*
X116840000Y-100965000D03*
X127381000Y-77724000D03*
X132715000Y-77724000D03*
X149606000Y-78105000D03*
X147193000Y-103378000D03*
X128397000Y-86487000D03*
X117920205Y-85662205D03*
X117094000Y-84836000D03*
X122301000Y-99695000D03*
X122301000Y-101727000D03*
X142367000Y-90551000D03*
X145542000Y-111379000D03*
D24*
X127680000Y-88265000D02*
X127762000Y-88183000D01*
X125857000Y-88265000D02*
X127680000Y-88265000D01*
X124333000Y-89789000D02*
X125857000Y-88265000D01*
X115062000Y-94615000D02*
X119888000Y-89789000D01*
X119888000Y-89789000D02*
X124333000Y-89789000D01*
D25*
X147193000Y-113420000D02*
X145551000Y-113420000D01*
X145551000Y-113420000D02*
X145542000Y-113411000D01*
X123224000Y-77455000D02*
X124479000Y-76200000D01*
X123224000Y-78430000D02*
X123224000Y-77455000D01*
X124479000Y-76200000D02*
X122029000Y-76200000D01*
X119779000Y-76200000D02*
X122029000Y-76200000D01*
X117329000Y-76200000D02*
X119779000Y-76200000D01*
X118584000Y-77455000D02*
X118584000Y-78430000D01*
X117329000Y-76200000D02*
X118584000Y-77455000D01*
D26*
X136652000Y-75819000D02*
X136652000Y-79502000D01*
D24*
X127680000Y-82677000D02*
X127762000Y-82759000D01*
X125857000Y-82677000D02*
X127680000Y-82677000D01*
X122204000Y-82562412D02*
X122204000Y-79358000D01*
X114850412Y-89916000D02*
X122204000Y-82562412D01*
X113538000Y-89916000D02*
X114850412Y-89916000D01*
X118618000Y-89916000D02*
X113538000Y-89916000D01*
X125857000Y-82677000D02*
X118618000Y-89916000D01*
D26*
X145114000Y-108759000D02*
X142318000Y-108759000D01*
X138176000Y-74295000D02*
X148844000Y-74295000D01*
X136652000Y-75819000D02*
X138176000Y-74295000D01*
X148844000Y-74295000D02*
X151892000Y-77343000D01*
X151892000Y-77343000D02*
X151892000Y-101981000D01*
X151892000Y-101981000D02*
X145114000Y-108759000D01*
D24*
X135001000Y-74168000D02*
X136652000Y-75819000D01*
X125857000Y-82677000D02*
X125857000Y-76573998D01*
X128262998Y-74168000D02*
X135001000Y-74168000D01*
X125857000Y-76573998D02*
X128262998Y-74168000D01*
X122204000Y-80234000D02*
X122204000Y-79532000D01*
X122204000Y-80234000D02*
X122204000Y-79358000D01*
X122204000Y-79532000D02*
X122204000Y-78850000D01*
X122204000Y-80458000D02*
X122204000Y-80234000D01*
D25*
X137541000Y-84582000D02*
X137541000Y-82042000D01*
X136652000Y-81153000D02*
X136652000Y-79502000D01*
X137541000Y-82042000D02*
X136652000Y-81153000D01*
X132318000Y-90471500D02*
X132318000Y-92759000D01*
X131572000Y-88183000D02*
X131572000Y-89725500D01*
X131572000Y-89725500D02*
X132318000Y-90471500D01*
X130318000Y-90481500D02*
X130318000Y-92759000D01*
X129032000Y-89195500D02*
X130318000Y-90481500D01*
X129032000Y-88183000D02*
X129032000Y-89195500D01*
X129618500Y-86487000D02*
X128397000Y-86487000D01*
X130302000Y-88183000D02*
X130302000Y-87170500D01*
X130302000Y-87170500D02*
X129618500Y-86487000D01*
X135382000Y-82759000D02*
X135382000Y-85979000D01*
X136035000Y-86632000D02*
X137541000Y-86632000D01*
X135382000Y-85979000D02*
X136035000Y-86632000D01*
X129032000Y-76962000D02*
X131572000Y-79502000D01*
X129032000Y-75819000D02*
X129032000Y-76962000D01*
X131572000Y-79502000D02*
X131572000Y-80772000D01*
X130302000Y-82042000D02*
X130302000Y-82759000D01*
X131572000Y-80772000D02*
X130302000Y-82042000D01*
X129032000Y-79502000D02*
X129032000Y-82759000D01*
X134112000Y-75819000D02*
X134112000Y-79502000D01*
X131572000Y-82042000D02*
X131572000Y-82759000D01*
X134112000Y-79502000D02*
X131572000Y-82042000D01*
X116206410Y-87376000D02*
X117920205Y-85662205D01*
X113538000Y-87376000D02*
X116206410Y-87376000D01*
X117920205Y-85662205D02*
X121554000Y-82028410D01*
X121554000Y-79771000D02*
X121554000Y-78850000D01*
X121554000Y-79771000D02*
X121554000Y-79358000D01*
X121554000Y-82028410D02*
X121554000Y-79771000D01*
X118110000Y-84836000D02*
X117094000Y-84836000D01*
X120904000Y-82042000D02*
X118110000Y-84836000D01*
X117094000Y-84836000D02*
X113538000Y-84836000D01*
X120904000Y-79756000D02*
X120904000Y-82042000D01*
X120904000Y-79756000D02*
X120904000Y-78850000D01*
X120904000Y-79358000D02*
X120904000Y-79756000D01*
D26*
X144272000Y-79502000D02*
X144272000Y-81026000D01*
X144272000Y-81026000D02*
X145034000Y-81788000D01*
X145034000Y-81788000D02*
X147701000Y-81788000D01*
X147701000Y-81788000D02*
X149479000Y-83566000D01*
X149479000Y-99060000D02*
X147193000Y-101346000D01*
X149479000Y-83566000D02*
X149479000Y-99060000D01*
X144272000Y-75819000D02*
X144272000Y-79502000D01*
X150495000Y-83185000D02*
X150495000Y-101346000D01*
X146812000Y-79502000D02*
X150495000Y-83185000D01*
X146812000Y-75819000D02*
X146812000Y-79502000D01*
D25*
X134318000Y-96949000D02*
X134318000Y-92759000D01*
X122301000Y-99695000D02*
X131572000Y-99695000D01*
X131572000Y-99695000D02*
X134318000Y-96949000D01*
X122301000Y-101727000D02*
X133350000Y-101727000D01*
X136318000Y-98759000D02*
X136318000Y-92759000D01*
X133350000Y-101727000D02*
X136318000Y-98759000D01*
X141429000Y-92759000D02*
X147193000Y-86995000D01*
X140318000Y-92759000D02*
X141429000Y-92759000D01*
X148463000Y-93345000D02*
X147193000Y-92075000D01*
X142968000Y-100759000D02*
X145621000Y-100759000D01*
X148463000Y-97917000D02*
X148463000Y-93345000D01*
X145621000Y-100759000D02*
X148463000Y-97917000D01*
X145589000Y-98759000D02*
X147193000Y-97155000D01*
X142968000Y-98759000D02*
X145589000Y-98759000D01*
D26*
X147193000Y-108966000D02*
X147193000Y-109728000D01*
X149860000Y-111633000D02*
X153924000Y-111633000D01*
X147193000Y-108966000D02*
X149860000Y-111633000D01*
X150495000Y-107696000D02*
X153924000Y-104267000D01*
X150495000Y-108966000D02*
X150495000Y-107696000D01*
D25*
X142367000Y-86995000D02*
X142367000Y-90551000D01*
X147193000Y-111370000D02*
X145551000Y-111370000D01*
X145551000Y-111370000D02*
X145542000Y-111379000D01*
D27*
G36*
X125754498Y-75827973D02*
G01*
X125747810Y-75796547D01*
X125661469Y-75588099D01*
X125479599Y-75482243D01*
X124761843Y-76200000D01*
X124775985Y-76214142D01*
X124493142Y-76496985D01*
X124479000Y-76482843D01*
X123761243Y-77200599D01*
X123822213Y-77305351D01*
X123799000Y-77303065D01*
X123524000Y-77305000D01*
X123424002Y-77404998D01*
X123424002Y-77305000D01*
X123274706Y-77305000D01*
X123275340Y-77303814D01*
X123298212Y-77228414D01*
X123305935Y-77150000D01*
X123304943Y-76816797D01*
X123478401Y-76917757D01*
X124196157Y-76200000D01*
X123478401Y-75482243D01*
X123304943Y-75583203D01*
X123305935Y-75250000D01*
X123300952Y-75199401D01*
X123761243Y-75199401D01*
X124479000Y-75917157D01*
X125196757Y-75199401D01*
X125090901Y-75017531D01*
X124848454Y-74920876D01*
X124591810Y-74873377D01*
X124330832Y-74876860D01*
X124075547Y-74931190D01*
X123867099Y-75017531D01*
X123761243Y-75199401D01*
X123300952Y-75199401D01*
X123298212Y-75171586D01*
X123275340Y-75096186D01*
X123238197Y-75026697D01*
X123188211Y-74965789D01*
X123127303Y-74915803D01*
X123057814Y-74878660D01*
X122982414Y-74855788D01*
X122904000Y-74848065D01*
X122329000Y-74850000D01*
X122229000Y-74950000D01*
X122229000Y-76000000D01*
X122249000Y-76000000D01*
X122249000Y-76400000D01*
X122229000Y-76400000D01*
X122229000Y-77450000D01*
X122295956Y-77516956D01*
X122277660Y-77551186D01*
X122254788Y-77626586D01*
X122247065Y-77705000D01*
X122247261Y-77748065D01*
X122004000Y-77748065D01*
X121925586Y-77755788D01*
X121879000Y-77769919D01*
X121832414Y-77755788D01*
X121754000Y-77748065D01*
X121354000Y-77748065D01*
X121275586Y-77755788D01*
X121229000Y-77769919D01*
X121182414Y-77755788D01*
X121104000Y-77748065D01*
X120704000Y-77748065D01*
X120625586Y-77755788D01*
X120579000Y-77769919D01*
X120532414Y-77755788D01*
X120454000Y-77748065D01*
X120054000Y-77748065D01*
X119975586Y-77755788D01*
X119929000Y-77769919D01*
X119882414Y-77755788D01*
X119804000Y-77748065D01*
X119804000Y-77750000D01*
X119704000Y-77850000D01*
X119704000Y-77956262D01*
X119682660Y-77996186D01*
X119659788Y-78071586D01*
X119652065Y-78150000D01*
X119652065Y-79550000D01*
X119659788Y-79628414D01*
X119682660Y-79703814D01*
X119704000Y-79743738D01*
X119704000Y-79850000D01*
X119804000Y-79950000D01*
X119804000Y-79951935D01*
X119882414Y-79944212D01*
X119929000Y-79930081D01*
X119975586Y-79944212D01*
X120054000Y-79951935D01*
X120379000Y-79951935D01*
X120379001Y-81824537D01*
X117892539Y-84311000D01*
X117700371Y-84311000D01*
X117603970Y-84214599D01*
X117472942Y-84127049D01*
X117327351Y-84066743D01*
X117172793Y-84036000D01*
X117015207Y-84036000D01*
X116860649Y-84066743D01*
X116715058Y-84127049D01*
X116584030Y-84214599D01*
X116487629Y-84311000D01*
X114673528Y-84311000D01*
X114645735Y-84243903D01*
X114508938Y-84039172D01*
X114334828Y-83865062D01*
X114130097Y-83728265D01*
X113902611Y-83634037D01*
X113661114Y-83586000D01*
X113414886Y-83586000D01*
X113173389Y-83634037D01*
X112945903Y-83728265D01*
X112741172Y-83865062D01*
X112567062Y-84039172D01*
X112430265Y-84243903D01*
X112336037Y-84471389D01*
X112288000Y-84712886D01*
X112288000Y-84959114D01*
X112336037Y-85200611D01*
X112430265Y-85428097D01*
X112567062Y-85632828D01*
X112741172Y-85806938D01*
X112945903Y-85943735D01*
X113173389Y-86037963D01*
X113414886Y-86086000D01*
X113661114Y-86086000D01*
X113902611Y-86037963D01*
X114130097Y-85943735D01*
X114334828Y-85806938D01*
X114508938Y-85632828D01*
X114645735Y-85428097D01*
X114673528Y-85361000D01*
X116487629Y-85361000D01*
X116584030Y-85457401D01*
X116715058Y-85544951D01*
X116860649Y-85605257D01*
X117015207Y-85636000D01*
X117120205Y-85636000D01*
X117120205Y-85719743D01*
X115988949Y-86851000D01*
X114673528Y-86851000D01*
X114645735Y-86783903D01*
X114508938Y-86579172D01*
X114334828Y-86405062D01*
X114130097Y-86268265D01*
X113902611Y-86174037D01*
X113661114Y-86126000D01*
X113414886Y-86126000D01*
X113173389Y-86174037D01*
X112945903Y-86268265D01*
X112741172Y-86405062D01*
X112567062Y-86579172D01*
X112430265Y-86783903D01*
X112336037Y-87011389D01*
X112288000Y-87252886D01*
X112288000Y-87499114D01*
X112336037Y-87740611D01*
X112430265Y-87968097D01*
X112567062Y-88172828D01*
X112741172Y-88346938D01*
X112945903Y-88483735D01*
X113173389Y-88577963D01*
X113414886Y-88626000D01*
X113661114Y-88626000D01*
X113902611Y-88577963D01*
X114130097Y-88483735D01*
X114334828Y-88346938D01*
X114508938Y-88172828D01*
X114645735Y-87968097D01*
X114673528Y-87901000D01*
X116016885Y-87901000D01*
X114789935Y-89127950D01*
X114789935Y-89066000D01*
X114782212Y-88987586D01*
X114759340Y-88912186D01*
X114722197Y-88842697D01*
X114672211Y-88781789D01*
X114611303Y-88731803D01*
X114541814Y-88694660D01*
X114466414Y-88671788D01*
X114388000Y-88664065D01*
X112688000Y-88664065D01*
X112609586Y-88671788D01*
X112534186Y-88694660D01*
X112464697Y-88731803D01*
X112403789Y-88781789D01*
X112353803Y-88842697D01*
X112316660Y-88912186D01*
X112293788Y-88987586D01*
X112286065Y-89066000D01*
X112286065Y-90766000D01*
X112293788Y-90844414D01*
X112316660Y-90919814D01*
X112353803Y-90989303D01*
X112403789Y-91050211D01*
X112464697Y-91100197D01*
X112534186Y-91137340D01*
X112609586Y-91160212D01*
X112688000Y-91167935D01*
X114388000Y-91167935D01*
X114466414Y-91160212D01*
X114541814Y-91137340D01*
X114611303Y-91100197D01*
X114672211Y-91050211D01*
X114722197Y-90989303D01*
X114759340Y-90919814D01*
X114782212Y-90844414D01*
X114789935Y-90766000D01*
X114789935Y-90516000D01*
X114820938Y-90516000D01*
X114850412Y-90518903D01*
X114879886Y-90516000D01*
X118312472Y-90516000D01*
X115465408Y-93363065D01*
X114212000Y-93363065D01*
X114133586Y-93370788D01*
X114058186Y-93393660D01*
X113988697Y-93430803D01*
X113927789Y-93480789D01*
X113877803Y-93541697D01*
X113840660Y-93611186D01*
X113817788Y-93686586D01*
X113810065Y-93765000D01*
X113810065Y-95465000D01*
X113817788Y-95543414D01*
X113840660Y-95618814D01*
X113877803Y-95688303D01*
X113927789Y-95749211D01*
X113988697Y-95799197D01*
X114058186Y-95836340D01*
X114133586Y-95859212D01*
X114212000Y-95866935D01*
X115912000Y-95866935D01*
X115990414Y-95859212D01*
X116065814Y-95836340D01*
X116135303Y-95799197D01*
X116196211Y-95749211D01*
X116246197Y-95688303D01*
X116283340Y-95618814D01*
X116306212Y-95543414D01*
X116313935Y-95465000D01*
X116313935Y-94211592D01*
X120136528Y-90389000D01*
X121327398Y-90389000D01*
X121283789Y-90424789D01*
X121233803Y-90485697D01*
X121196660Y-90555186D01*
X121173788Y-90630586D01*
X121166065Y-90709000D01*
X121166065Y-93509000D01*
X121173788Y-93587414D01*
X121185707Y-93626707D01*
X121146414Y-93614788D01*
X121068000Y-93607065D01*
X118268000Y-93607065D01*
X118189586Y-93614788D01*
X118114186Y-93637660D01*
X118044697Y-93674803D01*
X117983789Y-93724789D01*
X117933803Y-93785697D01*
X117896660Y-93855186D01*
X117873788Y-93930586D01*
X117866065Y-94009000D01*
X117866065Y-95509000D01*
X117873788Y-95587414D01*
X117896660Y-95662814D01*
X117933803Y-95732303D01*
X117955713Y-95759000D01*
X117933803Y-95785697D01*
X117896660Y-95855186D01*
X117873788Y-95930586D01*
X117866065Y-96009000D01*
X117866065Y-97509000D01*
X117873788Y-97587414D01*
X117896660Y-97662814D01*
X117933803Y-97732303D01*
X117955713Y-97759000D01*
X117933803Y-97785697D01*
X117896660Y-97855186D01*
X117873788Y-97930586D01*
X117866065Y-98009000D01*
X117866065Y-99509000D01*
X117873788Y-99587414D01*
X117896660Y-99662814D01*
X117933803Y-99732303D01*
X117955713Y-99759000D01*
X117933803Y-99785697D01*
X117896660Y-99855186D01*
X117873788Y-99930586D01*
X117866065Y-100009000D01*
X117866065Y-101509000D01*
X117873788Y-101587414D01*
X117896660Y-101662814D01*
X117933803Y-101732303D01*
X117955713Y-101759000D01*
X117933803Y-101785697D01*
X117896660Y-101855186D01*
X117873788Y-101930586D01*
X117866065Y-102009000D01*
X117866065Y-103509000D01*
X117873788Y-103587414D01*
X117896660Y-103662814D01*
X117933803Y-103732303D01*
X117955713Y-103759000D01*
X117933803Y-103785697D01*
X117896660Y-103855186D01*
X117873788Y-103930586D01*
X117866065Y-104009000D01*
X117866065Y-105509000D01*
X117873788Y-105587414D01*
X117896660Y-105662814D01*
X117933803Y-105732303D01*
X117955713Y-105759000D01*
X117933803Y-105785697D01*
X117896660Y-105855186D01*
X117873788Y-105930586D01*
X117866065Y-106009000D01*
X117866065Y-107509000D01*
X117873788Y-107587414D01*
X117896660Y-107662814D01*
X117933803Y-107732303D01*
X117955713Y-107759000D01*
X117933803Y-107785697D01*
X117896660Y-107855186D01*
X117873788Y-107930586D01*
X117866065Y-108009000D01*
X117866065Y-109509000D01*
X117873788Y-109587414D01*
X117896660Y-109662814D01*
X117933803Y-109732303D01*
X117955713Y-109759000D01*
X117933803Y-109785697D01*
X117896660Y-109855186D01*
X117873788Y-109930586D01*
X117866065Y-110009000D01*
X117866065Y-111509000D01*
X117873788Y-111587414D01*
X117896660Y-111662814D01*
X117933803Y-111732303D01*
X117955713Y-111759000D01*
X117933803Y-111785697D01*
X117896660Y-111855186D01*
X117873788Y-111930586D01*
X117866065Y-112009000D01*
X117866065Y-113509000D01*
X117873788Y-113587414D01*
X117896660Y-113662814D01*
X117933803Y-113732303D01*
X117983789Y-113793211D01*
X118044697Y-113843197D01*
X118114186Y-113880340D01*
X118189586Y-113903212D01*
X118268000Y-113910935D01*
X121068000Y-113910935D01*
X121146414Y-113903212D01*
X121185707Y-113891293D01*
X121173788Y-113930586D01*
X121166065Y-114009000D01*
X121166065Y-116809000D01*
X121173788Y-116887414D01*
X121196660Y-116962814D01*
X121233803Y-117032303D01*
X121248327Y-117050000D01*
X117905040Y-117050000D01*
X113328000Y-112472960D01*
X113328000Y-102111886D01*
X113812000Y-102111886D01*
X113812000Y-102358114D01*
X113860037Y-102599611D01*
X113954265Y-102827097D01*
X114091062Y-103031828D01*
X114265172Y-103205938D01*
X114469903Y-103342735D01*
X114697389Y-103436963D01*
X114938886Y-103485000D01*
X115185114Y-103485000D01*
X115426611Y-103436963D01*
X115654097Y-103342735D01*
X115858828Y-103205938D01*
X116032938Y-103031828D01*
X116169735Y-102827097D01*
X116263963Y-102599611D01*
X116312000Y-102358114D01*
X116312000Y-102111886D01*
X116263963Y-101870389D01*
X116169735Y-101642903D01*
X116032938Y-101438172D01*
X115858828Y-101264062D01*
X115654097Y-101127265D01*
X115426611Y-101033037D01*
X115185114Y-100985000D01*
X114938886Y-100985000D01*
X114697389Y-101033037D01*
X114469903Y-101127265D01*
X114265172Y-101264062D01*
X114091062Y-101438172D01*
X113954265Y-101642903D01*
X113860037Y-101870389D01*
X113812000Y-102111886D01*
X113328000Y-102111886D01*
X113328000Y-99571886D01*
X113812000Y-99571886D01*
X113812000Y-99818114D01*
X113860037Y-100059611D01*
X113954265Y-100287097D01*
X114091062Y-100491828D01*
X114265172Y-100665938D01*
X114469903Y-100802735D01*
X114697389Y-100896963D01*
X114938886Y-100945000D01*
X115185114Y-100945000D01*
X115426611Y-100896963D01*
X115654097Y-100802735D01*
X115858828Y-100665938D01*
X116032938Y-100491828D01*
X116169735Y-100287097D01*
X116263963Y-100059611D01*
X116312000Y-99818114D01*
X116312000Y-99571886D01*
X116263963Y-99330389D01*
X116169735Y-99102903D01*
X116032938Y-98898172D01*
X115858828Y-98724062D01*
X115654097Y-98587265D01*
X115426611Y-98493037D01*
X115185114Y-98445000D01*
X114938886Y-98445000D01*
X114697389Y-98493037D01*
X114469903Y-98587265D01*
X114265172Y-98724062D01*
X114091062Y-98898172D01*
X113954265Y-99102903D01*
X113860037Y-99330389D01*
X113812000Y-99571886D01*
X113328000Y-99571886D01*
X113328000Y-97545562D01*
X113874582Y-97545562D01*
X113946192Y-97718469D01*
X114077559Y-97925325D01*
X114246758Y-98102578D01*
X114447286Y-98243416D01*
X114671437Y-98342427D01*
X114862000Y-98288905D01*
X114862000Y-97355000D01*
X115262000Y-97355000D01*
X115262000Y-98288905D01*
X115452563Y-98342427D01*
X115676714Y-98243416D01*
X115877242Y-98102578D01*
X116046441Y-97925325D01*
X116177808Y-97718469D01*
X116249418Y-97545562D01*
X116194475Y-97355000D01*
X115262000Y-97355000D01*
X114862000Y-97355000D01*
X113929525Y-97355000D01*
X113874582Y-97545562D01*
X113328000Y-97545562D01*
X113328000Y-96764438D01*
X113874582Y-96764438D01*
X113929525Y-96955000D01*
X114862000Y-96955000D01*
X114862000Y-96021095D01*
X115262000Y-96021095D01*
X115262000Y-96955000D01*
X116194475Y-96955000D01*
X116249418Y-96764438D01*
X116177808Y-96591531D01*
X116046441Y-96384675D01*
X115877242Y-96207422D01*
X115676714Y-96066584D01*
X115452563Y-95967573D01*
X115262000Y-96021095D01*
X114862000Y-96021095D01*
X114671437Y-95967573D01*
X114447286Y-96066584D01*
X114246758Y-96207422D01*
X114077559Y-96384675D01*
X113946192Y-96591531D01*
X113874582Y-96764438D01*
X113328000Y-96764438D01*
X113328000Y-95524866D01*
X113330055Y-95503999D01*
X113328000Y-95483132D01*
X113328000Y-95483126D01*
X113321850Y-95420686D01*
X113297548Y-95340573D01*
X113258084Y-95266740D01*
X113204974Y-95202026D01*
X113188763Y-95188722D01*
X109772000Y-91771960D01*
X109772000Y-82686562D01*
X112350582Y-82686562D01*
X112422192Y-82859469D01*
X112553559Y-83066325D01*
X112722758Y-83243578D01*
X112923286Y-83384416D01*
X113147437Y-83483427D01*
X113338000Y-83429905D01*
X113338000Y-82496000D01*
X113738000Y-82496000D01*
X113738000Y-83429905D01*
X113928563Y-83483427D01*
X114152714Y-83384416D01*
X114353242Y-83243578D01*
X114522441Y-83066325D01*
X114653808Y-82859469D01*
X114725418Y-82686562D01*
X114670475Y-82496000D01*
X113738000Y-82496000D01*
X113338000Y-82496000D01*
X112405525Y-82496000D01*
X112350582Y-82686562D01*
X109772000Y-82686562D01*
X109772000Y-81905438D01*
X112350582Y-81905438D01*
X112405525Y-82096000D01*
X113338000Y-82096000D01*
X113338000Y-81162095D01*
X113738000Y-81162095D01*
X113738000Y-82096000D01*
X114670475Y-82096000D01*
X114725418Y-81905438D01*
X114653808Y-81732531D01*
X114522441Y-81525675D01*
X114353242Y-81348422D01*
X114152714Y-81207584D01*
X113928563Y-81108573D01*
X113738000Y-81162095D01*
X113338000Y-81162095D01*
X113147437Y-81108573D01*
X112923286Y-81207584D01*
X112722758Y-81348422D01*
X112553559Y-81525675D01*
X112422192Y-81732531D01*
X112350582Y-81905438D01*
X109772000Y-81905438D01*
X109772000Y-80313040D01*
X110930040Y-79155000D01*
X117607065Y-79155000D01*
X117614788Y-79233414D01*
X117637660Y-79308814D01*
X117674803Y-79378303D01*
X117724789Y-79439211D01*
X117785697Y-79489197D01*
X117855186Y-79526340D01*
X117930586Y-79549212D01*
X118009000Y-79556935D01*
X118284000Y-79555000D01*
X118384000Y-79455000D01*
X118384000Y-78630000D01*
X117709000Y-78630000D01*
X117609000Y-78730000D01*
X117607065Y-79155000D01*
X110930040Y-79155000D01*
X112884441Y-77200599D01*
X116611243Y-77200599D01*
X116717099Y-77382469D01*
X116959546Y-77479124D01*
X117216190Y-77526623D01*
X117477168Y-77523140D01*
X117675417Y-77480948D01*
X117674803Y-77481697D01*
X117637660Y-77551186D01*
X117614788Y-77626586D01*
X117607065Y-77705000D01*
X117609000Y-78130000D01*
X117709000Y-78230000D01*
X118384000Y-78230000D01*
X118384000Y-78210000D01*
X118784000Y-78210000D01*
X118784000Y-78230000D01*
X119002452Y-78230000D01*
X119004000Y-78550000D01*
X119084000Y-78630000D01*
X118784000Y-78630000D01*
X118784000Y-79455000D01*
X118884000Y-79555000D01*
X119002640Y-79555835D01*
X119009788Y-79628414D01*
X119032660Y-79703814D01*
X119069803Y-79773303D01*
X119119789Y-79834211D01*
X119180697Y-79884197D01*
X119250186Y-79921340D01*
X119325586Y-79944212D01*
X119404000Y-79951935D01*
X119404000Y-79950000D01*
X119504000Y-79850000D01*
X119504000Y-79358092D01*
X119530340Y-79308814D01*
X119553212Y-79233414D01*
X119560935Y-79155000D01*
X119559000Y-78730000D01*
X119479000Y-78650000D01*
X119504000Y-78650000D01*
X119504000Y-78185000D01*
X119559000Y-78130000D01*
X119560935Y-77705000D01*
X119553212Y-77626586D01*
X119530340Y-77551186D01*
X119512044Y-77516956D01*
X119579000Y-77450000D01*
X119579000Y-76400000D01*
X119979000Y-76400000D01*
X119979000Y-77450000D01*
X120079000Y-77550000D01*
X120654000Y-77551935D01*
X120732414Y-77544212D01*
X120807814Y-77521340D01*
X120877303Y-77484197D01*
X120904000Y-77462287D01*
X120930697Y-77484197D01*
X121000186Y-77521340D01*
X121075586Y-77544212D01*
X121154000Y-77551935D01*
X121729000Y-77550000D01*
X121829000Y-77450000D01*
X121829000Y-76400000D01*
X119979000Y-76400000D01*
X119579000Y-76400000D01*
X119559000Y-76400000D01*
X119559000Y-76000000D01*
X119579000Y-76000000D01*
X119579000Y-74950000D01*
X119979000Y-74950000D01*
X119979000Y-76000000D01*
X121829000Y-76000000D01*
X121829000Y-74950000D01*
X121729000Y-74850000D01*
X121154000Y-74848065D01*
X121075586Y-74855788D01*
X121000186Y-74878660D01*
X120930697Y-74915803D01*
X120904000Y-74937713D01*
X120877303Y-74915803D01*
X120807814Y-74878660D01*
X120732414Y-74855788D01*
X120654000Y-74848065D01*
X120079000Y-74850000D01*
X119979000Y-74950000D01*
X119579000Y-74950000D01*
X119479000Y-74850000D01*
X118904000Y-74848065D01*
X118825586Y-74855788D01*
X118750186Y-74878660D01*
X118680697Y-74915803D01*
X118619789Y-74965789D01*
X118569803Y-75026697D01*
X118532660Y-75096186D01*
X118509788Y-75171586D01*
X118502065Y-75250000D01*
X118503057Y-75583203D01*
X118329599Y-75482243D01*
X117611843Y-76200000D01*
X118329599Y-76917757D01*
X118503057Y-76816797D01*
X118502065Y-77150000D01*
X118509788Y-77228414D01*
X118532660Y-77303814D01*
X118533294Y-77305000D01*
X118383998Y-77305000D01*
X118383998Y-77404998D01*
X118284000Y-77305000D01*
X118009000Y-77303065D01*
X117985787Y-77305351D01*
X118046757Y-77200599D01*
X117329000Y-76482843D01*
X116611243Y-77200599D01*
X112884441Y-77200599D01*
X113997850Y-76087190D01*
X116002377Y-76087190D01*
X116005860Y-76348168D01*
X116060190Y-76603453D01*
X116146531Y-76811901D01*
X116328401Y-76917757D01*
X117046157Y-76200000D01*
X116328401Y-75482243D01*
X116146531Y-75588099D01*
X116049876Y-75830546D01*
X116002377Y-76087190D01*
X113997850Y-76087190D01*
X114885639Y-75199401D01*
X116611243Y-75199401D01*
X117329000Y-75917157D01*
X118046757Y-75199401D01*
X117940901Y-75017531D01*
X117698454Y-74920876D01*
X117441810Y-74873377D01*
X117180832Y-74876860D01*
X116925547Y-74931190D01*
X116717099Y-75017531D01*
X116611243Y-75199401D01*
X114885639Y-75199401D01*
X115758280Y-74326761D01*
X115758284Y-74326756D01*
X116127041Y-73958000D01*
X127624470Y-73958000D01*
X125754498Y-75827973D01*
G37*
X125754498Y-75827973D02*
X125747810Y-75796547D01*
X125661469Y-75588099D01*
X125479599Y-75482243D01*
X124761843Y-76200000D01*
X124775985Y-76214142D01*
X124493142Y-76496985D01*
X124479000Y-76482843D01*
X123761243Y-77200599D01*
X123822213Y-77305351D01*
X123799000Y-77303065D01*
X123524000Y-77305000D01*
X123424002Y-77404998D01*
X123424002Y-77305000D01*
X123274706Y-77305000D01*
X123275340Y-77303814D01*
X123298212Y-77228414D01*
X123305935Y-77150000D01*
X123304943Y-76816797D01*
X123478401Y-76917757D01*
X124196157Y-76200000D01*
X123478401Y-75482243D01*
X123304943Y-75583203D01*
X123305935Y-75250000D01*
X123300952Y-75199401D01*
X123761243Y-75199401D01*
X124479000Y-75917157D01*
X125196757Y-75199401D01*
X125090901Y-75017531D01*
X124848454Y-74920876D01*
X124591810Y-74873377D01*
X124330832Y-74876860D01*
X124075547Y-74931190D01*
X123867099Y-75017531D01*
X123761243Y-75199401D01*
X123300952Y-75199401D01*
X123298212Y-75171586D01*
X123275340Y-75096186D01*
X123238197Y-75026697D01*
X123188211Y-74965789D01*
X123127303Y-74915803D01*
X123057814Y-74878660D01*
X122982414Y-74855788D01*
X122904000Y-74848065D01*
X122329000Y-74850000D01*
X122229000Y-74950000D01*
X122229000Y-76000000D01*
X122249000Y-76000000D01*
X122249000Y-76400000D01*
X122229000Y-76400000D01*
X122229000Y-77450000D01*
X122295956Y-77516956D01*
X122277660Y-77551186D01*
X122254788Y-77626586D01*
X122247065Y-77705000D01*
X122247261Y-77748065D01*
X122004000Y-77748065D01*
X121925586Y-77755788D01*
X121879000Y-77769919D01*
X121832414Y-77755788D01*
X121754000Y-77748065D01*
X121354000Y-77748065D01*
X121275586Y-77755788D01*
X121229000Y-77769919D01*
X121182414Y-77755788D01*
X121104000Y-77748065D01*
X120704000Y-77748065D01*
X120625586Y-77755788D01*
X120579000Y-77769919D01*
X120532414Y-77755788D01*
X120454000Y-77748065D01*
X120054000Y-77748065D01*
X119975586Y-77755788D01*
X119929000Y-77769919D01*
X119882414Y-77755788D01*
X119804000Y-77748065D01*
X119804000Y-77750000D01*
X119704000Y-77850000D01*
X119704000Y-77956262D01*
X119682660Y-77996186D01*
X119659788Y-78071586D01*
X119652065Y-78150000D01*
X119652065Y-79550000D01*
X119659788Y-79628414D01*
X119682660Y-79703814D01*
X119704000Y-79743738D01*
X119704000Y-79850000D01*
X119804000Y-79950000D01*
X119804000Y-79951935D01*
X119882414Y-79944212D01*
X119929000Y-79930081D01*
X119975586Y-79944212D01*
X120054000Y-79951935D01*
X120379000Y-79951935D01*
X120379001Y-81824537D01*
X117892539Y-84311000D01*
X117700371Y-84311000D01*
X117603970Y-84214599D01*
X117472942Y-84127049D01*
X117327351Y-84066743D01*
X117172793Y-84036000D01*
X117015207Y-84036000D01*
X116860649Y-84066743D01*
X116715058Y-84127049D01*
X116584030Y-84214599D01*
X116487629Y-84311000D01*
X114673528Y-84311000D01*
X114645735Y-84243903D01*
X114508938Y-84039172D01*
X114334828Y-83865062D01*
X114130097Y-83728265D01*
X113902611Y-83634037D01*
X113661114Y-83586000D01*
X113414886Y-83586000D01*
X113173389Y-83634037D01*
X112945903Y-83728265D01*
X112741172Y-83865062D01*
X112567062Y-84039172D01*
X112430265Y-84243903D01*
X112336037Y-84471389D01*
X112288000Y-84712886D01*
X112288000Y-84959114D01*
X112336037Y-85200611D01*
X112430265Y-85428097D01*
X112567062Y-85632828D01*
X112741172Y-85806938D01*
X112945903Y-85943735D01*
X113173389Y-86037963D01*
X113414886Y-86086000D01*
X113661114Y-86086000D01*
X113902611Y-86037963D01*
X114130097Y-85943735D01*
X114334828Y-85806938D01*
X114508938Y-85632828D01*
X114645735Y-85428097D01*
X114673528Y-85361000D01*
X116487629Y-85361000D01*
X116584030Y-85457401D01*
X116715058Y-85544951D01*
X116860649Y-85605257D01*
X117015207Y-85636000D01*
X117120205Y-85636000D01*
X117120205Y-85719743D01*
X115988949Y-86851000D01*
X114673528Y-86851000D01*
X114645735Y-86783903D01*
X114508938Y-86579172D01*
X114334828Y-86405062D01*
X114130097Y-86268265D01*
X113902611Y-86174037D01*
X113661114Y-86126000D01*
X113414886Y-86126000D01*
X113173389Y-86174037D01*
X112945903Y-86268265D01*
X112741172Y-86405062D01*
X112567062Y-86579172D01*
X112430265Y-86783903D01*
X112336037Y-87011389D01*
X112288000Y-87252886D01*
X112288000Y-87499114D01*
X112336037Y-87740611D01*
X112430265Y-87968097D01*
X112567062Y-88172828D01*
X112741172Y-88346938D01*
X112945903Y-88483735D01*
X113173389Y-88577963D01*
X113414886Y-88626000D01*
X113661114Y-88626000D01*
X113902611Y-88577963D01*
X114130097Y-88483735D01*
X114334828Y-88346938D01*
X114508938Y-88172828D01*
X114645735Y-87968097D01*
X114673528Y-87901000D01*
X116016885Y-87901000D01*
X114789935Y-89127950D01*
X114789935Y-89066000D01*
X114782212Y-88987586D01*
X114759340Y-88912186D01*
X114722197Y-88842697D01*
X114672211Y-88781789D01*
X114611303Y-88731803D01*
X114541814Y-88694660D01*
X114466414Y-88671788D01*
X114388000Y-88664065D01*
X112688000Y-88664065D01*
X112609586Y-88671788D01*
X112534186Y-88694660D01*
X112464697Y-88731803D01*
X112403789Y-88781789D01*
X112353803Y-88842697D01*
X112316660Y-88912186D01*
X112293788Y-88987586D01*
X112286065Y-89066000D01*
X112286065Y-90766000D01*
X112293788Y-90844414D01*
X112316660Y-90919814D01*
X112353803Y-90989303D01*
X112403789Y-91050211D01*
X112464697Y-91100197D01*
X112534186Y-91137340D01*
X112609586Y-91160212D01*
X112688000Y-91167935D01*
X114388000Y-91167935D01*
X114466414Y-91160212D01*
X114541814Y-91137340D01*
X114611303Y-91100197D01*
X114672211Y-91050211D01*
X114722197Y-90989303D01*
X114759340Y-90919814D01*
X114782212Y-90844414D01*
X114789935Y-90766000D01*
X114789935Y-90516000D01*
X114820938Y-90516000D01*
X114850412Y-90518903D01*
X114879886Y-90516000D01*
X118312472Y-90516000D01*
X115465408Y-93363065D01*
X114212000Y-93363065D01*
X114133586Y-93370788D01*
X114058186Y-93393660D01*
X113988697Y-93430803D01*
X113927789Y-93480789D01*
X113877803Y-93541697D01*
X113840660Y-93611186D01*
X113817788Y-93686586D01*
X113810065Y-93765000D01*
X113810065Y-95465000D01*
X113817788Y-95543414D01*
X113840660Y-95618814D01*
X113877803Y-95688303D01*
X113927789Y-95749211D01*
X113988697Y-95799197D01*
X114058186Y-95836340D01*
X114133586Y-95859212D01*
X114212000Y-95866935D01*
X115912000Y-95866935D01*
X115990414Y-95859212D01*
X116065814Y-95836340D01*
X116135303Y-95799197D01*
X116196211Y-95749211D01*
X116246197Y-95688303D01*
X116283340Y-95618814D01*
X116306212Y-95543414D01*
X116313935Y-95465000D01*
X116313935Y-94211592D01*
X120136528Y-90389000D01*
X121327398Y-90389000D01*
X121283789Y-90424789D01*
X121233803Y-90485697D01*
X121196660Y-90555186D01*
X121173788Y-90630586D01*
X121166065Y-90709000D01*
X121166065Y-93509000D01*
X121173788Y-93587414D01*
X121185707Y-93626707D01*
X121146414Y-93614788D01*
X121068000Y-93607065D01*
X118268000Y-93607065D01*
X118189586Y-93614788D01*
X118114186Y-93637660D01*
X118044697Y-93674803D01*
X117983789Y-93724789D01*
X117933803Y-93785697D01*
X117896660Y-93855186D01*
X117873788Y-93930586D01*
X117866065Y-94009000D01*
X117866065Y-95509000D01*
X117873788Y-95587414D01*
X117896660Y-95662814D01*
X117933803Y-95732303D01*
X117955713Y-95759000D01*
X117933803Y-95785697D01*
X117896660Y-95855186D01*
X117873788Y-95930586D01*
X117866065Y-96009000D01*
X117866065Y-97509000D01*
X117873788Y-97587414D01*
X117896660Y-97662814D01*
X117933803Y-97732303D01*
X117955713Y-97759000D01*
X117933803Y-97785697D01*
X117896660Y-97855186D01*
X117873788Y-97930586D01*
X117866065Y-98009000D01*
X117866065Y-99509000D01*
X117873788Y-99587414D01*
X117896660Y-99662814D01*
X117933803Y-99732303D01*
X117955713Y-99759000D01*
X117933803Y-99785697D01*
X117896660Y-99855186D01*
X117873788Y-99930586D01*
X117866065Y-100009000D01*
X117866065Y-101509000D01*
X117873788Y-101587414D01*
X117896660Y-101662814D01*
X117933803Y-101732303D01*
X117955713Y-101759000D01*
X117933803Y-101785697D01*
X117896660Y-101855186D01*
X117873788Y-101930586D01*
X117866065Y-102009000D01*
X117866065Y-103509000D01*
X117873788Y-103587414D01*
X117896660Y-103662814D01*
X117933803Y-103732303D01*
X117955713Y-103759000D01*
X117933803Y-103785697D01*
X117896660Y-103855186D01*
X117873788Y-103930586D01*
X117866065Y-104009000D01*
X117866065Y-105509000D01*
X117873788Y-105587414D01*
X117896660Y-105662814D01*
X117933803Y-105732303D01*
X117955713Y-105759000D01*
X117933803Y-105785697D01*
X117896660Y-105855186D01*
X117873788Y-105930586D01*
X117866065Y-106009000D01*
X117866065Y-107509000D01*
X117873788Y-107587414D01*
X117896660Y-107662814D01*
X117933803Y-107732303D01*
X117955713Y-107759000D01*
X117933803Y-107785697D01*
X117896660Y-107855186D01*
X117873788Y-107930586D01*
X117866065Y-108009000D01*
X117866065Y-109509000D01*
X117873788Y-109587414D01*
X117896660Y-109662814D01*
X117933803Y-109732303D01*
X117955713Y-109759000D01*
X117933803Y-109785697D01*
X117896660Y-109855186D01*
X117873788Y-109930586D01*
X117866065Y-110009000D01*
X117866065Y-111509000D01*
X117873788Y-111587414D01*
X117896660Y-111662814D01*
X117933803Y-111732303D01*
X117955713Y-111759000D01*
X117933803Y-111785697D01*
X117896660Y-111855186D01*
X117873788Y-111930586D01*
X117866065Y-112009000D01*
X117866065Y-113509000D01*
X117873788Y-113587414D01*
X117896660Y-113662814D01*
X117933803Y-113732303D01*
X117983789Y-113793211D01*
X118044697Y-113843197D01*
X118114186Y-113880340D01*
X118189586Y-113903212D01*
X118268000Y-113910935D01*
X121068000Y-113910935D01*
X121146414Y-113903212D01*
X121185707Y-113891293D01*
X121173788Y-113930586D01*
X121166065Y-114009000D01*
X121166065Y-116809000D01*
X121173788Y-116887414D01*
X121196660Y-116962814D01*
X121233803Y-117032303D01*
X121248327Y-117050000D01*
X117905040Y-117050000D01*
X113328000Y-112472960D01*
X113328000Y-102111886D01*
X113812000Y-102111886D01*
X113812000Y-102358114D01*
X113860037Y-102599611D01*
X113954265Y-102827097D01*
X114091062Y-103031828D01*
X114265172Y-103205938D01*
X114469903Y-103342735D01*
X114697389Y-103436963D01*
X114938886Y-103485000D01*
X115185114Y-103485000D01*
X115426611Y-103436963D01*
X115654097Y-103342735D01*
X115858828Y-103205938D01*
X116032938Y-103031828D01*
X116169735Y-102827097D01*
X116263963Y-102599611D01*
X116312000Y-102358114D01*
X116312000Y-102111886D01*
X116263963Y-101870389D01*
X116169735Y-101642903D01*
X116032938Y-101438172D01*
X115858828Y-101264062D01*
X115654097Y-101127265D01*
X115426611Y-101033037D01*
X115185114Y-100985000D01*
X114938886Y-100985000D01*
X114697389Y-101033037D01*
X114469903Y-101127265D01*
X114265172Y-101264062D01*
X114091062Y-101438172D01*
X113954265Y-101642903D01*
X113860037Y-101870389D01*
X113812000Y-102111886D01*
X113328000Y-102111886D01*
X113328000Y-99571886D01*
X113812000Y-99571886D01*
X113812000Y-99818114D01*
X113860037Y-100059611D01*
X113954265Y-100287097D01*
X114091062Y-100491828D01*
X114265172Y-100665938D01*
X114469903Y-100802735D01*
X114697389Y-100896963D01*
X114938886Y-100945000D01*
X115185114Y-100945000D01*
X115426611Y-100896963D01*
X115654097Y-100802735D01*
X115858828Y-100665938D01*
X116032938Y-100491828D01*
X116169735Y-100287097D01*
X116263963Y-100059611D01*
X116312000Y-99818114D01*
X116312000Y-99571886D01*
X116263963Y-99330389D01*
X116169735Y-99102903D01*
X116032938Y-98898172D01*
X115858828Y-98724062D01*
X115654097Y-98587265D01*
X115426611Y-98493037D01*
X115185114Y-98445000D01*
X114938886Y-98445000D01*
X114697389Y-98493037D01*
X114469903Y-98587265D01*
X114265172Y-98724062D01*
X114091062Y-98898172D01*
X113954265Y-99102903D01*
X113860037Y-99330389D01*
X113812000Y-99571886D01*
X113328000Y-99571886D01*
X113328000Y-97545562D01*
X113874582Y-97545562D01*
X113946192Y-97718469D01*
X114077559Y-97925325D01*
X114246758Y-98102578D01*
X114447286Y-98243416D01*
X114671437Y-98342427D01*
X114862000Y-98288905D01*
X114862000Y-97355000D01*
X115262000Y-97355000D01*
X115262000Y-98288905D01*
X115452563Y-98342427D01*
X115676714Y-98243416D01*
X115877242Y-98102578D01*
X116046441Y-97925325D01*
X116177808Y-97718469D01*
X116249418Y-97545562D01*
X116194475Y-97355000D01*
X115262000Y-97355000D01*
X114862000Y-97355000D01*
X113929525Y-97355000D01*
X113874582Y-97545562D01*
X113328000Y-97545562D01*
X113328000Y-96764438D01*
X113874582Y-96764438D01*
X113929525Y-96955000D01*
X114862000Y-96955000D01*
X114862000Y-96021095D01*
X115262000Y-96021095D01*
X115262000Y-96955000D01*
X116194475Y-96955000D01*
X116249418Y-96764438D01*
X116177808Y-96591531D01*
X116046441Y-96384675D01*
X115877242Y-96207422D01*
X115676714Y-96066584D01*
X115452563Y-95967573D01*
X115262000Y-96021095D01*
X114862000Y-96021095D01*
X114671437Y-95967573D01*
X114447286Y-96066584D01*
X114246758Y-96207422D01*
X114077559Y-96384675D01*
X113946192Y-96591531D01*
X113874582Y-96764438D01*
X113328000Y-96764438D01*
X113328000Y-95524866D01*
X113330055Y-95503999D01*
X113328000Y-95483132D01*
X113328000Y-95483126D01*
X113321850Y-95420686D01*
X113297548Y-95340573D01*
X113258084Y-95266740D01*
X113204974Y-95202026D01*
X113188763Y-95188722D01*
X109772000Y-91771960D01*
X109772000Y-82686562D01*
X112350582Y-82686562D01*
X112422192Y-82859469D01*
X112553559Y-83066325D01*
X112722758Y-83243578D01*
X112923286Y-83384416D01*
X113147437Y-83483427D01*
X113338000Y-83429905D01*
X113338000Y-82496000D01*
X113738000Y-82496000D01*
X113738000Y-83429905D01*
X113928563Y-83483427D01*
X114152714Y-83384416D01*
X114353242Y-83243578D01*
X114522441Y-83066325D01*
X114653808Y-82859469D01*
X114725418Y-82686562D01*
X114670475Y-82496000D01*
X113738000Y-82496000D01*
X113338000Y-82496000D01*
X112405525Y-82496000D01*
X112350582Y-82686562D01*
X109772000Y-82686562D01*
X109772000Y-81905438D01*
X112350582Y-81905438D01*
X112405525Y-82096000D01*
X113338000Y-82096000D01*
X113338000Y-81162095D01*
X113738000Y-81162095D01*
X113738000Y-82096000D01*
X114670475Y-82096000D01*
X114725418Y-81905438D01*
X114653808Y-81732531D01*
X114522441Y-81525675D01*
X114353242Y-81348422D01*
X114152714Y-81207584D01*
X113928563Y-81108573D01*
X113738000Y-81162095D01*
X113338000Y-81162095D01*
X113147437Y-81108573D01*
X112923286Y-81207584D01*
X112722758Y-81348422D01*
X112553559Y-81525675D01*
X112422192Y-81732531D01*
X112350582Y-81905438D01*
X109772000Y-81905438D01*
X109772000Y-80313040D01*
X110930040Y-79155000D01*
X117607065Y-79155000D01*
X117614788Y-79233414D01*
X117637660Y-79308814D01*
X117674803Y-79378303D01*
X117724789Y-79439211D01*
X117785697Y-79489197D01*
X117855186Y-79526340D01*
X117930586Y-79549212D01*
X118009000Y-79556935D01*
X118284000Y-79555000D01*
X118384000Y-79455000D01*
X118384000Y-78630000D01*
X117709000Y-78630000D01*
X117609000Y-78730000D01*
X117607065Y-79155000D01*
X110930040Y-79155000D01*
X112884441Y-77200599D01*
X116611243Y-77200599D01*
X116717099Y-77382469D01*
X116959546Y-77479124D01*
X117216190Y-77526623D01*
X117477168Y-77523140D01*
X117675417Y-77480948D01*
X117674803Y-77481697D01*
X117637660Y-77551186D01*
X117614788Y-77626586D01*
X117607065Y-77705000D01*
X117609000Y-78130000D01*
X117709000Y-78230000D01*
X118384000Y-78230000D01*
X118384000Y-78210000D01*
X118784000Y-78210000D01*
X118784000Y-78230000D01*
X119002452Y-78230000D01*
X119004000Y-78550000D01*
X119084000Y-78630000D01*
X118784000Y-78630000D01*
X118784000Y-79455000D01*
X118884000Y-79555000D01*
X119002640Y-79555835D01*
X119009788Y-79628414D01*
X119032660Y-79703814D01*
X119069803Y-79773303D01*
X119119789Y-79834211D01*
X119180697Y-79884197D01*
X119250186Y-79921340D01*
X119325586Y-79944212D01*
X119404000Y-79951935D01*
X119404000Y-79950000D01*
X119504000Y-79850000D01*
X119504000Y-79358092D01*
X119530340Y-79308814D01*
X119553212Y-79233414D01*
X119560935Y-79155000D01*
X119559000Y-78730000D01*
X119479000Y-78650000D01*
X119504000Y-78650000D01*
X119504000Y-78185000D01*
X119559000Y-78130000D01*
X119560935Y-77705000D01*
X119553212Y-77626586D01*
X119530340Y-77551186D01*
X119512044Y-77516956D01*
X119579000Y-77450000D01*
X119579000Y-76400000D01*
X119979000Y-76400000D01*
X119979000Y-77450000D01*
X120079000Y-77550000D01*
X120654000Y-77551935D01*
X120732414Y-77544212D01*
X120807814Y-77521340D01*
X120877303Y-77484197D01*
X120904000Y-77462287D01*
X120930697Y-77484197D01*
X121000186Y-77521340D01*
X121075586Y-77544212D01*
X121154000Y-77551935D01*
X121729000Y-77550000D01*
X121829000Y-77450000D01*
X121829000Y-76400000D01*
X119979000Y-76400000D01*
X119579000Y-76400000D01*
X119559000Y-76400000D01*
X119559000Y-76000000D01*
X119579000Y-76000000D01*
X119579000Y-74950000D01*
X119979000Y-74950000D01*
X119979000Y-76000000D01*
X121829000Y-76000000D01*
X121829000Y-74950000D01*
X121729000Y-74850000D01*
X121154000Y-74848065D01*
X121075586Y-74855788D01*
X121000186Y-74878660D01*
X120930697Y-74915803D01*
X120904000Y-74937713D01*
X120877303Y-74915803D01*
X120807814Y-74878660D01*
X120732414Y-74855788D01*
X120654000Y-74848065D01*
X120079000Y-74850000D01*
X119979000Y-74950000D01*
X119579000Y-74950000D01*
X119479000Y-74850000D01*
X118904000Y-74848065D01*
X118825586Y-74855788D01*
X118750186Y-74878660D01*
X118680697Y-74915803D01*
X118619789Y-74965789D01*
X118569803Y-75026697D01*
X118532660Y-75096186D01*
X118509788Y-75171586D01*
X118502065Y-75250000D01*
X118503057Y-75583203D01*
X118329599Y-75482243D01*
X117611843Y-76200000D01*
X118329599Y-76917757D01*
X118503057Y-76816797D01*
X118502065Y-77150000D01*
X118509788Y-77228414D01*
X118532660Y-77303814D01*
X118533294Y-77305000D01*
X118383998Y-77305000D01*
X118383998Y-77404998D01*
X118284000Y-77305000D01*
X118009000Y-77303065D01*
X117985787Y-77305351D01*
X118046757Y-77200599D01*
X117329000Y-76482843D01*
X116611243Y-77200599D01*
X112884441Y-77200599D01*
X113997850Y-76087190D01*
X116002377Y-76087190D01*
X116005860Y-76348168D01*
X116060190Y-76603453D01*
X116146531Y-76811901D01*
X116328401Y-76917757D01*
X117046157Y-76200000D01*
X116328401Y-75482243D01*
X116146531Y-75588099D01*
X116049876Y-75830546D01*
X116002377Y-76087190D01*
X113997850Y-76087190D01*
X114885639Y-75199401D01*
X116611243Y-75199401D01*
X117329000Y-75917157D01*
X118046757Y-75199401D01*
X117940901Y-75017531D01*
X117698454Y-74920876D01*
X117441810Y-74873377D01*
X117180832Y-74876860D01*
X116925547Y-74931190D01*
X116717099Y-75017531D01*
X116611243Y-75199401D01*
X114885639Y-75199401D01*
X115758280Y-74326761D01*
X115758284Y-74326756D01*
X116127041Y-73958000D01*
X127624470Y-73958000D01*
X125754498Y-75827973D01*
G36*
X139344697Y-93843197D02*
G01*
X139414186Y-93880340D01*
X139489586Y-93903212D01*
X139568000Y-93910935D01*
X141068000Y-93910935D01*
X141146414Y-93903212D01*
X141185707Y-93891293D01*
X141173788Y-93930586D01*
X141166065Y-94009000D01*
X141166065Y-95509000D01*
X141173788Y-95587414D01*
X141196660Y-95662814D01*
X141233803Y-95732303D01*
X141255713Y-95759000D01*
X141233803Y-95785697D01*
X141196660Y-95855186D01*
X141173788Y-95930586D01*
X141166065Y-96009000D01*
X141166065Y-97509000D01*
X141173788Y-97587414D01*
X141196660Y-97662814D01*
X141233803Y-97732303D01*
X141255713Y-97759000D01*
X141233803Y-97785697D01*
X141196660Y-97855186D01*
X141173788Y-97930586D01*
X141166065Y-98009000D01*
X141166065Y-99509000D01*
X141173788Y-99587414D01*
X141196660Y-99662814D01*
X141233803Y-99732303D01*
X141255713Y-99759000D01*
X141233803Y-99785697D01*
X141196660Y-99855186D01*
X141173788Y-99930586D01*
X141166065Y-100009000D01*
X141166065Y-101509000D01*
X141173788Y-101587414D01*
X141196660Y-101662814D01*
X141233803Y-101732303D01*
X141255713Y-101759000D01*
X141233803Y-101785697D01*
X141196660Y-101855186D01*
X141173788Y-101930586D01*
X141166065Y-102009000D01*
X141166065Y-103509000D01*
X141173788Y-103587414D01*
X141196660Y-103662814D01*
X141233803Y-103732303D01*
X141255713Y-103759000D01*
X141233803Y-103785697D01*
X141196660Y-103855186D01*
X141173788Y-103930586D01*
X141166065Y-104009000D01*
X141166065Y-105509000D01*
X141173788Y-105587414D01*
X141196660Y-105662814D01*
X141233803Y-105732303D01*
X141255713Y-105759000D01*
X141233803Y-105785697D01*
X141196660Y-105855186D01*
X141173788Y-105930586D01*
X141166065Y-106009000D01*
X141166065Y-107509000D01*
X141173788Y-107587414D01*
X141196660Y-107662814D01*
X141233803Y-107732303D01*
X141255713Y-107759000D01*
X141233803Y-107785697D01*
X141196660Y-107855186D01*
X141173788Y-107930586D01*
X141166065Y-108009000D01*
X141166065Y-109509000D01*
X141173788Y-109587414D01*
X141196660Y-109662814D01*
X141233803Y-109732303D01*
X141255713Y-109759000D01*
X141233803Y-109785697D01*
X141196660Y-109855186D01*
X141173788Y-109930586D01*
X141166065Y-110009000D01*
X141166065Y-111509000D01*
X141173788Y-111587414D01*
X141196660Y-111662814D01*
X141233803Y-111732303D01*
X141255713Y-111759000D01*
X141233803Y-111785697D01*
X141196660Y-111855186D01*
X141173788Y-111930586D01*
X141166065Y-112009000D01*
X141168000Y-112459000D01*
X141268000Y-112559000D01*
X144668000Y-112559000D01*
X144768000Y-112459000D01*
X144769935Y-112009000D01*
X144762212Y-111930586D01*
X144739340Y-111855186D01*
X144702197Y-111785697D01*
X144680287Y-111759000D01*
X144702197Y-111732303D01*
X144739340Y-111662814D01*
X144762212Y-111587414D01*
X144764057Y-111568682D01*
X144772743Y-111612351D01*
X144833049Y-111757942D01*
X144920599Y-111888970D01*
X145032030Y-112000401D01*
X145163058Y-112087951D01*
X145308649Y-112148257D01*
X145463207Y-112179000D01*
X145620793Y-112179000D01*
X145775351Y-112148257D01*
X145920942Y-112087951D01*
X146051970Y-112000401D01*
X146133056Y-111919315D01*
X146140691Y-111944485D01*
X146200936Y-112057196D01*
X146282012Y-112155988D01*
X146380804Y-112237064D01*
X146493515Y-112297309D01*
X146615813Y-112334408D01*
X146742999Y-112346935D01*
X147643001Y-112346935D01*
X147770187Y-112334408D01*
X147892485Y-112297309D01*
X148005196Y-112237064D01*
X148103988Y-112155988D01*
X148185064Y-112057196D01*
X148245309Y-111944485D01*
X148282408Y-111822187D01*
X148294935Y-111695001D01*
X148294935Y-111044999D01*
X148288617Y-110980856D01*
X149377804Y-112070043D01*
X149398157Y-112094843D01*
X149422957Y-112115196D01*
X149422960Y-112115199D01*
X149463242Y-112148257D01*
X149497132Y-112176070D01*
X149610052Y-112236427D01*
X149732578Y-112273595D01*
X149828068Y-112283000D01*
X149828076Y-112283000D01*
X149860000Y-112286144D01*
X149891924Y-112283000D01*
X152672065Y-112283000D01*
X152672065Y-112483000D01*
X152679788Y-112561414D01*
X152702660Y-112636814D01*
X152739803Y-112706303D01*
X152789789Y-112767211D01*
X152850697Y-112817197D01*
X152920186Y-112854340D01*
X152995586Y-112877212D01*
X153074000Y-112884935D01*
X154774000Y-112884935D01*
X154852414Y-112877212D01*
X154927814Y-112854340D01*
X154997303Y-112817197D01*
X155058211Y-112767211D01*
X155108197Y-112706303D01*
X155145340Y-112636814D01*
X155168212Y-112561414D01*
X155175935Y-112483000D01*
X155175935Y-110783000D01*
X155168212Y-110704586D01*
X155145340Y-110629186D01*
X155108197Y-110559697D01*
X155058211Y-110498789D01*
X154997303Y-110448803D01*
X154927814Y-110411660D01*
X154852414Y-110388788D01*
X154774000Y-110381065D01*
X153074000Y-110381065D01*
X152995586Y-110388788D01*
X152920186Y-110411660D01*
X152850697Y-110448803D01*
X152789789Y-110498789D01*
X152739803Y-110559697D01*
X152702660Y-110629186D01*
X152679788Y-110704586D01*
X152672065Y-110783000D01*
X152672065Y-110983000D01*
X150129239Y-110983000D01*
X148366027Y-109219789D01*
X148393000Y-109084190D01*
X148393000Y-108847810D01*
X149295000Y-108847810D01*
X149295000Y-109084190D01*
X149341116Y-109316027D01*
X149431574Y-109534413D01*
X149562899Y-109730955D01*
X149730045Y-109898101D01*
X149926587Y-110029426D01*
X150144973Y-110119884D01*
X150376810Y-110166000D01*
X150613190Y-110166000D01*
X150845027Y-110119884D01*
X151063413Y-110029426D01*
X151259955Y-109898101D01*
X151427101Y-109730955D01*
X151558426Y-109534413D01*
X151648884Y-109316027D01*
X151695000Y-109084190D01*
X151695000Y-108847810D01*
X151648884Y-108615973D01*
X151558426Y-108397587D01*
X151427101Y-108201045D01*
X151259955Y-108033899D01*
X151149885Y-107960353D01*
X151912676Y-107197562D01*
X152736582Y-107197562D01*
X152808192Y-107370469D01*
X152939559Y-107577325D01*
X153108758Y-107754578D01*
X153309286Y-107895416D01*
X153533437Y-107994427D01*
X153724000Y-107940905D01*
X153724000Y-107007000D01*
X154124000Y-107007000D01*
X154124000Y-107940905D01*
X154314563Y-107994427D01*
X154538714Y-107895416D01*
X154739242Y-107754578D01*
X154908441Y-107577325D01*
X155039808Y-107370469D01*
X155111418Y-107197562D01*
X155056475Y-107007000D01*
X154124000Y-107007000D01*
X153724000Y-107007000D01*
X152791525Y-107007000D01*
X152736582Y-107197562D01*
X151912676Y-107197562D01*
X152766826Y-106343413D01*
X152736582Y-106416438D01*
X152791525Y-106607000D01*
X153724000Y-106607000D01*
X153724000Y-105673095D01*
X154124000Y-105673095D01*
X154124000Y-106607000D01*
X155056475Y-106607000D01*
X155111418Y-106416438D01*
X155039808Y-106243531D01*
X154908441Y-106036675D01*
X154739242Y-105859422D01*
X154538714Y-105718584D01*
X154314563Y-105619573D01*
X154124000Y-105673095D01*
X153724000Y-105673095D01*
X153533437Y-105619573D01*
X153456825Y-105653414D01*
X153591304Y-105518935D01*
X154774000Y-105518935D01*
X154852414Y-105511212D01*
X154927814Y-105488340D01*
X154997303Y-105451197D01*
X155058211Y-105401211D01*
X155108197Y-105340303D01*
X155145340Y-105270814D01*
X155168212Y-105195414D01*
X155175935Y-105117000D01*
X155175935Y-103417000D01*
X155168212Y-103338586D01*
X155145340Y-103263186D01*
X155108197Y-103193697D01*
X155058211Y-103132789D01*
X154997303Y-103082803D01*
X154927814Y-103045660D01*
X154852414Y-103022788D01*
X154774000Y-103015065D01*
X153074000Y-103015065D01*
X152995586Y-103022788D01*
X152920186Y-103045660D01*
X152850697Y-103082803D01*
X152789789Y-103132789D01*
X152739803Y-103193697D01*
X152702660Y-103263186D01*
X152679788Y-103338586D01*
X152672065Y-103417000D01*
X152672065Y-104599696D01*
X150057957Y-107213805D01*
X150033158Y-107234157D01*
X150012805Y-107258957D01*
X150012802Y-107258960D01*
X149951930Y-107333132D01*
X149891573Y-107446053D01*
X149854406Y-107568578D01*
X149841856Y-107696000D01*
X149845001Y-107727931D01*
X149845001Y-107957088D01*
X149730045Y-108033899D01*
X149562899Y-108201045D01*
X149431574Y-108397587D01*
X149341116Y-108615973D01*
X149295000Y-108847810D01*
X148393000Y-108847810D01*
X148346884Y-108615973D01*
X148256426Y-108397587D01*
X148125101Y-108201045D01*
X147957955Y-108033899D01*
X147761413Y-107902574D01*
X147543027Y-107812116D01*
X147311190Y-107766000D01*
X147074810Y-107766000D01*
X147014177Y-107778061D01*
X152329043Y-102463196D01*
X152353843Y-102442843D01*
X152374196Y-102418043D01*
X152374199Y-102418040D01*
X152435070Y-102343868D01*
X152495427Y-102230948D01*
X152532595Y-102108422D01*
X152536012Y-102073728D01*
X152542000Y-102012932D01*
X152542000Y-102012924D01*
X152545144Y-101981000D01*
X152542000Y-101949076D01*
X152542000Y-97390040D01*
X157690001Y-102538042D01*
X157690000Y-117050000D01*
X141387673Y-117050000D01*
X141402197Y-117032303D01*
X141439340Y-116962814D01*
X141462212Y-116887414D01*
X141469935Y-116809000D01*
X141469935Y-114563562D01*
X152736582Y-114563562D01*
X152808192Y-114736469D01*
X152939559Y-114943325D01*
X153108758Y-115120578D01*
X153309286Y-115261416D01*
X153533437Y-115360427D01*
X153724000Y-115306905D01*
X153724000Y-114373000D01*
X154124000Y-114373000D01*
X154124000Y-115306905D01*
X154314563Y-115360427D01*
X154538714Y-115261416D01*
X154739242Y-115120578D01*
X154908441Y-114943325D01*
X155039808Y-114736469D01*
X155111418Y-114563562D01*
X155056475Y-114373000D01*
X154124000Y-114373000D01*
X153724000Y-114373000D01*
X152791525Y-114373000D01*
X152736582Y-114563562D01*
X141469935Y-114563562D01*
X141469935Y-114009000D01*
X141462212Y-113930586D01*
X141450293Y-113891293D01*
X141489586Y-113903212D01*
X141568000Y-113910935D01*
X142668000Y-113909000D01*
X142768000Y-113809000D01*
X142768000Y-113734818D01*
X142777041Y-113731074D01*
X142957863Y-113622841D01*
X143114095Y-113481412D01*
X143168000Y-113408821D01*
X143168000Y-113809000D01*
X143268000Y-113909000D01*
X144368000Y-113910935D01*
X144446414Y-113903212D01*
X144521814Y-113880340D01*
X144591303Y-113843197D01*
X144652211Y-113793211D01*
X144702197Y-113732303D01*
X144739340Y-113662814D01*
X144761732Y-113588995D01*
X144772743Y-113644351D01*
X144833049Y-113789942D01*
X144920599Y-113920970D01*
X145032030Y-114032401D01*
X145163058Y-114119951D01*
X145308649Y-114180257D01*
X145463207Y-114211000D01*
X145620793Y-114211000D01*
X145775351Y-114180257D01*
X145920942Y-114119951D01*
X146051970Y-114032401D01*
X146128866Y-113955505D01*
X146140691Y-113994485D01*
X146200936Y-114107196D01*
X146282012Y-114205988D01*
X146380804Y-114287064D01*
X146493515Y-114347309D01*
X146615813Y-114384408D01*
X146742999Y-114396935D01*
X147643001Y-114396935D01*
X147770187Y-114384408D01*
X147892485Y-114347309D01*
X148005196Y-114287064D01*
X148103988Y-114205988D01*
X148185064Y-114107196D01*
X148245309Y-113994485D01*
X148282408Y-113872187D01*
X148291247Y-113782438D01*
X152736582Y-113782438D01*
X152791525Y-113973000D01*
X153724000Y-113973000D01*
X153724000Y-113039095D01*
X154124000Y-113039095D01*
X154124000Y-113973000D01*
X155056475Y-113973000D01*
X155111418Y-113782438D01*
X155039808Y-113609531D01*
X154908441Y-113402675D01*
X154739242Y-113225422D01*
X154538714Y-113084584D01*
X154314563Y-112985573D01*
X154124000Y-113039095D01*
X153724000Y-113039095D01*
X153533437Y-112985573D01*
X153309286Y-113084584D01*
X153108758Y-113225422D01*
X152939559Y-113402675D01*
X152808192Y-113609531D01*
X152736582Y-113782438D01*
X148291247Y-113782438D01*
X148294935Y-113745001D01*
X148294935Y-113094999D01*
X148282408Y-112967813D01*
X148245309Y-112845515D01*
X148185064Y-112732804D01*
X148103988Y-112634012D01*
X148005196Y-112552936D01*
X147892485Y-112492691D01*
X147770187Y-112455592D01*
X147643001Y-112443065D01*
X146742999Y-112443065D01*
X146615813Y-112455592D01*
X146493515Y-112492691D01*
X146380804Y-112552936D01*
X146282012Y-112634012D01*
X146200936Y-112732804D01*
X146140691Y-112845515D01*
X146133056Y-112870685D01*
X146051970Y-112789599D01*
X145920942Y-112702049D01*
X145775351Y-112641743D01*
X145620793Y-112611000D01*
X145463207Y-112611000D01*
X145308649Y-112641743D01*
X145163058Y-112702049D01*
X145032030Y-112789599D01*
X144920599Y-112901030D01*
X144833049Y-113032058D01*
X144772743Y-113177649D01*
X144768600Y-113198479D01*
X144768000Y-113059000D01*
X144668000Y-112959000D01*
X141268000Y-112959000D01*
X141168000Y-113059000D01*
X141166065Y-113509000D01*
X141173788Y-113587414D01*
X141185707Y-113626707D01*
X141146414Y-113614788D01*
X141068000Y-113607065D01*
X139568000Y-113607065D01*
X139489586Y-113614788D01*
X139414186Y-113637660D01*
X139344697Y-113674803D01*
X139318000Y-113696713D01*
X139291303Y-113674803D01*
X139221814Y-113637660D01*
X139146414Y-113614788D01*
X139068000Y-113607065D01*
X137568000Y-113607065D01*
X137489586Y-113614788D01*
X137414186Y-113637660D01*
X137344697Y-113674803D01*
X137318000Y-113696713D01*
X137291303Y-113674803D01*
X137221814Y-113637660D01*
X137146414Y-113614788D01*
X137068000Y-113607065D01*
X135568000Y-113607065D01*
X135489586Y-113614788D01*
X135414186Y-113637660D01*
X135344697Y-113674803D01*
X135318000Y-113696713D01*
X135291303Y-113674803D01*
X135221814Y-113637660D01*
X135146414Y-113614788D01*
X135068000Y-113607065D01*
X133568000Y-113607065D01*
X133489586Y-113614788D01*
X133414186Y-113637660D01*
X133344697Y-113674803D01*
X133318000Y-113696713D01*
X133291303Y-113674803D01*
X133221814Y-113637660D01*
X133146414Y-113614788D01*
X133068000Y-113607065D01*
X131568000Y-113607065D01*
X131489586Y-113614788D01*
X131414186Y-113637660D01*
X131344697Y-113674803D01*
X131318000Y-113696713D01*
X131291303Y-113674803D01*
X131221814Y-113637660D01*
X131146414Y-113614788D01*
X131068000Y-113607065D01*
X129568000Y-113607065D01*
X129489586Y-113614788D01*
X129414186Y-113637660D01*
X129344697Y-113674803D01*
X129318000Y-113696713D01*
X129291303Y-113674803D01*
X129221814Y-113637660D01*
X129146414Y-113614788D01*
X129068000Y-113607065D01*
X127568000Y-113607065D01*
X127489586Y-113614788D01*
X127414186Y-113637660D01*
X127344697Y-113674803D01*
X127318000Y-113696713D01*
X127291303Y-113674803D01*
X127221814Y-113637660D01*
X127146414Y-113614788D01*
X127068000Y-113607065D01*
X125568000Y-113607065D01*
X125489586Y-113614788D01*
X125414186Y-113637660D01*
X125344697Y-113674803D01*
X125318000Y-113696713D01*
X125291303Y-113674803D01*
X125221814Y-113637660D01*
X125146414Y-113614788D01*
X125068000Y-113607065D01*
X123568000Y-113607065D01*
X123489586Y-113614788D01*
X123414186Y-113637660D01*
X123344697Y-113674803D01*
X123318000Y-113696713D01*
X123291303Y-113674803D01*
X123221814Y-113637660D01*
X123146414Y-113614788D01*
X123068000Y-113607065D01*
X121568000Y-113607065D01*
X121489586Y-113614788D01*
X121450293Y-113626707D01*
X121462212Y-113587414D01*
X121469935Y-113509000D01*
X121469935Y-112009000D01*
X121462212Y-111930586D01*
X121439340Y-111855186D01*
X121402197Y-111785697D01*
X121380287Y-111759000D01*
X121402197Y-111732303D01*
X121439340Y-111662814D01*
X121462212Y-111587414D01*
X121469935Y-111509000D01*
X121469935Y-110009000D01*
X121462212Y-109930586D01*
X121439340Y-109855186D01*
X121402197Y-109785697D01*
X121380287Y-109759000D01*
X121402197Y-109732303D01*
X121439340Y-109662814D01*
X121462212Y-109587414D01*
X121469935Y-109509000D01*
X121469935Y-108009000D01*
X121462212Y-107930586D01*
X121439340Y-107855186D01*
X121402197Y-107785697D01*
X121380287Y-107759000D01*
X121402197Y-107732303D01*
X121439340Y-107662814D01*
X121462212Y-107587414D01*
X121469935Y-107509000D01*
X121469935Y-106009000D01*
X121462212Y-105930586D01*
X121439340Y-105855186D01*
X121402197Y-105785697D01*
X121380287Y-105759000D01*
X121402197Y-105732303D01*
X121439340Y-105662814D01*
X121462212Y-105587414D01*
X121469935Y-105509000D01*
X121469935Y-104009000D01*
X121462212Y-103930586D01*
X121439340Y-103855186D01*
X121402197Y-103785697D01*
X121380287Y-103759000D01*
X121402197Y-103732303D01*
X121439340Y-103662814D01*
X121462212Y-103587414D01*
X121469935Y-103509000D01*
X121469935Y-102009000D01*
X121462212Y-101930586D01*
X121439340Y-101855186D01*
X121402197Y-101785697D01*
X121380287Y-101759000D01*
X121402197Y-101732303D01*
X121439340Y-101662814D01*
X121462212Y-101587414D01*
X121469935Y-101509000D01*
X121469935Y-100009000D01*
X121462212Y-99930586D01*
X121439340Y-99855186D01*
X121402197Y-99785697D01*
X121380287Y-99759000D01*
X121402197Y-99732303D01*
X121439340Y-99662814D01*
X121462212Y-99587414D01*
X121469935Y-99509000D01*
X121469935Y-98009000D01*
X121462212Y-97930586D01*
X121439340Y-97855186D01*
X121402197Y-97785697D01*
X121380287Y-97759000D01*
X121402197Y-97732303D01*
X121439340Y-97662814D01*
X121462212Y-97587414D01*
X121469935Y-97509000D01*
X121469935Y-96009000D01*
X121462212Y-95930586D01*
X121439340Y-95855186D01*
X121402197Y-95785697D01*
X121380287Y-95759000D01*
X121402197Y-95732303D01*
X121439340Y-95662814D01*
X121462212Y-95587414D01*
X121469935Y-95509000D01*
X121469935Y-94009000D01*
X121462212Y-93930586D01*
X121450293Y-93891293D01*
X121489586Y-93903212D01*
X121568000Y-93910935D01*
X123068000Y-93910935D01*
X123146414Y-93903212D01*
X123221814Y-93880340D01*
X123291303Y-93843197D01*
X123318000Y-93821287D01*
X123344697Y-93843197D01*
X123414186Y-93880340D01*
X123489586Y-93903212D01*
X123568000Y-93910935D01*
X125068000Y-93910935D01*
X125146414Y-93903212D01*
X125221814Y-93880340D01*
X125291303Y-93843197D01*
X125318000Y-93821287D01*
X125344697Y-93843197D01*
X125414186Y-93880340D01*
X125489586Y-93903212D01*
X125568000Y-93910935D01*
X127068000Y-93910935D01*
X127146414Y-93903212D01*
X127221814Y-93880340D01*
X127291303Y-93843197D01*
X127318000Y-93821287D01*
X127344697Y-93843197D01*
X127414186Y-93880340D01*
X127489586Y-93903212D01*
X127568000Y-93910935D01*
X129068000Y-93910935D01*
X129146414Y-93903212D01*
X129221814Y-93880340D01*
X129291303Y-93843197D01*
X129318000Y-93821287D01*
X129344697Y-93843197D01*
X129414186Y-93880340D01*
X129489586Y-93903212D01*
X129568000Y-93910935D01*
X131068000Y-93910935D01*
X131146414Y-93903212D01*
X131221814Y-93880340D01*
X131291303Y-93843197D01*
X131318000Y-93821287D01*
X131344697Y-93843197D01*
X131414186Y-93880340D01*
X131489586Y-93903212D01*
X131568000Y-93910935D01*
X133068000Y-93910935D01*
X133146414Y-93903212D01*
X133221814Y-93880340D01*
X133291303Y-93843197D01*
X133318000Y-93821287D01*
X133344697Y-93843197D01*
X133414186Y-93880340D01*
X133489586Y-93903212D01*
X133568000Y-93910935D01*
X133793001Y-93910935D01*
X133793000Y-96731538D01*
X131354539Y-99170000D01*
X122907371Y-99170000D01*
X122810970Y-99073599D01*
X122679942Y-98986049D01*
X122534351Y-98925743D01*
X122379793Y-98895000D01*
X122222207Y-98895000D01*
X122067649Y-98925743D01*
X121922058Y-98986049D01*
X121791030Y-99073599D01*
X121679599Y-99185030D01*
X121592049Y-99316058D01*
X121531743Y-99461649D01*
X121501000Y-99616207D01*
X121501000Y-99773793D01*
X121531743Y-99928351D01*
X121592049Y-100073942D01*
X121679599Y-100204970D01*
X121791030Y-100316401D01*
X121922058Y-100403951D01*
X122067649Y-100464257D01*
X122222207Y-100495000D01*
X122379793Y-100495000D01*
X122534351Y-100464257D01*
X122679942Y-100403951D01*
X122810970Y-100316401D01*
X122907371Y-100220000D01*
X131546220Y-100220000D01*
X131572000Y-100222539D01*
X131597780Y-100220000D01*
X131597788Y-100220000D01*
X131674918Y-100212403D01*
X131773881Y-100182383D01*
X131865086Y-100133633D01*
X131945027Y-100068027D01*
X131961471Y-100047990D01*
X134670996Y-97338466D01*
X134691027Y-97322027D01*
X134756633Y-97242086D01*
X134805383Y-97150881D01*
X134835403Y-97051918D01*
X134843000Y-96974788D01*
X134843000Y-96974781D01*
X134845539Y-96949001D01*
X134843000Y-96923221D01*
X134843000Y-93910935D01*
X135068000Y-93910935D01*
X135146414Y-93903212D01*
X135221814Y-93880340D01*
X135291303Y-93843197D01*
X135318000Y-93821287D01*
X135344697Y-93843197D01*
X135414186Y-93880340D01*
X135489586Y-93903212D01*
X135568000Y-93910935D01*
X135793001Y-93910935D01*
X135793000Y-98541537D01*
X133132539Y-101202000D01*
X122907371Y-101202000D01*
X122810970Y-101105599D01*
X122679942Y-101018049D01*
X122534351Y-100957743D01*
X122379793Y-100927000D01*
X122222207Y-100927000D01*
X122067649Y-100957743D01*
X121922058Y-101018049D01*
X121791030Y-101105599D01*
X121679599Y-101217030D01*
X121592049Y-101348058D01*
X121531743Y-101493649D01*
X121501000Y-101648207D01*
X121501000Y-101805793D01*
X121531743Y-101960351D01*
X121592049Y-102105942D01*
X121679599Y-102236970D01*
X121791030Y-102348401D01*
X121922058Y-102435951D01*
X122067649Y-102496257D01*
X122222207Y-102527000D01*
X122379793Y-102527000D01*
X122534351Y-102496257D01*
X122679942Y-102435951D01*
X122810970Y-102348401D01*
X122907371Y-102252000D01*
X133324220Y-102252000D01*
X133350000Y-102254539D01*
X133375780Y-102252000D01*
X133375788Y-102252000D01*
X133452918Y-102244403D01*
X133551881Y-102214383D01*
X133643086Y-102165633D01*
X133723027Y-102100027D01*
X133739471Y-102079990D01*
X136671001Y-99148462D01*
X136691027Y-99132027D01*
X136707462Y-99112001D01*
X136707466Y-99111997D01*
X136756633Y-99052086D01*
X136805383Y-98960881D01*
X136835403Y-98861918D01*
X136840511Y-98810053D01*
X136843000Y-98784788D01*
X136843000Y-98784780D01*
X136845539Y-98759000D01*
X136843000Y-98733220D01*
X136843000Y-93910935D01*
X137068000Y-93910935D01*
X137146414Y-93903212D01*
X137221814Y-93880340D01*
X137291303Y-93843197D01*
X137318000Y-93821287D01*
X137344697Y-93843197D01*
X137414186Y-93880340D01*
X137489586Y-93903212D01*
X137568000Y-93910935D01*
X139068000Y-93910935D01*
X139146414Y-93903212D01*
X139221814Y-93880340D01*
X139291303Y-93843197D01*
X139318000Y-93821287D01*
X139344697Y-93843197D01*
G37*
X139344697Y-93843197D02*
X139414186Y-93880340D01*
X139489586Y-93903212D01*
X139568000Y-93910935D01*
X141068000Y-93910935D01*
X141146414Y-93903212D01*
X141185707Y-93891293D01*
X141173788Y-93930586D01*
X141166065Y-94009000D01*
X141166065Y-95509000D01*
X141173788Y-95587414D01*
X141196660Y-95662814D01*
X141233803Y-95732303D01*
X141255713Y-95759000D01*
X141233803Y-95785697D01*
X141196660Y-95855186D01*
X141173788Y-95930586D01*
X141166065Y-96009000D01*
X141166065Y-97509000D01*
X141173788Y-97587414D01*
X141196660Y-97662814D01*
X141233803Y-97732303D01*
X141255713Y-97759000D01*
X141233803Y-97785697D01*
X141196660Y-97855186D01*
X141173788Y-97930586D01*
X141166065Y-98009000D01*
X141166065Y-99509000D01*
X141173788Y-99587414D01*
X141196660Y-99662814D01*
X141233803Y-99732303D01*
X141255713Y-99759000D01*
X141233803Y-99785697D01*
X141196660Y-99855186D01*
X141173788Y-99930586D01*
X141166065Y-100009000D01*
X141166065Y-101509000D01*
X141173788Y-101587414D01*
X141196660Y-101662814D01*
X141233803Y-101732303D01*
X141255713Y-101759000D01*
X141233803Y-101785697D01*
X141196660Y-101855186D01*
X141173788Y-101930586D01*
X141166065Y-102009000D01*
X141166065Y-103509000D01*
X141173788Y-103587414D01*
X141196660Y-103662814D01*
X141233803Y-103732303D01*
X141255713Y-103759000D01*
X141233803Y-103785697D01*
X141196660Y-103855186D01*
X141173788Y-103930586D01*
X141166065Y-104009000D01*
X141166065Y-105509000D01*
X141173788Y-105587414D01*
X141196660Y-105662814D01*
X141233803Y-105732303D01*
X141255713Y-105759000D01*
X141233803Y-105785697D01*
X141196660Y-105855186D01*
X141173788Y-105930586D01*
X141166065Y-106009000D01*
X141166065Y-107509000D01*
X141173788Y-107587414D01*
X141196660Y-107662814D01*
X141233803Y-107732303D01*
X141255713Y-107759000D01*
X141233803Y-107785697D01*
X141196660Y-107855186D01*
X141173788Y-107930586D01*
X141166065Y-108009000D01*
X141166065Y-109509000D01*
X141173788Y-109587414D01*
X141196660Y-109662814D01*
X141233803Y-109732303D01*
X141255713Y-109759000D01*
X141233803Y-109785697D01*
X141196660Y-109855186D01*
X141173788Y-109930586D01*
X141166065Y-110009000D01*
X141166065Y-111509000D01*
X141173788Y-111587414D01*
X141196660Y-111662814D01*
X141233803Y-111732303D01*
X141255713Y-111759000D01*
X141233803Y-111785697D01*
X141196660Y-111855186D01*
X141173788Y-111930586D01*
X141166065Y-112009000D01*
X141168000Y-112459000D01*
X141268000Y-112559000D01*
X144668000Y-112559000D01*
X144768000Y-112459000D01*
X144769935Y-112009000D01*
X144762212Y-111930586D01*
X144739340Y-111855186D01*
X144702197Y-111785697D01*
X144680287Y-111759000D01*
X144702197Y-111732303D01*
X144739340Y-111662814D01*
X144762212Y-111587414D01*
X144764057Y-111568682D01*
X144772743Y-111612351D01*
X144833049Y-111757942D01*
X144920599Y-111888970D01*
X145032030Y-112000401D01*
X145163058Y-112087951D01*
X145308649Y-112148257D01*
X145463207Y-112179000D01*
X145620793Y-112179000D01*
X145775351Y-112148257D01*
X145920942Y-112087951D01*
X146051970Y-112000401D01*
X146133056Y-111919315D01*
X146140691Y-111944485D01*
X146200936Y-112057196D01*
X146282012Y-112155988D01*
X146380804Y-112237064D01*
X146493515Y-112297309D01*
X146615813Y-112334408D01*
X146742999Y-112346935D01*
X147643001Y-112346935D01*
X147770187Y-112334408D01*
X147892485Y-112297309D01*
X148005196Y-112237064D01*
X148103988Y-112155988D01*
X148185064Y-112057196D01*
X148245309Y-111944485D01*
X148282408Y-111822187D01*
X148294935Y-111695001D01*
X148294935Y-111044999D01*
X148288617Y-110980856D01*
X149377804Y-112070043D01*
X149398157Y-112094843D01*
X149422957Y-112115196D01*
X149422960Y-112115199D01*
X149463242Y-112148257D01*
X149497132Y-112176070D01*
X149610052Y-112236427D01*
X149732578Y-112273595D01*
X149828068Y-112283000D01*
X149828076Y-112283000D01*
X149860000Y-112286144D01*
X149891924Y-112283000D01*
X152672065Y-112283000D01*
X152672065Y-112483000D01*
X152679788Y-112561414D01*
X152702660Y-112636814D01*
X152739803Y-112706303D01*
X152789789Y-112767211D01*
X152850697Y-112817197D01*
X152920186Y-112854340D01*
X152995586Y-112877212D01*
X153074000Y-112884935D01*
X154774000Y-112884935D01*
X154852414Y-112877212D01*
X154927814Y-112854340D01*
X154997303Y-112817197D01*
X155058211Y-112767211D01*
X155108197Y-112706303D01*
X155145340Y-112636814D01*
X155168212Y-112561414D01*
X155175935Y-112483000D01*
X155175935Y-110783000D01*
X155168212Y-110704586D01*
X155145340Y-110629186D01*
X155108197Y-110559697D01*
X155058211Y-110498789D01*
X154997303Y-110448803D01*
X154927814Y-110411660D01*
X154852414Y-110388788D01*
X154774000Y-110381065D01*
X153074000Y-110381065D01*
X152995586Y-110388788D01*
X152920186Y-110411660D01*
X152850697Y-110448803D01*
X152789789Y-110498789D01*
X152739803Y-110559697D01*
X152702660Y-110629186D01*
X152679788Y-110704586D01*
X152672065Y-110783000D01*
X152672065Y-110983000D01*
X150129239Y-110983000D01*
X148366027Y-109219789D01*
X148393000Y-109084190D01*
X148393000Y-108847810D01*
X149295000Y-108847810D01*
X149295000Y-109084190D01*
X149341116Y-109316027D01*
X149431574Y-109534413D01*
X149562899Y-109730955D01*
X149730045Y-109898101D01*
X149926587Y-110029426D01*
X150144973Y-110119884D01*
X150376810Y-110166000D01*
X150613190Y-110166000D01*
X150845027Y-110119884D01*
X151063413Y-110029426D01*
X151259955Y-109898101D01*
X151427101Y-109730955D01*
X151558426Y-109534413D01*
X151648884Y-109316027D01*
X151695000Y-109084190D01*
X151695000Y-108847810D01*
X151648884Y-108615973D01*
X151558426Y-108397587D01*
X151427101Y-108201045D01*
X151259955Y-108033899D01*
X151149885Y-107960353D01*
X151912676Y-107197562D01*
X152736582Y-107197562D01*
X152808192Y-107370469D01*
X152939559Y-107577325D01*
X153108758Y-107754578D01*
X153309286Y-107895416D01*
X153533437Y-107994427D01*
X153724000Y-107940905D01*
X153724000Y-107007000D01*
X154124000Y-107007000D01*
X154124000Y-107940905D01*
X154314563Y-107994427D01*
X154538714Y-107895416D01*
X154739242Y-107754578D01*
X154908441Y-107577325D01*
X155039808Y-107370469D01*
X155111418Y-107197562D01*
X155056475Y-107007000D01*
X154124000Y-107007000D01*
X153724000Y-107007000D01*
X152791525Y-107007000D01*
X152736582Y-107197562D01*
X151912676Y-107197562D01*
X152766826Y-106343413D01*
X152736582Y-106416438D01*
X152791525Y-106607000D01*
X153724000Y-106607000D01*
X153724000Y-105673095D01*
X154124000Y-105673095D01*
X154124000Y-106607000D01*
X155056475Y-106607000D01*
X155111418Y-106416438D01*
X155039808Y-106243531D01*
X154908441Y-106036675D01*
X154739242Y-105859422D01*
X154538714Y-105718584D01*
X154314563Y-105619573D01*
X154124000Y-105673095D01*
X153724000Y-105673095D01*
X153533437Y-105619573D01*
X153456825Y-105653414D01*
X153591304Y-105518935D01*
X154774000Y-105518935D01*
X154852414Y-105511212D01*
X154927814Y-105488340D01*
X154997303Y-105451197D01*
X155058211Y-105401211D01*
X155108197Y-105340303D01*
X155145340Y-105270814D01*
X155168212Y-105195414D01*
X155175935Y-105117000D01*
X155175935Y-103417000D01*
X155168212Y-103338586D01*
X155145340Y-103263186D01*
X155108197Y-103193697D01*
X155058211Y-103132789D01*
X154997303Y-103082803D01*
X154927814Y-103045660D01*
X154852414Y-103022788D01*
X154774000Y-103015065D01*
X153074000Y-103015065D01*
X152995586Y-103022788D01*
X152920186Y-103045660D01*
X152850697Y-103082803D01*
X152789789Y-103132789D01*
X152739803Y-103193697D01*
X152702660Y-103263186D01*
X152679788Y-103338586D01*
X152672065Y-103417000D01*
X152672065Y-104599696D01*
X150057957Y-107213805D01*
X150033158Y-107234157D01*
X150012805Y-107258957D01*
X150012802Y-107258960D01*
X149951930Y-107333132D01*
X149891573Y-107446053D01*
X149854406Y-107568578D01*
X149841856Y-107696000D01*
X149845001Y-107727931D01*
X149845001Y-107957088D01*
X149730045Y-108033899D01*
X149562899Y-108201045D01*
X149431574Y-108397587D01*
X149341116Y-108615973D01*
X149295000Y-108847810D01*
X148393000Y-108847810D01*
X148346884Y-108615973D01*
X148256426Y-108397587D01*
X148125101Y-108201045D01*
X147957955Y-108033899D01*
X147761413Y-107902574D01*
X147543027Y-107812116D01*
X147311190Y-107766000D01*
X147074810Y-107766000D01*
X147014177Y-107778061D01*
X152329043Y-102463196D01*
X152353843Y-102442843D01*
X152374196Y-102418043D01*
X152374199Y-102418040D01*
X152435070Y-102343868D01*
X152495427Y-102230948D01*
X152532595Y-102108422D01*
X152536012Y-102073728D01*
X152542000Y-102012932D01*
X152542000Y-102012924D01*
X152545144Y-101981000D01*
X152542000Y-101949076D01*
X152542000Y-97390040D01*
X157690001Y-102538042D01*
X157690000Y-117050000D01*
X141387673Y-117050000D01*
X141402197Y-117032303D01*
X141439340Y-116962814D01*
X141462212Y-116887414D01*
X141469935Y-116809000D01*
X141469935Y-114563562D01*
X152736582Y-114563562D01*
X152808192Y-114736469D01*
X152939559Y-114943325D01*
X153108758Y-115120578D01*
X153309286Y-115261416D01*
X153533437Y-115360427D01*
X153724000Y-115306905D01*
X153724000Y-114373000D01*
X154124000Y-114373000D01*
X154124000Y-115306905D01*
X154314563Y-115360427D01*
X154538714Y-115261416D01*
X154739242Y-115120578D01*
X154908441Y-114943325D01*
X155039808Y-114736469D01*
X155111418Y-114563562D01*
X155056475Y-114373000D01*
X154124000Y-114373000D01*
X153724000Y-114373000D01*
X152791525Y-114373000D01*
X152736582Y-114563562D01*
X141469935Y-114563562D01*
X141469935Y-114009000D01*
X141462212Y-113930586D01*
X141450293Y-113891293D01*
X141489586Y-113903212D01*
X141568000Y-113910935D01*
X142668000Y-113909000D01*
X142768000Y-113809000D01*
X142768000Y-113734818D01*
X142777041Y-113731074D01*
X142957863Y-113622841D01*
X143114095Y-113481412D01*
X143168000Y-113408821D01*
X143168000Y-113809000D01*
X143268000Y-113909000D01*
X144368000Y-113910935D01*
X144446414Y-113903212D01*
X144521814Y-113880340D01*
X144591303Y-113843197D01*
X144652211Y-113793211D01*
X144702197Y-113732303D01*
X144739340Y-113662814D01*
X144761732Y-113588995D01*
X144772743Y-113644351D01*
X144833049Y-113789942D01*
X144920599Y-113920970D01*
X145032030Y-114032401D01*
X145163058Y-114119951D01*
X145308649Y-114180257D01*
X145463207Y-114211000D01*
X145620793Y-114211000D01*
X145775351Y-114180257D01*
X145920942Y-114119951D01*
X146051970Y-114032401D01*
X146128866Y-113955505D01*
X146140691Y-113994485D01*
X146200936Y-114107196D01*
X146282012Y-114205988D01*
X146380804Y-114287064D01*
X146493515Y-114347309D01*
X146615813Y-114384408D01*
X146742999Y-114396935D01*
X147643001Y-114396935D01*
X147770187Y-114384408D01*
X147892485Y-114347309D01*
X148005196Y-114287064D01*
X148103988Y-114205988D01*
X148185064Y-114107196D01*
X148245309Y-113994485D01*
X148282408Y-113872187D01*
X148291247Y-113782438D01*
X152736582Y-113782438D01*
X152791525Y-113973000D01*
X153724000Y-113973000D01*
X153724000Y-113039095D01*
X154124000Y-113039095D01*
X154124000Y-113973000D01*
X155056475Y-113973000D01*
X155111418Y-113782438D01*
X155039808Y-113609531D01*
X154908441Y-113402675D01*
X154739242Y-113225422D01*
X154538714Y-113084584D01*
X154314563Y-112985573D01*
X154124000Y-113039095D01*
X153724000Y-113039095D01*
X153533437Y-112985573D01*
X153309286Y-113084584D01*
X153108758Y-113225422D01*
X152939559Y-113402675D01*
X152808192Y-113609531D01*
X152736582Y-113782438D01*
X148291247Y-113782438D01*
X148294935Y-113745001D01*
X148294935Y-113094999D01*
X148282408Y-112967813D01*
X148245309Y-112845515D01*
X148185064Y-112732804D01*
X148103988Y-112634012D01*
X148005196Y-112552936D01*
X147892485Y-112492691D01*
X147770187Y-112455592D01*
X147643001Y-112443065D01*
X146742999Y-112443065D01*
X146615813Y-112455592D01*
X146493515Y-112492691D01*
X146380804Y-112552936D01*
X146282012Y-112634012D01*
X146200936Y-112732804D01*
X146140691Y-112845515D01*
X146133056Y-112870685D01*
X146051970Y-112789599D01*
X145920942Y-112702049D01*
X145775351Y-112641743D01*
X145620793Y-112611000D01*
X145463207Y-112611000D01*
X145308649Y-112641743D01*
X145163058Y-112702049D01*
X145032030Y-112789599D01*
X144920599Y-112901030D01*
X144833049Y-113032058D01*
X144772743Y-113177649D01*
X144768600Y-113198479D01*
X144768000Y-113059000D01*
X144668000Y-112959000D01*
X141268000Y-112959000D01*
X141168000Y-113059000D01*
X141166065Y-113509000D01*
X141173788Y-113587414D01*
X141185707Y-113626707D01*
X141146414Y-113614788D01*
X141068000Y-113607065D01*
X139568000Y-113607065D01*
X139489586Y-113614788D01*
X139414186Y-113637660D01*
X139344697Y-113674803D01*
X139318000Y-113696713D01*
X139291303Y-113674803D01*
X139221814Y-113637660D01*
X139146414Y-113614788D01*
X139068000Y-113607065D01*
X137568000Y-113607065D01*
X137489586Y-113614788D01*
X137414186Y-113637660D01*
X137344697Y-113674803D01*
X137318000Y-113696713D01*
X137291303Y-113674803D01*
X137221814Y-113637660D01*
X137146414Y-113614788D01*
X137068000Y-113607065D01*
X135568000Y-113607065D01*
X135489586Y-113614788D01*
X135414186Y-113637660D01*
X135344697Y-113674803D01*
X135318000Y-113696713D01*
X135291303Y-113674803D01*
X135221814Y-113637660D01*
X135146414Y-113614788D01*
X135068000Y-113607065D01*
X133568000Y-113607065D01*
X133489586Y-113614788D01*
X133414186Y-113637660D01*
X133344697Y-113674803D01*
X133318000Y-113696713D01*
X133291303Y-113674803D01*
X133221814Y-113637660D01*
X133146414Y-113614788D01*
X133068000Y-113607065D01*
X131568000Y-113607065D01*
X131489586Y-113614788D01*
X131414186Y-113637660D01*
X131344697Y-113674803D01*
X131318000Y-113696713D01*
X131291303Y-113674803D01*
X131221814Y-113637660D01*
X131146414Y-113614788D01*
X131068000Y-113607065D01*
X129568000Y-113607065D01*
X129489586Y-113614788D01*
X129414186Y-113637660D01*
X129344697Y-113674803D01*
X129318000Y-113696713D01*
X129291303Y-113674803D01*
X129221814Y-113637660D01*
X129146414Y-113614788D01*
X129068000Y-113607065D01*
X127568000Y-113607065D01*
X127489586Y-113614788D01*
X127414186Y-113637660D01*
X127344697Y-113674803D01*
X127318000Y-113696713D01*
X127291303Y-113674803D01*
X127221814Y-113637660D01*
X127146414Y-113614788D01*
X127068000Y-113607065D01*
X125568000Y-113607065D01*
X125489586Y-113614788D01*
X125414186Y-113637660D01*
X125344697Y-113674803D01*
X125318000Y-113696713D01*
X125291303Y-113674803D01*
X125221814Y-113637660D01*
X125146414Y-113614788D01*
X125068000Y-113607065D01*
X123568000Y-113607065D01*
X123489586Y-113614788D01*
X123414186Y-113637660D01*
X123344697Y-113674803D01*
X123318000Y-113696713D01*
X123291303Y-113674803D01*
X123221814Y-113637660D01*
X123146414Y-113614788D01*
X123068000Y-113607065D01*
X121568000Y-113607065D01*
X121489586Y-113614788D01*
X121450293Y-113626707D01*
X121462212Y-113587414D01*
X121469935Y-113509000D01*
X121469935Y-112009000D01*
X121462212Y-111930586D01*
X121439340Y-111855186D01*
X121402197Y-111785697D01*
X121380287Y-111759000D01*
X121402197Y-111732303D01*
X121439340Y-111662814D01*
X121462212Y-111587414D01*
X121469935Y-111509000D01*
X121469935Y-110009000D01*
X121462212Y-109930586D01*
X121439340Y-109855186D01*
X121402197Y-109785697D01*
X121380287Y-109759000D01*
X121402197Y-109732303D01*
X121439340Y-109662814D01*
X121462212Y-109587414D01*
X121469935Y-109509000D01*
X121469935Y-108009000D01*
X121462212Y-107930586D01*
X121439340Y-107855186D01*
X121402197Y-107785697D01*
X121380287Y-107759000D01*
X121402197Y-107732303D01*
X121439340Y-107662814D01*
X121462212Y-107587414D01*
X121469935Y-107509000D01*
X121469935Y-106009000D01*
X121462212Y-105930586D01*
X121439340Y-105855186D01*
X121402197Y-105785697D01*
X121380287Y-105759000D01*
X121402197Y-105732303D01*
X121439340Y-105662814D01*
X121462212Y-105587414D01*
X121469935Y-105509000D01*
X121469935Y-104009000D01*
X121462212Y-103930586D01*
X121439340Y-103855186D01*
X121402197Y-103785697D01*
X121380287Y-103759000D01*
X121402197Y-103732303D01*
X121439340Y-103662814D01*
X121462212Y-103587414D01*
X121469935Y-103509000D01*
X121469935Y-102009000D01*
X121462212Y-101930586D01*
X121439340Y-101855186D01*
X121402197Y-101785697D01*
X121380287Y-101759000D01*
X121402197Y-101732303D01*
X121439340Y-101662814D01*
X121462212Y-101587414D01*
X121469935Y-101509000D01*
X121469935Y-100009000D01*
X121462212Y-99930586D01*
X121439340Y-99855186D01*
X121402197Y-99785697D01*
X121380287Y-99759000D01*
X121402197Y-99732303D01*
X121439340Y-99662814D01*
X121462212Y-99587414D01*
X121469935Y-99509000D01*
X121469935Y-98009000D01*
X121462212Y-97930586D01*
X121439340Y-97855186D01*
X121402197Y-97785697D01*
X121380287Y-97759000D01*
X121402197Y-97732303D01*
X121439340Y-97662814D01*
X121462212Y-97587414D01*
X121469935Y-97509000D01*
X121469935Y-96009000D01*
X121462212Y-95930586D01*
X121439340Y-95855186D01*
X121402197Y-95785697D01*
X121380287Y-95759000D01*
X121402197Y-95732303D01*
X121439340Y-95662814D01*
X121462212Y-95587414D01*
X121469935Y-95509000D01*
X121469935Y-94009000D01*
X121462212Y-93930586D01*
X121450293Y-93891293D01*
X121489586Y-93903212D01*
X121568000Y-93910935D01*
X123068000Y-93910935D01*
X123146414Y-93903212D01*
X123221814Y-93880340D01*
X123291303Y-93843197D01*
X123318000Y-93821287D01*
X123344697Y-93843197D01*
X123414186Y-93880340D01*
X123489586Y-93903212D01*
X123568000Y-93910935D01*
X125068000Y-93910935D01*
X125146414Y-93903212D01*
X125221814Y-93880340D01*
X125291303Y-93843197D01*
X125318000Y-93821287D01*
X125344697Y-93843197D01*
X125414186Y-93880340D01*
X125489586Y-93903212D01*
X125568000Y-93910935D01*
X127068000Y-93910935D01*
X127146414Y-93903212D01*
X127221814Y-93880340D01*
X127291303Y-93843197D01*
X127318000Y-93821287D01*
X127344697Y-93843197D01*
X127414186Y-93880340D01*
X127489586Y-93903212D01*
X127568000Y-93910935D01*
X129068000Y-93910935D01*
X129146414Y-93903212D01*
X129221814Y-93880340D01*
X129291303Y-93843197D01*
X129318000Y-93821287D01*
X129344697Y-93843197D01*
X129414186Y-93880340D01*
X129489586Y-93903212D01*
X129568000Y-93910935D01*
X131068000Y-93910935D01*
X131146414Y-93903212D01*
X131221814Y-93880340D01*
X131291303Y-93843197D01*
X131318000Y-93821287D01*
X131344697Y-93843197D01*
X131414186Y-93880340D01*
X131489586Y-93903212D01*
X131568000Y-93910935D01*
X133068000Y-93910935D01*
X133146414Y-93903212D01*
X133221814Y-93880340D01*
X133291303Y-93843197D01*
X133318000Y-93821287D01*
X133344697Y-93843197D01*
X133414186Y-93880340D01*
X133489586Y-93903212D01*
X133568000Y-93910935D01*
X133793001Y-93910935D01*
X133793000Y-96731538D01*
X131354539Y-99170000D01*
X122907371Y-99170000D01*
X122810970Y-99073599D01*
X122679942Y-98986049D01*
X122534351Y-98925743D01*
X122379793Y-98895000D01*
X122222207Y-98895000D01*
X122067649Y-98925743D01*
X121922058Y-98986049D01*
X121791030Y-99073599D01*
X121679599Y-99185030D01*
X121592049Y-99316058D01*
X121531743Y-99461649D01*
X121501000Y-99616207D01*
X121501000Y-99773793D01*
X121531743Y-99928351D01*
X121592049Y-100073942D01*
X121679599Y-100204970D01*
X121791030Y-100316401D01*
X121922058Y-100403951D01*
X122067649Y-100464257D01*
X122222207Y-100495000D01*
X122379793Y-100495000D01*
X122534351Y-100464257D01*
X122679942Y-100403951D01*
X122810970Y-100316401D01*
X122907371Y-100220000D01*
X131546220Y-100220000D01*
X131572000Y-100222539D01*
X131597780Y-100220000D01*
X131597788Y-100220000D01*
X131674918Y-100212403D01*
X131773881Y-100182383D01*
X131865086Y-100133633D01*
X131945027Y-100068027D01*
X131961471Y-100047990D01*
X134670996Y-97338466D01*
X134691027Y-97322027D01*
X134756633Y-97242086D01*
X134805383Y-97150881D01*
X134835403Y-97051918D01*
X134843000Y-96974788D01*
X134843000Y-96974781D01*
X134845539Y-96949001D01*
X134843000Y-96923221D01*
X134843000Y-93910935D01*
X135068000Y-93910935D01*
X135146414Y-93903212D01*
X135221814Y-93880340D01*
X135291303Y-93843197D01*
X135318000Y-93821287D01*
X135344697Y-93843197D01*
X135414186Y-93880340D01*
X135489586Y-93903212D01*
X135568000Y-93910935D01*
X135793001Y-93910935D01*
X135793000Y-98541537D01*
X133132539Y-101202000D01*
X122907371Y-101202000D01*
X122810970Y-101105599D01*
X122679942Y-101018049D01*
X122534351Y-100957743D01*
X122379793Y-100927000D01*
X122222207Y-100927000D01*
X122067649Y-100957743D01*
X121922058Y-101018049D01*
X121791030Y-101105599D01*
X121679599Y-101217030D01*
X121592049Y-101348058D01*
X121531743Y-101493649D01*
X121501000Y-101648207D01*
X121501000Y-101805793D01*
X121531743Y-101960351D01*
X121592049Y-102105942D01*
X121679599Y-102236970D01*
X121791030Y-102348401D01*
X121922058Y-102435951D01*
X122067649Y-102496257D01*
X122222207Y-102527000D01*
X122379793Y-102527000D01*
X122534351Y-102496257D01*
X122679942Y-102435951D01*
X122810970Y-102348401D01*
X122907371Y-102252000D01*
X133324220Y-102252000D01*
X133350000Y-102254539D01*
X133375780Y-102252000D01*
X133375788Y-102252000D01*
X133452918Y-102244403D01*
X133551881Y-102214383D01*
X133643086Y-102165633D01*
X133723027Y-102100027D01*
X133739471Y-102079990D01*
X136671001Y-99148462D01*
X136691027Y-99132027D01*
X136707462Y-99112001D01*
X136707466Y-99111997D01*
X136756633Y-99052086D01*
X136805383Y-98960881D01*
X136835403Y-98861918D01*
X136840511Y-98810053D01*
X136843000Y-98784788D01*
X136843000Y-98784780D01*
X136845539Y-98759000D01*
X136843000Y-98733220D01*
X136843000Y-93910935D01*
X137068000Y-93910935D01*
X137146414Y-93903212D01*
X137221814Y-93880340D01*
X137291303Y-93843197D01*
X137318000Y-93821287D01*
X137344697Y-93843197D01*
X137414186Y-93880340D01*
X137489586Y-93903212D01*
X137568000Y-93910935D01*
X139068000Y-93910935D01*
X139146414Y-93903212D01*
X139221814Y-93880340D01*
X139291303Y-93843197D01*
X139318000Y-93821287D01*
X139344697Y-93843197D01*
G36*
X149845001Y-100337088D02*
G01*
X149730045Y-100413899D01*
X149562899Y-100581045D01*
X149431574Y-100777587D01*
X149341116Y-100995973D01*
X149295000Y-101227810D01*
X149295000Y-101464190D01*
X149341116Y-101696027D01*
X149431574Y-101914413D01*
X149562899Y-102110955D01*
X149730045Y-102278101D01*
X149926587Y-102409426D01*
X150144973Y-102499884D01*
X150376810Y-102546000D01*
X150407761Y-102546000D01*
X144844762Y-108109000D01*
X144769935Y-108109000D01*
X144769935Y-108009000D01*
X144762212Y-107930586D01*
X144739340Y-107855186D01*
X144702197Y-107785697D01*
X144680287Y-107759000D01*
X144702197Y-107732303D01*
X144739340Y-107662814D01*
X144762212Y-107587414D01*
X144769935Y-107509000D01*
X144769935Y-106009000D01*
X144762212Y-105930586D01*
X144739340Y-105855186D01*
X144702197Y-105785697D01*
X144680287Y-105759000D01*
X144702197Y-105732303D01*
X144739340Y-105662814D01*
X144762212Y-105587414D01*
X144769935Y-105509000D01*
X144769935Y-104009000D01*
X144762212Y-103930586D01*
X144739340Y-103855186D01*
X144702197Y-103785697D01*
X144680287Y-103759000D01*
X144702197Y-103732303D01*
X144739340Y-103662814D01*
X144762212Y-103587414D01*
X144769935Y-103509000D01*
X144769935Y-102009000D01*
X144762212Y-101930586D01*
X144739340Y-101855186D01*
X144702197Y-101785697D01*
X144680287Y-101759000D01*
X144702197Y-101732303D01*
X144739340Y-101662814D01*
X144762212Y-101587414D01*
X144769935Y-101509000D01*
X144769935Y-101284000D01*
X145595220Y-101284000D01*
X145621000Y-101286539D01*
X145646780Y-101284000D01*
X145646788Y-101284000D01*
X145723918Y-101276403D01*
X145822881Y-101246383D01*
X145914086Y-101197633D01*
X145994027Y-101132027D01*
X146010471Y-101111990D01*
X146017421Y-101105040D01*
X145993000Y-101227810D01*
X145993000Y-101464190D01*
X146039116Y-101696027D01*
X146129574Y-101914413D01*
X146260899Y-102110955D01*
X146428045Y-102278101D01*
X146624587Y-102409426D01*
X146842973Y-102499884D01*
X147074810Y-102546000D01*
X147311190Y-102546000D01*
X147543027Y-102499884D01*
X147761413Y-102409426D01*
X147957955Y-102278101D01*
X148125101Y-102110955D01*
X148256426Y-101914413D01*
X148346884Y-101696027D01*
X148393000Y-101464190D01*
X148393000Y-101227810D01*
X148366027Y-101092211D01*
X149845001Y-99613238D01*
X149845001Y-100337088D01*
G37*
X149845001Y-100337088D02*
X149730045Y-100413899D01*
X149562899Y-100581045D01*
X149431574Y-100777587D01*
X149341116Y-100995973D01*
X149295000Y-101227810D01*
X149295000Y-101464190D01*
X149341116Y-101696027D01*
X149431574Y-101914413D01*
X149562899Y-102110955D01*
X149730045Y-102278101D01*
X149926587Y-102409426D01*
X150144973Y-102499884D01*
X150376810Y-102546000D01*
X150407761Y-102546000D01*
X144844762Y-108109000D01*
X144769935Y-108109000D01*
X144769935Y-108009000D01*
X144762212Y-107930586D01*
X144739340Y-107855186D01*
X144702197Y-107785697D01*
X144680287Y-107759000D01*
X144702197Y-107732303D01*
X144739340Y-107662814D01*
X144762212Y-107587414D01*
X144769935Y-107509000D01*
X144769935Y-106009000D01*
X144762212Y-105930586D01*
X144739340Y-105855186D01*
X144702197Y-105785697D01*
X144680287Y-105759000D01*
X144702197Y-105732303D01*
X144739340Y-105662814D01*
X144762212Y-105587414D01*
X144769935Y-105509000D01*
X144769935Y-104009000D01*
X144762212Y-103930586D01*
X144739340Y-103855186D01*
X144702197Y-103785697D01*
X144680287Y-103759000D01*
X144702197Y-103732303D01*
X144739340Y-103662814D01*
X144762212Y-103587414D01*
X144769935Y-103509000D01*
X144769935Y-102009000D01*
X144762212Y-101930586D01*
X144739340Y-101855186D01*
X144702197Y-101785697D01*
X144680287Y-101759000D01*
X144702197Y-101732303D01*
X144739340Y-101662814D01*
X144762212Y-101587414D01*
X144769935Y-101509000D01*
X144769935Y-101284000D01*
X145595220Y-101284000D01*
X145621000Y-101286539D01*
X145646780Y-101284000D01*
X145646788Y-101284000D01*
X145723918Y-101276403D01*
X145822881Y-101246383D01*
X145914086Y-101197633D01*
X145994027Y-101132027D01*
X146010471Y-101111990D01*
X146017421Y-101105040D01*
X145993000Y-101227810D01*
X145993000Y-101464190D01*
X146039116Y-101696027D01*
X146129574Y-101914413D01*
X146260899Y-102110955D01*
X146428045Y-102278101D01*
X146624587Y-102409426D01*
X146842973Y-102499884D01*
X147074810Y-102546000D01*
X147311190Y-102546000D01*
X147543027Y-102499884D01*
X147761413Y-102409426D01*
X147957955Y-102278101D01*
X148125101Y-102110955D01*
X148256426Y-101914413D01*
X148346884Y-101696027D01*
X148393000Y-101464190D01*
X148393000Y-101227810D01*
X148366027Y-101092211D01*
X149845001Y-99613238D01*
X149845001Y-100337088D01*
G36*
X151242000Y-77612239D02*
G01*
X151242001Y-100401902D01*
X151145000Y-100337089D01*
X151145000Y-83216924D01*
X151148144Y-83185000D01*
X151145000Y-83153076D01*
X151145000Y-83153068D01*
X151135595Y-83057578D01*
X151098427Y-82935052D01*
X151038070Y-82822132D01*
X151015492Y-82794621D01*
X150977199Y-82747960D01*
X150977196Y-82747957D01*
X150956843Y-82723157D01*
X150932045Y-82702806D01*
X148027549Y-79798311D01*
X148062000Y-79625114D01*
X148062000Y-79378886D01*
X148013963Y-79137389D01*
X147919735Y-78909903D01*
X147782938Y-78705172D01*
X147608828Y-78531062D01*
X147462000Y-78432955D01*
X147462000Y-76888045D01*
X147608828Y-76789938D01*
X147782938Y-76615828D01*
X147919735Y-76411097D01*
X148013963Y-76183611D01*
X148062000Y-75942114D01*
X148062000Y-75695886D01*
X148013963Y-75454389D01*
X147919735Y-75226903D01*
X147782938Y-75022172D01*
X147705766Y-74945000D01*
X148574762Y-74945000D01*
X151242000Y-77612239D01*
G37*
X151242000Y-77612239D02*
X151242001Y-100401902D01*
X151145000Y-100337089D01*
X151145000Y-83216924D01*
X151148144Y-83185000D01*
X151145000Y-83153076D01*
X151145000Y-83153068D01*
X151135595Y-83057578D01*
X151098427Y-82935052D01*
X151038070Y-82822132D01*
X151015492Y-82794621D01*
X150977199Y-82747960D01*
X150977196Y-82747957D01*
X150956843Y-82723157D01*
X150932045Y-82702806D01*
X148027549Y-79798311D01*
X148062000Y-79625114D01*
X148062000Y-79378886D01*
X148013963Y-79137389D01*
X147919735Y-78909903D01*
X147782938Y-78705172D01*
X147608828Y-78531062D01*
X147462000Y-78432955D01*
X147462000Y-76888045D01*
X147608828Y-76789938D01*
X147782938Y-76615828D01*
X147919735Y-76411097D01*
X148013963Y-76183611D01*
X148062000Y-75942114D01*
X148062000Y-75695886D01*
X148013963Y-75454389D01*
X147919735Y-75226903D01*
X147782938Y-75022172D01*
X147705766Y-74945000D01*
X148574762Y-74945000D01*
X151242000Y-77612239D01*
G36*
X140784422Y-75003758D02*
G01*
X140643584Y-75204286D01*
X140544573Y-75428437D01*
X140598095Y-75619000D01*
X141532000Y-75619000D01*
X141532000Y-75599000D01*
X141932000Y-75599000D01*
X141932000Y-75619000D01*
X142865905Y-75619000D01*
X142919427Y-75428437D01*
X142820416Y-75204286D01*
X142679578Y-75003758D01*
X142618023Y-74945000D01*
X143378234Y-74945000D01*
X143301062Y-75022172D01*
X143164265Y-75226903D01*
X143070037Y-75454389D01*
X143022000Y-75695886D01*
X143022000Y-75942114D01*
X143070037Y-76183611D01*
X143164265Y-76411097D01*
X143301062Y-76615828D01*
X143475172Y-76789938D01*
X143622000Y-76888046D01*
X143622001Y-78432954D01*
X143475172Y-78531062D01*
X143301062Y-78705172D01*
X143164265Y-78909903D01*
X143070037Y-79137389D01*
X143022000Y-79378886D01*
X143022000Y-79625114D01*
X143070037Y-79866611D01*
X143164265Y-80094097D01*
X143301062Y-80298828D01*
X143475172Y-80472938D01*
X143622001Y-80571046D01*
X143622001Y-80994069D01*
X143618856Y-81026000D01*
X143631406Y-81153422D01*
X143668573Y-81275947D01*
X143728930Y-81388868D01*
X143789802Y-81463040D01*
X143789805Y-81463043D01*
X143810158Y-81487843D01*
X143834958Y-81508196D01*
X144551800Y-82225038D01*
X144572157Y-82249843D01*
X144671132Y-82331070D01*
X144784052Y-82391427D01*
X144906578Y-82428595D01*
X145002068Y-82438000D01*
X145002076Y-82438000D01*
X145034000Y-82441144D01*
X145065924Y-82438000D01*
X147431762Y-82438000D01*
X148262569Y-83268807D01*
X148196814Y-83233660D01*
X148121414Y-83210788D01*
X148043000Y-83203065D01*
X147493000Y-83205000D01*
X147393000Y-83305000D01*
X147393000Y-84255000D01*
X148343000Y-84255000D01*
X148443000Y-84155000D01*
X148444935Y-83605000D01*
X148437212Y-83526586D01*
X148414340Y-83451186D01*
X148379193Y-83385431D01*
X148829000Y-83835238D01*
X148829001Y-92966207D01*
X148815996Y-92955534D01*
X148367170Y-92506709D01*
X148394963Y-92439611D01*
X148443000Y-92198114D01*
X148443000Y-91951886D01*
X148394963Y-91710389D01*
X148300735Y-91482903D01*
X148163938Y-91278172D01*
X147989828Y-91104062D01*
X147785097Y-90967265D01*
X147557611Y-90873037D01*
X147316114Y-90825000D01*
X147069886Y-90825000D01*
X146828389Y-90873037D01*
X146600903Y-90967265D01*
X146396172Y-91104062D01*
X146222062Y-91278172D01*
X146085265Y-91482903D01*
X145991037Y-91710389D01*
X145943000Y-91951886D01*
X145943000Y-92198114D01*
X145991037Y-92439611D01*
X146085265Y-92667097D01*
X146222062Y-92871828D01*
X146396172Y-93045938D01*
X146600903Y-93182735D01*
X146828389Y-93276963D01*
X147069886Y-93325000D01*
X147316114Y-93325000D01*
X147557611Y-93276963D01*
X147624709Y-93249170D01*
X147938001Y-93562463D01*
X147938001Y-93618089D01*
X147807714Y-93526584D01*
X147583563Y-93427573D01*
X147393000Y-93481095D01*
X147393000Y-94415000D01*
X147413000Y-94415000D01*
X147413000Y-94815000D01*
X147393000Y-94815000D01*
X147393000Y-95748905D01*
X147583563Y-95802427D01*
X147807714Y-95703416D01*
X147938001Y-95611911D01*
X147938000Y-96149432D01*
X147785097Y-96047265D01*
X147557611Y-95953037D01*
X147316114Y-95905000D01*
X147069886Y-95905000D01*
X146828389Y-95953037D01*
X146600903Y-96047265D01*
X146396172Y-96184062D01*
X146222062Y-96358172D01*
X146085265Y-96562903D01*
X145991037Y-96790389D01*
X145943000Y-97031886D01*
X145943000Y-97278114D01*
X145991037Y-97519611D01*
X146018830Y-97586709D01*
X145371539Y-98234000D01*
X144769935Y-98234000D01*
X144769935Y-98009000D01*
X144762212Y-97930586D01*
X144739340Y-97855186D01*
X144702197Y-97785697D01*
X144680287Y-97759000D01*
X144702197Y-97732303D01*
X144739340Y-97662814D01*
X144762212Y-97587414D01*
X144769935Y-97509000D01*
X144769935Y-96009000D01*
X144762212Y-95930586D01*
X144739340Y-95855186D01*
X144702197Y-95785697D01*
X144680287Y-95759000D01*
X144702197Y-95732303D01*
X144739340Y-95662814D01*
X144762212Y-95587414D01*
X144769935Y-95509000D01*
X144769935Y-95005562D01*
X146005582Y-95005562D01*
X146077192Y-95178469D01*
X146208559Y-95385325D01*
X146377758Y-95562578D01*
X146578286Y-95703416D01*
X146802437Y-95802427D01*
X146993000Y-95748905D01*
X146993000Y-94815000D01*
X146060525Y-94815000D01*
X146005582Y-95005562D01*
X144769935Y-95005562D01*
X144769935Y-94224438D01*
X146005582Y-94224438D01*
X146060525Y-94415000D01*
X146993000Y-94415000D01*
X146993000Y-93481095D01*
X146802437Y-93427573D01*
X146578286Y-93526584D01*
X146377758Y-93667422D01*
X146208559Y-93844675D01*
X146077192Y-94051531D01*
X146005582Y-94224438D01*
X144769935Y-94224438D01*
X144769935Y-94009000D01*
X144762212Y-93930586D01*
X144739340Y-93855186D01*
X144702197Y-93785697D01*
X144652211Y-93724789D01*
X144591303Y-93674803D01*
X144521814Y-93637660D01*
X144446414Y-93614788D01*
X144368000Y-93607065D01*
X141568000Y-93607065D01*
X141489586Y-93614788D01*
X141450293Y-93626707D01*
X141462212Y-93587414D01*
X141469935Y-93509000D01*
X141469935Y-93282508D01*
X141531918Y-93276403D01*
X141630881Y-93246383D01*
X141722086Y-93197633D01*
X141802027Y-93132027D01*
X141818471Y-93111990D01*
X145518575Y-89411886D01*
X145943000Y-89411886D01*
X145943000Y-89658114D01*
X145991037Y-89899611D01*
X146085265Y-90127097D01*
X146222062Y-90331828D01*
X146396172Y-90505938D01*
X146600903Y-90642735D01*
X146828389Y-90736963D01*
X147069886Y-90785000D01*
X147316114Y-90785000D01*
X147557611Y-90736963D01*
X147785097Y-90642735D01*
X147989828Y-90505938D01*
X148163938Y-90331828D01*
X148300735Y-90127097D01*
X148394963Y-89899611D01*
X148443000Y-89658114D01*
X148443000Y-89411886D01*
X148394963Y-89170389D01*
X148300735Y-88942903D01*
X148163938Y-88738172D01*
X147989828Y-88564062D01*
X147785097Y-88427265D01*
X147557611Y-88333037D01*
X147316114Y-88285000D01*
X147069886Y-88285000D01*
X146828389Y-88333037D01*
X146600903Y-88427265D01*
X146396172Y-88564062D01*
X146222062Y-88738172D01*
X146085265Y-88942903D01*
X145991037Y-89170389D01*
X145943000Y-89411886D01*
X145518575Y-89411886D01*
X146761292Y-88169170D01*
X146828389Y-88196963D01*
X147069886Y-88245000D01*
X147316114Y-88245000D01*
X147557611Y-88196963D01*
X147785097Y-88102735D01*
X147989828Y-87965938D01*
X148163938Y-87791828D01*
X148300735Y-87587097D01*
X148394963Y-87359611D01*
X148443000Y-87118114D01*
X148443000Y-86871886D01*
X148394963Y-86630389D01*
X148300735Y-86402903D01*
X148163938Y-86198172D01*
X147989828Y-86024062D01*
X147785097Y-85887265D01*
X147557611Y-85793037D01*
X147316114Y-85745000D01*
X147069886Y-85745000D01*
X146828389Y-85793037D01*
X146600903Y-85887265D01*
X146396172Y-86024062D01*
X146222062Y-86198172D01*
X146085265Y-86402903D01*
X145991037Y-86630389D01*
X145943000Y-86871886D01*
X145943000Y-87118114D01*
X145991037Y-87359611D01*
X146018830Y-87426708D01*
X143133806Y-90311732D01*
X143075951Y-90172058D01*
X142988401Y-90041030D01*
X142892000Y-89944629D01*
X142892000Y-88246935D01*
X143217000Y-88246935D01*
X143295414Y-88239212D01*
X143370814Y-88216340D01*
X143440303Y-88179197D01*
X143501211Y-88129211D01*
X143551197Y-88068303D01*
X143588340Y-87998814D01*
X143611212Y-87923414D01*
X143618935Y-87845000D01*
X143618935Y-86145000D01*
X143611212Y-86066586D01*
X143588340Y-85991186D01*
X143551197Y-85921697D01*
X143501211Y-85860789D01*
X143440303Y-85810803D01*
X143370814Y-85773660D01*
X143295414Y-85750788D01*
X143217000Y-85743065D01*
X141517000Y-85743065D01*
X141438586Y-85750788D01*
X141363186Y-85773660D01*
X141293697Y-85810803D01*
X141232789Y-85860789D01*
X141182803Y-85921697D01*
X141145660Y-85991186D01*
X141122788Y-86066586D01*
X141115065Y-86145000D01*
X141115065Y-87845000D01*
X141122788Y-87923414D01*
X141145660Y-87998814D01*
X141182803Y-88068303D01*
X141232789Y-88129211D01*
X141293697Y-88179197D01*
X141363186Y-88216340D01*
X141438586Y-88239212D01*
X141517000Y-88246935D01*
X141842000Y-88246935D01*
X141842001Y-89944628D01*
X141745599Y-90041030D01*
X141658049Y-90172058D01*
X141597743Y-90317649D01*
X141567000Y-90472207D01*
X141567000Y-90629793D01*
X141597743Y-90784351D01*
X141658049Y-90929942D01*
X141745599Y-91060970D01*
X141857030Y-91172401D01*
X141988058Y-91259951D01*
X142127733Y-91317806D01*
X141469935Y-91975604D01*
X141469935Y-90709000D01*
X141462212Y-90630586D01*
X141439340Y-90555186D01*
X141402197Y-90485697D01*
X141352211Y-90424789D01*
X141291303Y-90374803D01*
X141221814Y-90337660D01*
X141146414Y-90314788D01*
X141068000Y-90307065D01*
X139568000Y-90307065D01*
X139489586Y-90314788D01*
X139414186Y-90337660D01*
X139344697Y-90374803D01*
X139318000Y-90396713D01*
X139291303Y-90374803D01*
X139221814Y-90337660D01*
X139146414Y-90314788D01*
X139068000Y-90307065D01*
X137568000Y-90307065D01*
X137489586Y-90314788D01*
X137414186Y-90337660D01*
X137344697Y-90374803D01*
X137318000Y-90396713D01*
X137291303Y-90374803D01*
X137221814Y-90337660D01*
X137146414Y-90314788D01*
X137068000Y-90307065D01*
X135568000Y-90307065D01*
X135489586Y-90314788D01*
X135414186Y-90337660D01*
X135344697Y-90374803D01*
X135318000Y-90396713D01*
X135291303Y-90374803D01*
X135221814Y-90337660D01*
X135146414Y-90314788D01*
X135068000Y-90307065D01*
X133568000Y-90307065D01*
X133489586Y-90314788D01*
X133414186Y-90337660D01*
X133344697Y-90374803D01*
X133318000Y-90396713D01*
X133291303Y-90374803D01*
X133221814Y-90337660D01*
X133146414Y-90314788D01*
X133068000Y-90307065D01*
X132816742Y-90307065D01*
X132805383Y-90269619D01*
X132756633Y-90178414D01*
X132691027Y-90098473D01*
X132670995Y-90082034D01*
X132097000Y-89508039D01*
X132097000Y-89292153D01*
X132120303Y-89279697D01*
X132181211Y-89229711D01*
X132207000Y-89198287D01*
X132232789Y-89229711D01*
X132293697Y-89279697D01*
X132363186Y-89316840D01*
X132438586Y-89339712D01*
X132517000Y-89347435D01*
X132542000Y-89345500D01*
X132642000Y-89245500D01*
X132642000Y-88383000D01*
X132622000Y-88383000D01*
X132622000Y-87983000D01*
X132642000Y-87983000D01*
X132642000Y-87120500D01*
X133042000Y-87120500D01*
X133042000Y-87983000D01*
X133062000Y-87983000D01*
X133062000Y-88383000D01*
X133042000Y-88383000D01*
X133042000Y-89245500D01*
X133142000Y-89345500D01*
X133167000Y-89347435D01*
X133245414Y-89339712D01*
X133320814Y-89316840D01*
X133390303Y-89279697D01*
X133451211Y-89229711D01*
X133477000Y-89198287D01*
X133502789Y-89229711D01*
X133563697Y-89279697D01*
X133633186Y-89316840D01*
X133708586Y-89339712D01*
X133787000Y-89347435D01*
X134437000Y-89347435D01*
X134515414Y-89339712D01*
X134590814Y-89316840D01*
X134660303Y-89279697D01*
X134721211Y-89229711D01*
X134747000Y-89198287D01*
X134772789Y-89229711D01*
X134833697Y-89279697D01*
X134903186Y-89316840D01*
X134978586Y-89339712D01*
X135057000Y-89347435D01*
X135082000Y-89345500D01*
X135182000Y-89245500D01*
X135182000Y-88383000D01*
X135582000Y-88383000D01*
X135582000Y-89245500D01*
X135682000Y-89345500D01*
X135707000Y-89347435D01*
X135785414Y-89339712D01*
X135860814Y-89316840D01*
X135930303Y-89279697D01*
X135991211Y-89229711D01*
X136041197Y-89168803D01*
X136078340Y-89099314D01*
X136101212Y-89023914D01*
X136108935Y-88945500D01*
X136107000Y-88483000D01*
X136007000Y-88383000D01*
X135582000Y-88383000D01*
X135182000Y-88383000D01*
X135162000Y-88383000D01*
X135162000Y-87983000D01*
X135182000Y-87983000D01*
X135182000Y-87120500D01*
X135082000Y-87020500D01*
X135057000Y-87018565D01*
X134978586Y-87026288D01*
X134903186Y-87049160D01*
X134833697Y-87086303D01*
X134772789Y-87136289D01*
X134747000Y-87167713D01*
X134721211Y-87136289D01*
X134660303Y-87086303D01*
X134590814Y-87049160D01*
X134515414Y-87026288D01*
X134437000Y-87018565D01*
X133787000Y-87018565D01*
X133708586Y-87026288D01*
X133633186Y-87049160D01*
X133563697Y-87086303D01*
X133502789Y-87136289D01*
X133477000Y-87167713D01*
X133451211Y-87136289D01*
X133390303Y-87086303D01*
X133320814Y-87049160D01*
X133245414Y-87026288D01*
X133167000Y-87018565D01*
X133142000Y-87020500D01*
X133042000Y-87120500D01*
X132642000Y-87120500D01*
X132542000Y-87020500D01*
X132517000Y-87018565D01*
X132438586Y-87026288D01*
X132363186Y-87049160D01*
X132293697Y-87086303D01*
X132232789Y-87136289D01*
X132207000Y-87167713D01*
X132181211Y-87136289D01*
X132120303Y-87086303D01*
X132050814Y-87049160D01*
X131975414Y-87026288D01*
X131897000Y-87018565D01*
X131247000Y-87018565D01*
X131168586Y-87026288D01*
X131093186Y-87049160D01*
X131023697Y-87086303D01*
X130962789Y-87136289D01*
X130937000Y-87167713D01*
X130911211Y-87136289D01*
X130850303Y-87086303D01*
X130819632Y-87069909D01*
X130819403Y-87067582D01*
X130789383Y-86968619D01*
X130740633Y-86877414D01*
X130675027Y-86797473D01*
X130654995Y-86781034D01*
X130007971Y-86134010D01*
X129991527Y-86113973D01*
X129911586Y-86048367D01*
X129820381Y-85999617D01*
X129721418Y-85969597D01*
X129644288Y-85962000D01*
X129644280Y-85962000D01*
X129618500Y-85959461D01*
X129592720Y-85962000D01*
X129003371Y-85962000D01*
X128906970Y-85865599D01*
X128775942Y-85778049D01*
X128630351Y-85717743D01*
X128475793Y-85687000D01*
X128318207Y-85687000D01*
X128163649Y-85717743D01*
X128018058Y-85778049D01*
X127887030Y-85865599D01*
X127775599Y-85977030D01*
X127688049Y-86108058D01*
X127627743Y-86253649D01*
X127597000Y-86408207D01*
X127597000Y-86565793D01*
X127627743Y-86720351D01*
X127688049Y-86865942D01*
X127775599Y-86996970D01*
X127797194Y-87018565D01*
X127437000Y-87018565D01*
X127358586Y-87026288D01*
X127283186Y-87049160D01*
X127213697Y-87086303D01*
X127152789Y-87136289D01*
X127102803Y-87197197D01*
X127065660Y-87266686D01*
X127042788Y-87342086D01*
X127035065Y-87420500D01*
X127035065Y-87665000D01*
X126814488Y-87665000D01*
X126784309Y-87565515D01*
X126724064Y-87452804D01*
X126642988Y-87354012D01*
X126544196Y-87272936D01*
X126431485Y-87212691D01*
X126309187Y-87175592D01*
X126182001Y-87163065D01*
X125531999Y-87163065D01*
X125404813Y-87175592D01*
X125282515Y-87212691D01*
X125169804Y-87272936D01*
X125071012Y-87354012D01*
X124989936Y-87452804D01*
X124929691Y-87565515D01*
X124892592Y-87687813D01*
X124880065Y-87814999D01*
X124880065Y-88393407D01*
X124745236Y-88528236D01*
X124682000Y-88465000D01*
X124007000Y-88465000D01*
X124007000Y-88485000D01*
X123607000Y-88485000D01*
X123607000Y-88465000D01*
X122932000Y-88465000D01*
X122832000Y-88565000D01*
X122830065Y-88965000D01*
X122837788Y-89043414D01*
X122860660Y-89118814D01*
X122897803Y-89188303D01*
X122898375Y-89189000D01*
X120193527Y-89189000D01*
X121817527Y-87565000D01*
X122830065Y-87565000D01*
X122832000Y-87965000D01*
X122932000Y-88065000D01*
X123607000Y-88065000D01*
X123607000Y-87265000D01*
X124007000Y-87265000D01*
X124007000Y-88065000D01*
X124682000Y-88065000D01*
X124782000Y-87965000D01*
X124783935Y-87565000D01*
X124776212Y-87486586D01*
X124753340Y-87411186D01*
X124716197Y-87341697D01*
X124666211Y-87280789D01*
X124605303Y-87230803D01*
X124535814Y-87193660D01*
X124460414Y-87170788D01*
X124382000Y-87163065D01*
X124107000Y-87165000D01*
X124007000Y-87265000D01*
X123607000Y-87265000D01*
X123507000Y-87165000D01*
X123232000Y-87163065D01*
X123153586Y-87170788D01*
X123078186Y-87193660D01*
X123008697Y-87230803D01*
X122947789Y-87280789D01*
X122897803Y-87341697D01*
X122860660Y-87411186D01*
X122837788Y-87486586D01*
X122830065Y-87565000D01*
X121817527Y-87565000D01*
X125603593Y-83778935D01*
X126182001Y-83778935D01*
X126309187Y-83766408D01*
X126431485Y-83729309D01*
X126544196Y-83669064D01*
X126642988Y-83587988D01*
X126724064Y-83489196D01*
X126784309Y-83376485D01*
X126814488Y-83277000D01*
X127035065Y-83277000D01*
X127035065Y-83521500D01*
X127042788Y-83599914D01*
X127065660Y-83675314D01*
X127102803Y-83744803D01*
X127152789Y-83805711D01*
X127213697Y-83855697D01*
X127283186Y-83892840D01*
X127358586Y-83915712D01*
X127437000Y-83923435D01*
X128087000Y-83923435D01*
X128165414Y-83915712D01*
X128240814Y-83892840D01*
X128310303Y-83855697D01*
X128371211Y-83805711D01*
X128397000Y-83774287D01*
X128422789Y-83805711D01*
X128483697Y-83855697D01*
X128553186Y-83892840D01*
X128628586Y-83915712D01*
X128707000Y-83923435D01*
X129357000Y-83923435D01*
X129435414Y-83915712D01*
X129510814Y-83892840D01*
X129580303Y-83855697D01*
X129641211Y-83805711D01*
X129667000Y-83774287D01*
X129692789Y-83805711D01*
X129753697Y-83855697D01*
X129823186Y-83892840D01*
X129898586Y-83915712D01*
X129977000Y-83923435D01*
X130627000Y-83923435D01*
X130705414Y-83915712D01*
X130780814Y-83892840D01*
X130850303Y-83855697D01*
X130911211Y-83805711D01*
X130937000Y-83774287D01*
X130962789Y-83805711D01*
X131023697Y-83855697D01*
X131093186Y-83892840D01*
X131168586Y-83915712D01*
X131247000Y-83923435D01*
X131897000Y-83923435D01*
X131975414Y-83915712D01*
X132050814Y-83892840D01*
X132120303Y-83855697D01*
X132181211Y-83805711D01*
X132207000Y-83774287D01*
X132232789Y-83805711D01*
X132293697Y-83855697D01*
X132363186Y-83892840D01*
X132438586Y-83915712D01*
X132517000Y-83923435D01*
X132542000Y-83921500D01*
X132642000Y-83821500D01*
X132642000Y-82959000D01*
X132622000Y-82959000D01*
X132622000Y-82559000D01*
X132642000Y-82559000D01*
X132642000Y-81714461D01*
X132659961Y-81696500D01*
X133042000Y-81696500D01*
X133042000Y-82559000D01*
X133062000Y-82559000D01*
X133062000Y-82959000D01*
X133042000Y-82959000D01*
X133042000Y-83821500D01*
X133142000Y-83921500D01*
X133167000Y-83923435D01*
X133245414Y-83915712D01*
X133320814Y-83892840D01*
X133390303Y-83855697D01*
X133451211Y-83805711D01*
X133477000Y-83774287D01*
X133502789Y-83805711D01*
X133563697Y-83855697D01*
X133633186Y-83892840D01*
X133708586Y-83915712D01*
X133787000Y-83923435D01*
X134437000Y-83923435D01*
X134515414Y-83915712D01*
X134590814Y-83892840D01*
X134660303Y-83855697D01*
X134721211Y-83805711D01*
X134747000Y-83774287D01*
X134772789Y-83805711D01*
X134833697Y-83855697D01*
X134857000Y-83868153D01*
X134857001Y-85953210D01*
X134854461Y-85979000D01*
X134864597Y-86081917D01*
X134894617Y-86180880D01*
X134943367Y-86272085D01*
X134952822Y-86283606D01*
X135008974Y-86352027D01*
X135029005Y-86368466D01*
X135645534Y-86984995D01*
X135661973Y-87005027D01*
X135681471Y-87021029D01*
X135582000Y-87120500D01*
X135582000Y-87983000D01*
X136007000Y-87983000D01*
X136107000Y-87883000D01*
X136108935Y-87420500D01*
X136101212Y-87342086D01*
X136078340Y-87266686D01*
X136041197Y-87197197D01*
X136008120Y-87156892D01*
X136009212Y-87157000D01*
X136009219Y-87157000D01*
X136034999Y-87159539D01*
X136060779Y-87157000D01*
X136473680Y-87157000D01*
X136488691Y-87206485D01*
X136548936Y-87319196D01*
X136630012Y-87417988D01*
X136728804Y-87499064D01*
X136841515Y-87559309D01*
X136963813Y-87596408D01*
X137090999Y-87608935D01*
X137991001Y-87608935D01*
X138118187Y-87596408D01*
X138240485Y-87559309D01*
X138353196Y-87499064D01*
X138451988Y-87417988D01*
X138533064Y-87319196D01*
X138593309Y-87206485D01*
X138630408Y-87084187D01*
X138642935Y-86957001D01*
X138642935Y-86306999D01*
X138630408Y-86179813D01*
X138593309Y-86057515D01*
X138533064Y-85944804D01*
X138451988Y-85846012D01*
X138353196Y-85764936D01*
X138240485Y-85704691D01*
X138118187Y-85667592D01*
X137991001Y-85655065D01*
X137090999Y-85655065D01*
X136963813Y-85667592D01*
X136841515Y-85704691D01*
X136728804Y-85764936D01*
X136630012Y-85846012D01*
X136548936Y-85944804D01*
X136488691Y-86057515D01*
X136473680Y-86107000D01*
X136252462Y-86107000D01*
X135907000Y-85761539D01*
X135907000Y-83868153D01*
X135930303Y-83855697D01*
X135991211Y-83805711D01*
X136041197Y-83744803D01*
X136078340Y-83675314D01*
X136101212Y-83599914D01*
X136108935Y-83521500D01*
X136108935Y-81996500D01*
X136101212Y-81918086D01*
X136078340Y-81842686D01*
X136041197Y-81773197D01*
X135991211Y-81712289D01*
X135930303Y-81662303D01*
X135860814Y-81625160D01*
X135785414Y-81602288D01*
X135707000Y-81594565D01*
X135057000Y-81594565D01*
X134978586Y-81602288D01*
X134903186Y-81625160D01*
X134833697Y-81662303D01*
X134772789Y-81712289D01*
X134747000Y-81743713D01*
X134721211Y-81712289D01*
X134660303Y-81662303D01*
X134590814Y-81625160D01*
X134515414Y-81602288D01*
X134437000Y-81594565D01*
X133787000Y-81594565D01*
X133708586Y-81602288D01*
X133633186Y-81625160D01*
X133563697Y-81662303D01*
X133502789Y-81712289D01*
X133477000Y-81743713D01*
X133451211Y-81712289D01*
X133390303Y-81662303D01*
X133320814Y-81625160D01*
X133245414Y-81602288D01*
X133167000Y-81594565D01*
X133142000Y-81596500D01*
X133042000Y-81696500D01*
X132659961Y-81696500D01*
X133680291Y-80676170D01*
X133747389Y-80703963D01*
X133988886Y-80752000D01*
X134235114Y-80752000D01*
X134476611Y-80703963D01*
X134704097Y-80609735D01*
X134908828Y-80472938D01*
X135082938Y-80298828D01*
X135219735Y-80094097D01*
X135313963Y-79866611D01*
X135362000Y-79625114D01*
X135362000Y-79378886D01*
X135313963Y-79137389D01*
X135219735Y-78909903D01*
X135082938Y-78705172D01*
X134908828Y-78531062D01*
X134704097Y-78394265D01*
X134637000Y-78366472D01*
X134637000Y-76954528D01*
X134704097Y-76926735D01*
X134908828Y-76789938D01*
X135082938Y-76615828D01*
X135219735Y-76411097D01*
X135313963Y-76183611D01*
X135362000Y-75942114D01*
X135362000Y-75695886D01*
X135313963Y-75454389D01*
X135225646Y-75241173D01*
X135448183Y-75463710D01*
X135402000Y-75695886D01*
X135402000Y-75942114D01*
X135450037Y-76183611D01*
X135544265Y-76411097D01*
X135681062Y-76615828D01*
X135855172Y-76789938D01*
X136002000Y-76888046D01*
X136002001Y-78432954D01*
X135855172Y-78531062D01*
X135681062Y-78705172D01*
X135544265Y-78909903D01*
X135450037Y-79137389D01*
X135402000Y-79378886D01*
X135402000Y-79625114D01*
X135450037Y-79866611D01*
X135544265Y-80094097D01*
X135681062Y-80298828D01*
X135855172Y-80472938D01*
X136059903Y-80609735D01*
X136127000Y-80637528D01*
X136127000Y-81127220D01*
X136124461Y-81153000D01*
X136127000Y-81178780D01*
X136127000Y-81178787D01*
X136134597Y-81255917D01*
X136164617Y-81354880D01*
X136213367Y-81446086D01*
X136278973Y-81526027D01*
X136299009Y-81542470D01*
X137016001Y-82259464D01*
X137016000Y-83612452D01*
X136963813Y-83617592D01*
X136841515Y-83654691D01*
X136728804Y-83714936D01*
X136630012Y-83796012D01*
X136548936Y-83894804D01*
X136488691Y-84007515D01*
X136451592Y-84129813D01*
X136439065Y-84256999D01*
X136439065Y-84907001D01*
X136451592Y-85034187D01*
X136488691Y-85156485D01*
X136548936Y-85269196D01*
X136630012Y-85367988D01*
X136728804Y-85449064D01*
X136841515Y-85509309D01*
X136963813Y-85546408D01*
X137090999Y-85558935D01*
X137991001Y-85558935D01*
X138118187Y-85546408D01*
X138240485Y-85509309D01*
X138353196Y-85449064D01*
X138451988Y-85367988D01*
X138533064Y-85269196D01*
X138593309Y-85156485D01*
X138630408Y-85034187D01*
X138642935Y-84907001D01*
X138642935Y-84845562D01*
X141179582Y-84845562D01*
X141251192Y-85018469D01*
X141382559Y-85225325D01*
X141551758Y-85402578D01*
X141752286Y-85543416D01*
X141976437Y-85642427D01*
X142167000Y-85588905D01*
X142167000Y-84655000D01*
X142567000Y-84655000D01*
X142567000Y-85588905D01*
X142757563Y-85642427D01*
X142981714Y-85543416D01*
X143182242Y-85402578D01*
X143275386Y-85305000D01*
X145941065Y-85305000D01*
X145948788Y-85383414D01*
X145971660Y-85458814D01*
X146008803Y-85528303D01*
X146058789Y-85589211D01*
X146119697Y-85639197D01*
X146189186Y-85676340D01*
X146264586Y-85699212D01*
X146343000Y-85706935D01*
X146893000Y-85705000D01*
X146993000Y-85605000D01*
X146993000Y-84655000D01*
X147393000Y-84655000D01*
X147393000Y-85605000D01*
X147493000Y-85705000D01*
X148043000Y-85706935D01*
X148121414Y-85699212D01*
X148196814Y-85676340D01*
X148266303Y-85639197D01*
X148327211Y-85589211D01*
X148377197Y-85528303D01*
X148414340Y-85458814D01*
X148437212Y-85383414D01*
X148444935Y-85305000D01*
X148443000Y-84755000D01*
X148343000Y-84655000D01*
X147393000Y-84655000D01*
X146993000Y-84655000D01*
X146043000Y-84655000D01*
X145943000Y-84755000D01*
X145941065Y-85305000D01*
X143275386Y-85305000D01*
X143351441Y-85225325D01*
X143482808Y-85018469D01*
X143554418Y-84845562D01*
X143499475Y-84655000D01*
X142567000Y-84655000D01*
X142167000Y-84655000D01*
X141234525Y-84655000D01*
X141179582Y-84845562D01*
X138642935Y-84845562D01*
X138642935Y-84256999D01*
X138630408Y-84129813D01*
X138610577Y-84064438D01*
X141179582Y-84064438D01*
X141234525Y-84255000D01*
X142167000Y-84255000D01*
X142167000Y-83321095D01*
X142567000Y-83321095D01*
X142567000Y-84255000D01*
X143499475Y-84255000D01*
X143554418Y-84064438D01*
X143482808Y-83891531D01*
X143351441Y-83684675D01*
X143275387Y-83605000D01*
X145941065Y-83605000D01*
X145943000Y-84155000D01*
X146043000Y-84255000D01*
X146993000Y-84255000D01*
X146993000Y-83305000D01*
X146893000Y-83205000D01*
X146343000Y-83203065D01*
X146264586Y-83210788D01*
X146189186Y-83233660D01*
X146119697Y-83270803D01*
X146058789Y-83320789D01*
X146008803Y-83381697D01*
X145971660Y-83451186D01*
X145948788Y-83526586D01*
X145941065Y-83605000D01*
X143275387Y-83605000D01*
X143182242Y-83507422D01*
X142981714Y-83366584D01*
X142757563Y-83267573D01*
X142567000Y-83321095D01*
X142167000Y-83321095D01*
X141976437Y-83267573D01*
X141752286Y-83366584D01*
X141551758Y-83507422D01*
X141382559Y-83684675D01*
X141251192Y-83891531D01*
X141179582Y-84064438D01*
X138610577Y-84064438D01*
X138593309Y-84007515D01*
X138533064Y-83894804D01*
X138451988Y-83796012D01*
X138353196Y-83714936D01*
X138240485Y-83654691D01*
X138118187Y-83617592D01*
X138066000Y-83612452D01*
X138066000Y-82067780D01*
X138068539Y-82042000D01*
X138066000Y-82016220D01*
X138066000Y-82016212D01*
X138058403Y-81939082D01*
X138028383Y-81840119D01*
X137979633Y-81748914D01*
X137949576Y-81712289D01*
X137930466Y-81689003D01*
X137930462Y-81688999D01*
X137914027Y-81668973D01*
X137894001Y-81652538D01*
X137177000Y-80935539D01*
X137177000Y-80637528D01*
X137244097Y-80609735D01*
X137448828Y-80472938D01*
X137622938Y-80298828D01*
X137759735Y-80094097D01*
X137853963Y-79866611D01*
X137902000Y-79625114D01*
X137902000Y-79378886D01*
X137942000Y-79378886D01*
X137942000Y-79625114D01*
X137990037Y-79866611D01*
X138084265Y-80094097D01*
X138221062Y-80298828D01*
X138395172Y-80472938D01*
X138599903Y-80609735D01*
X138827389Y-80703963D01*
X139068886Y-80752000D01*
X139315114Y-80752000D01*
X139556611Y-80703963D01*
X139784097Y-80609735D01*
X139988828Y-80472938D01*
X140162938Y-80298828D01*
X140299735Y-80094097D01*
X140383213Y-79892563D01*
X140544573Y-79892563D01*
X140643584Y-80116714D01*
X140784422Y-80317242D01*
X140961675Y-80486441D01*
X141168531Y-80617808D01*
X141341438Y-80689418D01*
X141532000Y-80634475D01*
X141532000Y-79702000D01*
X141932000Y-79702000D01*
X141932000Y-80634475D01*
X142122562Y-80689418D01*
X142295469Y-80617808D01*
X142502325Y-80486441D01*
X142679578Y-80317242D01*
X142820416Y-80116714D01*
X142919427Y-79892563D01*
X142865905Y-79702000D01*
X141932000Y-79702000D01*
X141532000Y-79702000D01*
X140598095Y-79702000D01*
X140544573Y-79892563D01*
X140383213Y-79892563D01*
X140393963Y-79866611D01*
X140442000Y-79625114D01*
X140442000Y-79378886D01*
X140393963Y-79137389D01*
X140383214Y-79111437D01*
X140544573Y-79111437D01*
X140598095Y-79302000D01*
X141532000Y-79302000D01*
X141532000Y-78369525D01*
X141932000Y-78369525D01*
X141932000Y-79302000D01*
X142865905Y-79302000D01*
X142919427Y-79111437D01*
X142820416Y-78887286D01*
X142679578Y-78686758D01*
X142502325Y-78517559D01*
X142295469Y-78386192D01*
X142122562Y-78314582D01*
X141932000Y-78369525D01*
X141532000Y-78369525D01*
X141341438Y-78314582D01*
X141168531Y-78386192D01*
X140961675Y-78517559D01*
X140784422Y-78686758D01*
X140643584Y-78887286D01*
X140544573Y-79111437D01*
X140383214Y-79111437D01*
X140299735Y-78909903D01*
X140162938Y-78705172D01*
X139988828Y-78531062D01*
X139784097Y-78394265D01*
X139556611Y-78300037D01*
X139315114Y-78252000D01*
X139068886Y-78252000D01*
X138827389Y-78300037D01*
X138599903Y-78394265D01*
X138395172Y-78531062D01*
X138221062Y-78705172D01*
X138084265Y-78909903D01*
X137990037Y-79137389D01*
X137942000Y-79378886D01*
X137902000Y-79378886D01*
X137853963Y-79137389D01*
X137759735Y-78909903D01*
X137622938Y-78705172D01*
X137448828Y-78531062D01*
X137302000Y-78432955D01*
X137302000Y-76888045D01*
X137448828Y-76789938D01*
X137622938Y-76615828D01*
X137759735Y-76411097D01*
X137853963Y-76183611D01*
X137902000Y-75942114D01*
X137902000Y-75695886D01*
X137867549Y-75522690D01*
X138028353Y-75361885D01*
X137990037Y-75454389D01*
X137942000Y-75695886D01*
X137942000Y-75942114D01*
X137990037Y-76183611D01*
X138084265Y-76411097D01*
X138221062Y-76615828D01*
X138395172Y-76789938D01*
X138599903Y-76926735D01*
X138827389Y-77020963D01*
X139068886Y-77069000D01*
X139315114Y-77069000D01*
X139556611Y-77020963D01*
X139784097Y-76926735D01*
X139988828Y-76789938D01*
X140162938Y-76615828D01*
X140299735Y-76411097D01*
X140383213Y-76209563D01*
X140544573Y-76209563D01*
X140643584Y-76433714D01*
X140784422Y-76634242D01*
X140961675Y-76803441D01*
X141168531Y-76934808D01*
X141341438Y-77006418D01*
X141532000Y-76951475D01*
X141532000Y-76019000D01*
X141932000Y-76019000D01*
X141932000Y-76951475D01*
X142122562Y-77006418D01*
X142295469Y-76934808D01*
X142502325Y-76803441D01*
X142679578Y-76634242D01*
X142820416Y-76433714D01*
X142919427Y-76209563D01*
X142865905Y-76019000D01*
X141932000Y-76019000D01*
X141532000Y-76019000D01*
X140598095Y-76019000D01*
X140544573Y-76209563D01*
X140383213Y-76209563D01*
X140393963Y-76183611D01*
X140442000Y-75942114D01*
X140442000Y-75695886D01*
X140393963Y-75454389D01*
X140299735Y-75226903D01*
X140162938Y-75022172D01*
X140085766Y-74945000D01*
X140845977Y-74945000D01*
X140784422Y-75003758D01*
G37*
X140784422Y-75003758D02*
X140643584Y-75204286D01*
X140544573Y-75428437D01*
X140598095Y-75619000D01*
X141532000Y-75619000D01*
X141532000Y-75599000D01*
X141932000Y-75599000D01*
X141932000Y-75619000D01*
X142865905Y-75619000D01*
X142919427Y-75428437D01*
X142820416Y-75204286D01*
X142679578Y-75003758D01*
X142618023Y-74945000D01*
X143378234Y-74945000D01*
X143301062Y-75022172D01*
X143164265Y-75226903D01*
X143070037Y-75454389D01*
X143022000Y-75695886D01*
X143022000Y-75942114D01*
X143070037Y-76183611D01*
X143164265Y-76411097D01*
X143301062Y-76615828D01*
X143475172Y-76789938D01*
X143622000Y-76888046D01*
X143622001Y-78432954D01*
X143475172Y-78531062D01*
X143301062Y-78705172D01*
X143164265Y-78909903D01*
X143070037Y-79137389D01*
X143022000Y-79378886D01*
X143022000Y-79625114D01*
X143070037Y-79866611D01*
X143164265Y-80094097D01*
X143301062Y-80298828D01*
X143475172Y-80472938D01*
X143622001Y-80571046D01*
X143622001Y-80994069D01*
X143618856Y-81026000D01*
X143631406Y-81153422D01*
X143668573Y-81275947D01*
X143728930Y-81388868D01*
X143789802Y-81463040D01*
X143789805Y-81463043D01*
X143810158Y-81487843D01*
X143834958Y-81508196D01*
X144551800Y-82225038D01*
X144572157Y-82249843D01*
X144671132Y-82331070D01*
X144784052Y-82391427D01*
X144906578Y-82428595D01*
X145002068Y-82438000D01*
X145002076Y-82438000D01*
X145034000Y-82441144D01*
X145065924Y-82438000D01*
X147431762Y-82438000D01*
X148262569Y-83268807D01*
X148196814Y-83233660D01*
X148121414Y-83210788D01*
X148043000Y-83203065D01*
X147493000Y-83205000D01*
X147393000Y-83305000D01*
X147393000Y-84255000D01*
X148343000Y-84255000D01*
X148443000Y-84155000D01*
X148444935Y-83605000D01*
X148437212Y-83526586D01*
X148414340Y-83451186D01*
X148379193Y-83385431D01*
X148829000Y-83835238D01*
X148829001Y-92966207D01*
X148815996Y-92955534D01*
X148367170Y-92506709D01*
X148394963Y-92439611D01*
X148443000Y-92198114D01*
X148443000Y-91951886D01*
X148394963Y-91710389D01*
X148300735Y-91482903D01*
X148163938Y-91278172D01*
X147989828Y-91104062D01*
X147785097Y-90967265D01*
X147557611Y-90873037D01*
X147316114Y-90825000D01*
X147069886Y-90825000D01*
X146828389Y-90873037D01*
X146600903Y-90967265D01*
X146396172Y-91104062D01*
X146222062Y-91278172D01*
X146085265Y-91482903D01*
X145991037Y-91710389D01*
X145943000Y-91951886D01*
X145943000Y-92198114D01*
X145991037Y-92439611D01*
X146085265Y-92667097D01*
X146222062Y-92871828D01*
X146396172Y-93045938D01*
X146600903Y-93182735D01*
X146828389Y-93276963D01*
X147069886Y-93325000D01*
X147316114Y-93325000D01*
X147557611Y-93276963D01*
X147624709Y-93249170D01*
X147938001Y-93562463D01*
X147938001Y-93618089D01*
X147807714Y-93526584D01*
X147583563Y-93427573D01*
X147393000Y-93481095D01*
X147393000Y-94415000D01*
X147413000Y-94415000D01*
X147413000Y-94815000D01*
X147393000Y-94815000D01*
X147393000Y-95748905D01*
X147583563Y-95802427D01*
X147807714Y-95703416D01*
X147938001Y-95611911D01*
X147938000Y-96149432D01*
X147785097Y-96047265D01*
X147557611Y-95953037D01*
X147316114Y-95905000D01*
X147069886Y-95905000D01*
X146828389Y-95953037D01*
X146600903Y-96047265D01*
X146396172Y-96184062D01*
X146222062Y-96358172D01*
X146085265Y-96562903D01*
X145991037Y-96790389D01*
X145943000Y-97031886D01*
X145943000Y-97278114D01*
X145991037Y-97519611D01*
X146018830Y-97586709D01*
X145371539Y-98234000D01*
X144769935Y-98234000D01*
X144769935Y-98009000D01*
X144762212Y-97930586D01*
X144739340Y-97855186D01*
X144702197Y-97785697D01*
X144680287Y-97759000D01*
X144702197Y-97732303D01*
X144739340Y-97662814D01*
X144762212Y-97587414D01*
X144769935Y-97509000D01*
X144769935Y-96009000D01*
X144762212Y-95930586D01*
X144739340Y-95855186D01*
X144702197Y-95785697D01*
X144680287Y-95759000D01*
X144702197Y-95732303D01*
X144739340Y-95662814D01*
X144762212Y-95587414D01*
X144769935Y-95509000D01*
X144769935Y-95005562D01*
X146005582Y-95005562D01*
X146077192Y-95178469D01*
X146208559Y-95385325D01*
X146377758Y-95562578D01*
X146578286Y-95703416D01*
X146802437Y-95802427D01*
X146993000Y-95748905D01*
X146993000Y-94815000D01*
X146060525Y-94815000D01*
X146005582Y-95005562D01*
X144769935Y-95005562D01*
X144769935Y-94224438D01*
X146005582Y-94224438D01*
X146060525Y-94415000D01*
X146993000Y-94415000D01*
X146993000Y-93481095D01*
X146802437Y-93427573D01*
X146578286Y-93526584D01*
X146377758Y-93667422D01*
X146208559Y-93844675D01*
X146077192Y-94051531D01*
X146005582Y-94224438D01*
X144769935Y-94224438D01*
X144769935Y-94009000D01*
X144762212Y-93930586D01*
X144739340Y-93855186D01*
X144702197Y-93785697D01*
X144652211Y-93724789D01*
X144591303Y-93674803D01*
X144521814Y-93637660D01*
X144446414Y-93614788D01*
X144368000Y-93607065D01*
X141568000Y-93607065D01*
X141489586Y-93614788D01*
X141450293Y-93626707D01*
X141462212Y-93587414D01*
X141469935Y-93509000D01*
X141469935Y-93282508D01*
X141531918Y-93276403D01*
X141630881Y-93246383D01*
X141722086Y-93197633D01*
X141802027Y-93132027D01*
X141818471Y-93111990D01*
X145518575Y-89411886D01*
X145943000Y-89411886D01*
X145943000Y-89658114D01*
X145991037Y-89899611D01*
X146085265Y-90127097D01*
X146222062Y-90331828D01*
X146396172Y-90505938D01*
X146600903Y-90642735D01*
X146828389Y-90736963D01*
X147069886Y-90785000D01*
X147316114Y-90785000D01*
X147557611Y-90736963D01*
X147785097Y-90642735D01*
X147989828Y-90505938D01*
X148163938Y-90331828D01*
X148300735Y-90127097D01*
X148394963Y-89899611D01*
X148443000Y-89658114D01*
X148443000Y-89411886D01*
X148394963Y-89170389D01*
X148300735Y-88942903D01*
X148163938Y-88738172D01*
X147989828Y-88564062D01*
X147785097Y-88427265D01*
X147557611Y-88333037D01*
X147316114Y-88285000D01*
X147069886Y-88285000D01*
X146828389Y-88333037D01*
X146600903Y-88427265D01*
X146396172Y-88564062D01*
X146222062Y-88738172D01*
X146085265Y-88942903D01*
X145991037Y-89170389D01*
X145943000Y-89411886D01*
X145518575Y-89411886D01*
X146761292Y-88169170D01*
X146828389Y-88196963D01*
X147069886Y-88245000D01*
X147316114Y-88245000D01*
X147557611Y-88196963D01*
X147785097Y-88102735D01*
X147989828Y-87965938D01*
X148163938Y-87791828D01*
X148300735Y-87587097D01*
X148394963Y-87359611D01*
X148443000Y-87118114D01*
X148443000Y-86871886D01*
X148394963Y-86630389D01*
X148300735Y-86402903D01*
X148163938Y-86198172D01*
X147989828Y-86024062D01*
X147785097Y-85887265D01*
X147557611Y-85793037D01*
X147316114Y-85745000D01*
X147069886Y-85745000D01*
X146828389Y-85793037D01*
X146600903Y-85887265D01*
X146396172Y-86024062D01*
X146222062Y-86198172D01*
X146085265Y-86402903D01*
X145991037Y-86630389D01*
X145943000Y-86871886D01*
X145943000Y-87118114D01*
X145991037Y-87359611D01*
X146018830Y-87426708D01*
X143133806Y-90311732D01*
X143075951Y-90172058D01*
X142988401Y-90041030D01*
X142892000Y-89944629D01*
X142892000Y-88246935D01*
X143217000Y-88246935D01*
X143295414Y-88239212D01*
X143370814Y-88216340D01*
X143440303Y-88179197D01*
X143501211Y-88129211D01*
X143551197Y-88068303D01*
X143588340Y-87998814D01*
X143611212Y-87923414D01*
X143618935Y-87845000D01*
X143618935Y-86145000D01*
X143611212Y-86066586D01*
X143588340Y-85991186D01*
X143551197Y-85921697D01*
X143501211Y-85860789D01*
X143440303Y-85810803D01*
X143370814Y-85773660D01*
X143295414Y-85750788D01*
X143217000Y-85743065D01*
X141517000Y-85743065D01*
X141438586Y-85750788D01*
X141363186Y-85773660D01*
X141293697Y-85810803D01*
X141232789Y-85860789D01*
X141182803Y-85921697D01*
X141145660Y-85991186D01*
X141122788Y-86066586D01*
X141115065Y-86145000D01*
X141115065Y-87845000D01*
X141122788Y-87923414D01*
X141145660Y-87998814D01*
X141182803Y-88068303D01*
X141232789Y-88129211D01*
X141293697Y-88179197D01*
X141363186Y-88216340D01*
X141438586Y-88239212D01*
X141517000Y-88246935D01*
X141842000Y-88246935D01*
X141842001Y-89944628D01*
X141745599Y-90041030D01*
X141658049Y-90172058D01*
X141597743Y-90317649D01*
X141567000Y-90472207D01*
X141567000Y-90629793D01*
X141597743Y-90784351D01*
X141658049Y-90929942D01*
X141745599Y-91060970D01*
X141857030Y-91172401D01*
X141988058Y-91259951D01*
X142127733Y-91317806D01*
X141469935Y-91975604D01*
X141469935Y-90709000D01*
X141462212Y-90630586D01*
X141439340Y-90555186D01*
X141402197Y-90485697D01*
X141352211Y-90424789D01*
X141291303Y-90374803D01*
X141221814Y-90337660D01*
X141146414Y-90314788D01*
X141068000Y-90307065D01*
X139568000Y-90307065D01*
X139489586Y-90314788D01*
X139414186Y-90337660D01*
X139344697Y-90374803D01*
X139318000Y-90396713D01*
X139291303Y-90374803D01*
X139221814Y-90337660D01*
X139146414Y-90314788D01*
X139068000Y-90307065D01*
X137568000Y-90307065D01*
X137489586Y-90314788D01*
X137414186Y-90337660D01*
X137344697Y-90374803D01*
X137318000Y-90396713D01*
X137291303Y-90374803D01*
X137221814Y-90337660D01*
X137146414Y-90314788D01*
X137068000Y-90307065D01*
X135568000Y-90307065D01*
X135489586Y-90314788D01*
X135414186Y-90337660D01*
X135344697Y-90374803D01*
X135318000Y-90396713D01*
X135291303Y-90374803D01*
X135221814Y-90337660D01*
X135146414Y-90314788D01*
X135068000Y-90307065D01*
X133568000Y-90307065D01*
X133489586Y-90314788D01*
X133414186Y-90337660D01*
X133344697Y-90374803D01*
X133318000Y-90396713D01*
X133291303Y-90374803D01*
X133221814Y-90337660D01*
X133146414Y-90314788D01*
X133068000Y-90307065D01*
X132816742Y-90307065D01*
X132805383Y-90269619D01*
X132756633Y-90178414D01*
X132691027Y-90098473D01*
X132670995Y-90082034D01*
X132097000Y-89508039D01*
X132097000Y-89292153D01*
X132120303Y-89279697D01*
X132181211Y-89229711D01*
X132207000Y-89198287D01*
X132232789Y-89229711D01*
X132293697Y-89279697D01*
X132363186Y-89316840D01*
X132438586Y-89339712D01*
X132517000Y-89347435D01*
X132542000Y-89345500D01*
X132642000Y-89245500D01*
X132642000Y-88383000D01*
X132622000Y-88383000D01*
X132622000Y-87983000D01*
X132642000Y-87983000D01*
X132642000Y-87120500D01*
X133042000Y-87120500D01*
X133042000Y-87983000D01*
X133062000Y-87983000D01*
X133062000Y-88383000D01*
X133042000Y-88383000D01*
X133042000Y-89245500D01*
X133142000Y-89345500D01*
X133167000Y-89347435D01*
X133245414Y-89339712D01*
X133320814Y-89316840D01*
X133390303Y-89279697D01*
X133451211Y-89229711D01*
X133477000Y-89198287D01*
X133502789Y-89229711D01*
X133563697Y-89279697D01*
X133633186Y-89316840D01*
X133708586Y-89339712D01*
X133787000Y-89347435D01*
X134437000Y-89347435D01*
X134515414Y-89339712D01*
X134590814Y-89316840D01*
X134660303Y-89279697D01*
X134721211Y-89229711D01*
X134747000Y-89198287D01*
X134772789Y-89229711D01*
X134833697Y-89279697D01*
X134903186Y-89316840D01*
X134978586Y-89339712D01*
X135057000Y-89347435D01*
X135082000Y-89345500D01*
X135182000Y-89245500D01*
X135182000Y-88383000D01*
X135582000Y-88383000D01*
X135582000Y-89245500D01*
X135682000Y-89345500D01*
X135707000Y-89347435D01*
X135785414Y-89339712D01*
X135860814Y-89316840D01*
X135930303Y-89279697D01*
X135991211Y-89229711D01*
X136041197Y-89168803D01*
X136078340Y-89099314D01*
X136101212Y-89023914D01*
X136108935Y-88945500D01*
X136107000Y-88483000D01*
X136007000Y-88383000D01*
X135582000Y-88383000D01*
X135182000Y-88383000D01*
X135162000Y-88383000D01*
X135162000Y-87983000D01*
X135182000Y-87983000D01*
X135182000Y-87120500D01*
X135082000Y-87020500D01*
X135057000Y-87018565D01*
X134978586Y-87026288D01*
X134903186Y-87049160D01*
X134833697Y-87086303D01*
X134772789Y-87136289D01*
X134747000Y-87167713D01*
X134721211Y-87136289D01*
X134660303Y-87086303D01*
X134590814Y-87049160D01*
X134515414Y-87026288D01*
X134437000Y-87018565D01*
X133787000Y-87018565D01*
X133708586Y-87026288D01*
X133633186Y-87049160D01*
X133563697Y-87086303D01*
X133502789Y-87136289D01*
X133477000Y-87167713D01*
X133451211Y-87136289D01*
X133390303Y-87086303D01*
X133320814Y-87049160D01*
X133245414Y-87026288D01*
X133167000Y-87018565D01*
X133142000Y-87020500D01*
X133042000Y-87120500D01*
X132642000Y-87120500D01*
X132542000Y-87020500D01*
X132517000Y-87018565D01*
X132438586Y-87026288D01*
X132363186Y-87049160D01*
X132293697Y-87086303D01*
X132232789Y-87136289D01*
X132207000Y-87167713D01*
X132181211Y-87136289D01*
X132120303Y-87086303D01*
X132050814Y-87049160D01*
X131975414Y-87026288D01*
X131897000Y-87018565D01*
X131247000Y-87018565D01*
X131168586Y-87026288D01*
X131093186Y-87049160D01*
X131023697Y-87086303D01*
X130962789Y-87136289D01*
X130937000Y-87167713D01*
X130911211Y-87136289D01*
X130850303Y-87086303D01*
X130819632Y-87069909D01*
X130819403Y-87067582D01*
X130789383Y-86968619D01*
X130740633Y-86877414D01*
X130675027Y-86797473D01*
X130654995Y-86781034D01*
X130007971Y-86134010D01*
X129991527Y-86113973D01*
X129911586Y-86048367D01*
X129820381Y-85999617D01*
X129721418Y-85969597D01*
X129644288Y-85962000D01*
X129644280Y-85962000D01*
X129618500Y-85959461D01*
X129592720Y-85962000D01*
X129003371Y-85962000D01*
X128906970Y-85865599D01*
X128775942Y-85778049D01*
X128630351Y-85717743D01*
X128475793Y-85687000D01*
X128318207Y-85687000D01*
X128163649Y-85717743D01*
X128018058Y-85778049D01*
X127887030Y-85865599D01*
X127775599Y-85977030D01*
X127688049Y-86108058D01*
X127627743Y-86253649D01*
X127597000Y-86408207D01*
X127597000Y-86565793D01*
X127627743Y-86720351D01*
X127688049Y-86865942D01*
X127775599Y-86996970D01*
X127797194Y-87018565D01*
X127437000Y-87018565D01*
X127358586Y-87026288D01*
X127283186Y-87049160D01*
X127213697Y-87086303D01*
X127152789Y-87136289D01*
X127102803Y-87197197D01*
X127065660Y-87266686D01*
X127042788Y-87342086D01*
X127035065Y-87420500D01*
X127035065Y-87665000D01*
X126814488Y-87665000D01*
X126784309Y-87565515D01*
X126724064Y-87452804D01*
X126642988Y-87354012D01*
X126544196Y-87272936D01*
X126431485Y-87212691D01*
X126309187Y-87175592D01*
X126182001Y-87163065D01*
X125531999Y-87163065D01*
X125404813Y-87175592D01*
X125282515Y-87212691D01*
X125169804Y-87272936D01*
X125071012Y-87354012D01*
X124989936Y-87452804D01*
X124929691Y-87565515D01*
X124892592Y-87687813D01*
X124880065Y-87814999D01*
X124880065Y-88393407D01*
X124745236Y-88528236D01*
X124682000Y-88465000D01*
X124007000Y-88465000D01*
X124007000Y-88485000D01*
X123607000Y-88485000D01*
X123607000Y-88465000D01*
X122932000Y-88465000D01*
X122832000Y-88565000D01*
X122830065Y-88965000D01*
X122837788Y-89043414D01*
X122860660Y-89118814D01*
X122897803Y-89188303D01*
X122898375Y-89189000D01*
X120193527Y-89189000D01*
X121817527Y-87565000D01*
X122830065Y-87565000D01*
X122832000Y-87965000D01*
X122932000Y-88065000D01*
X123607000Y-88065000D01*
X123607000Y-87265000D01*
X124007000Y-87265000D01*
X124007000Y-88065000D01*
X124682000Y-88065000D01*
X124782000Y-87965000D01*
X124783935Y-87565000D01*
X124776212Y-87486586D01*
X124753340Y-87411186D01*
X124716197Y-87341697D01*
X124666211Y-87280789D01*
X124605303Y-87230803D01*
X124535814Y-87193660D01*
X124460414Y-87170788D01*
X124382000Y-87163065D01*
X124107000Y-87165000D01*
X124007000Y-87265000D01*
X123607000Y-87265000D01*
X123507000Y-87165000D01*
X123232000Y-87163065D01*
X123153586Y-87170788D01*
X123078186Y-87193660D01*
X123008697Y-87230803D01*
X122947789Y-87280789D01*
X122897803Y-87341697D01*
X122860660Y-87411186D01*
X122837788Y-87486586D01*
X122830065Y-87565000D01*
X121817527Y-87565000D01*
X125603593Y-83778935D01*
X126182001Y-83778935D01*
X126309187Y-83766408D01*
X126431485Y-83729309D01*
X126544196Y-83669064D01*
X126642988Y-83587988D01*
X126724064Y-83489196D01*
X126784309Y-83376485D01*
X126814488Y-83277000D01*
X127035065Y-83277000D01*
X127035065Y-83521500D01*
X127042788Y-83599914D01*
X127065660Y-83675314D01*
X127102803Y-83744803D01*
X127152789Y-83805711D01*
X127213697Y-83855697D01*
X127283186Y-83892840D01*
X127358586Y-83915712D01*
X127437000Y-83923435D01*
X128087000Y-83923435D01*
X128165414Y-83915712D01*
X128240814Y-83892840D01*
X128310303Y-83855697D01*
X128371211Y-83805711D01*
X128397000Y-83774287D01*
X128422789Y-83805711D01*
X128483697Y-83855697D01*
X128553186Y-83892840D01*
X128628586Y-83915712D01*
X128707000Y-83923435D01*
X129357000Y-83923435D01*
X129435414Y-83915712D01*
X129510814Y-83892840D01*
X129580303Y-83855697D01*
X129641211Y-83805711D01*
X129667000Y-83774287D01*
X129692789Y-83805711D01*
X129753697Y-83855697D01*
X129823186Y-83892840D01*
X129898586Y-83915712D01*
X129977000Y-83923435D01*
X130627000Y-83923435D01*
X130705414Y-83915712D01*
X130780814Y-83892840D01*
X130850303Y-83855697D01*
X130911211Y-83805711D01*
X130937000Y-83774287D01*
X130962789Y-83805711D01*
X131023697Y-83855697D01*
X131093186Y-83892840D01*
X131168586Y-83915712D01*
X131247000Y-83923435D01*
X131897000Y-83923435D01*
X131975414Y-83915712D01*
X132050814Y-83892840D01*
X132120303Y-83855697D01*
X132181211Y-83805711D01*
X132207000Y-83774287D01*
X132232789Y-83805711D01*
X132293697Y-83855697D01*
X132363186Y-83892840D01*
X132438586Y-83915712D01*
X132517000Y-83923435D01*
X132542000Y-83921500D01*
X132642000Y-83821500D01*
X132642000Y-82959000D01*
X132622000Y-82959000D01*
X132622000Y-82559000D01*
X132642000Y-82559000D01*
X132642000Y-81714461D01*
X132659961Y-81696500D01*
X133042000Y-81696500D01*
X133042000Y-82559000D01*
X133062000Y-82559000D01*
X133062000Y-82959000D01*
X133042000Y-82959000D01*
X133042000Y-83821500D01*
X133142000Y-83921500D01*
X133167000Y-83923435D01*
X133245414Y-83915712D01*
X133320814Y-83892840D01*
X133390303Y-83855697D01*
X133451211Y-83805711D01*
X133477000Y-83774287D01*
X133502789Y-83805711D01*
X133563697Y-83855697D01*
X133633186Y-83892840D01*
X133708586Y-83915712D01*
X133787000Y-83923435D01*
X134437000Y-83923435D01*
X134515414Y-83915712D01*
X134590814Y-83892840D01*
X134660303Y-83855697D01*
X134721211Y-83805711D01*
X134747000Y-83774287D01*
X134772789Y-83805711D01*
X134833697Y-83855697D01*
X134857000Y-83868153D01*
X134857001Y-85953210D01*
X134854461Y-85979000D01*
X134864597Y-86081917D01*
X134894617Y-86180880D01*
X134943367Y-86272085D01*
X134952822Y-86283606D01*
X135008974Y-86352027D01*
X135029005Y-86368466D01*
X135645534Y-86984995D01*
X135661973Y-87005027D01*
X135681471Y-87021029D01*
X135582000Y-87120500D01*
X135582000Y-87983000D01*
X136007000Y-87983000D01*
X136107000Y-87883000D01*
X136108935Y-87420500D01*
X136101212Y-87342086D01*
X136078340Y-87266686D01*
X136041197Y-87197197D01*
X136008120Y-87156892D01*
X136009212Y-87157000D01*
X136009219Y-87157000D01*
X136034999Y-87159539D01*
X136060779Y-87157000D01*
X136473680Y-87157000D01*
X136488691Y-87206485D01*
X136548936Y-87319196D01*
X136630012Y-87417988D01*
X136728804Y-87499064D01*
X136841515Y-87559309D01*
X136963813Y-87596408D01*
X137090999Y-87608935D01*
X137991001Y-87608935D01*
X138118187Y-87596408D01*
X138240485Y-87559309D01*
X138353196Y-87499064D01*
X138451988Y-87417988D01*
X138533064Y-87319196D01*
X138593309Y-87206485D01*
X138630408Y-87084187D01*
X138642935Y-86957001D01*
X138642935Y-86306999D01*
X138630408Y-86179813D01*
X138593309Y-86057515D01*
X138533064Y-85944804D01*
X138451988Y-85846012D01*
X138353196Y-85764936D01*
X138240485Y-85704691D01*
X138118187Y-85667592D01*
X137991001Y-85655065D01*
X137090999Y-85655065D01*
X136963813Y-85667592D01*
X136841515Y-85704691D01*
X136728804Y-85764936D01*
X136630012Y-85846012D01*
X136548936Y-85944804D01*
X136488691Y-86057515D01*
X136473680Y-86107000D01*
X136252462Y-86107000D01*
X135907000Y-85761539D01*
X135907000Y-83868153D01*
X135930303Y-83855697D01*
X135991211Y-83805711D01*
X136041197Y-83744803D01*
X136078340Y-83675314D01*
X136101212Y-83599914D01*
X136108935Y-83521500D01*
X136108935Y-81996500D01*
X136101212Y-81918086D01*
X136078340Y-81842686D01*
X136041197Y-81773197D01*
X135991211Y-81712289D01*
X135930303Y-81662303D01*
X135860814Y-81625160D01*
X135785414Y-81602288D01*
X135707000Y-81594565D01*
X135057000Y-81594565D01*
X134978586Y-81602288D01*
X134903186Y-81625160D01*
X134833697Y-81662303D01*
X134772789Y-81712289D01*
X134747000Y-81743713D01*
X134721211Y-81712289D01*
X134660303Y-81662303D01*
X134590814Y-81625160D01*
X134515414Y-81602288D01*
X134437000Y-81594565D01*
X133787000Y-81594565D01*
X133708586Y-81602288D01*
X133633186Y-81625160D01*
X133563697Y-81662303D01*
X133502789Y-81712289D01*
X133477000Y-81743713D01*
X133451211Y-81712289D01*
X133390303Y-81662303D01*
X133320814Y-81625160D01*
X133245414Y-81602288D01*
X133167000Y-81594565D01*
X133142000Y-81596500D01*
X133042000Y-81696500D01*
X132659961Y-81696500D01*
X133680291Y-80676170D01*
X133747389Y-80703963D01*
X133988886Y-80752000D01*
X134235114Y-80752000D01*
X134476611Y-80703963D01*
X134704097Y-80609735D01*
X134908828Y-80472938D01*
X135082938Y-80298828D01*
X135219735Y-80094097D01*
X135313963Y-79866611D01*
X135362000Y-79625114D01*
X135362000Y-79378886D01*
X135313963Y-79137389D01*
X135219735Y-78909903D01*
X135082938Y-78705172D01*
X134908828Y-78531062D01*
X134704097Y-78394265D01*
X134637000Y-78366472D01*
X134637000Y-76954528D01*
X134704097Y-76926735D01*
X134908828Y-76789938D01*
X135082938Y-76615828D01*
X135219735Y-76411097D01*
X135313963Y-76183611D01*
X135362000Y-75942114D01*
X135362000Y-75695886D01*
X135313963Y-75454389D01*
X135225646Y-75241173D01*
X135448183Y-75463710D01*
X135402000Y-75695886D01*
X135402000Y-75942114D01*
X135450037Y-76183611D01*
X135544265Y-76411097D01*
X135681062Y-76615828D01*
X135855172Y-76789938D01*
X136002000Y-76888046D01*
X136002001Y-78432954D01*
X135855172Y-78531062D01*
X135681062Y-78705172D01*
X135544265Y-78909903D01*
X135450037Y-79137389D01*
X135402000Y-79378886D01*
X135402000Y-79625114D01*
X135450037Y-79866611D01*
X135544265Y-80094097D01*
X135681062Y-80298828D01*
X135855172Y-80472938D01*
X136059903Y-80609735D01*
X136127000Y-80637528D01*
X136127000Y-81127220D01*
X136124461Y-81153000D01*
X136127000Y-81178780D01*
X136127000Y-81178787D01*
X136134597Y-81255917D01*
X136164617Y-81354880D01*
X136213367Y-81446086D01*
X136278973Y-81526027D01*
X136299009Y-81542470D01*
X137016001Y-82259464D01*
X137016000Y-83612452D01*
X136963813Y-83617592D01*
X136841515Y-83654691D01*
X136728804Y-83714936D01*
X136630012Y-83796012D01*
X136548936Y-83894804D01*
X136488691Y-84007515D01*
X136451592Y-84129813D01*
X136439065Y-84256999D01*
X136439065Y-84907001D01*
X136451592Y-85034187D01*
X136488691Y-85156485D01*
X136548936Y-85269196D01*
X136630012Y-85367988D01*
X136728804Y-85449064D01*
X136841515Y-85509309D01*
X136963813Y-85546408D01*
X137090999Y-85558935D01*
X137991001Y-85558935D01*
X138118187Y-85546408D01*
X138240485Y-85509309D01*
X138353196Y-85449064D01*
X138451988Y-85367988D01*
X138533064Y-85269196D01*
X138593309Y-85156485D01*
X138630408Y-85034187D01*
X138642935Y-84907001D01*
X138642935Y-84845562D01*
X141179582Y-84845562D01*
X141251192Y-85018469D01*
X141382559Y-85225325D01*
X141551758Y-85402578D01*
X141752286Y-85543416D01*
X141976437Y-85642427D01*
X142167000Y-85588905D01*
X142167000Y-84655000D01*
X142567000Y-84655000D01*
X142567000Y-85588905D01*
X142757563Y-85642427D01*
X142981714Y-85543416D01*
X143182242Y-85402578D01*
X143275386Y-85305000D01*
X145941065Y-85305000D01*
X145948788Y-85383414D01*
X145971660Y-85458814D01*
X146008803Y-85528303D01*
X146058789Y-85589211D01*
X146119697Y-85639197D01*
X146189186Y-85676340D01*
X146264586Y-85699212D01*
X146343000Y-85706935D01*
X146893000Y-85705000D01*
X146993000Y-85605000D01*
X146993000Y-84655000D01*
X147393000Y-84655000D01*
X147393000Y-85605000D01*
X147493000Y-85705000D01*
X148043000Y-85706935D01*
X148121414Y-85699212D01*
X148196814Y-85676340D01*
X148266303Y-85639197D01*
X148327211Y-85589211D01*
X148377197Y-85528303D01*
X148414340Y-85458814D01*
X148437212Y-85383414D01*
X148444935Y-85305000D01*
X148443000Y-84755000D01*
X148343000Y-84655000D01*
X147393000Y-84655000D01*
X146993000Y-84655000D01*
X146043000Y-84655000D01*
X145943000Y-84755000D01*
X145941065Y-85305000D01*
X143275386Y-85305000D01*
X143351441Y-85225325D01*
X143482808Y-85018469D01*
X143554418Y-84845562D01*
X143499475Y-84655000D01*
X142567000Y-84655000D01*
X142167000Y-84655000D01*
X141234525Y-84655000D01*
X141179582Y-84845562D01*
X138642935Y-84845562D01*
X138642935Y-84256999D01*
X138630408Y-84129813D01*
X138610577Y-84064438D01*
X141179582Y-84064438D01*
X141234525Y-84255000D01*
X142167000Y-84255000D01*
X142167000Y-83321095D01*
X142567000Y-83321095D01*
X142567000Y-84255000D01*
X143499475Y-84255000D01*
X143554418Y-84064438D01*
X143482808Y-83891531D01*
X143351441Y-83684675D01*
X143275387Y-83605000D01*
X145941065Y-83605000D01*
X145943000Y-84155000D01*
X146043000Y-84255000D01*
X146993000Y-84255000D01*
X146993000Y-83305000D01*
X146893000Y-83205000D01*
X146343000Y-83203065D01*
X146264586Y-83210788D01*
X146189186Y-83233660D01*
X146119697Y-83270803D01*
X146058789Y-83320789D01*
X146008803Y-83381697D01*
X145971660Y-83451186D01*
X145948788Y-83526586D01*
X145941065Y-83605000D01*
X143275387Y-83605000D01*
X143182242Y-83507422D01*
X142981714Y-83366584D01*
X142757563Y-83267573D01*
X142567000Y-83321095D01*
X142167000Y-83321095D01*
X141976437Y-83267573D01*
X141752286Y-83366584D01*
X141551758Y-83507422D01*
X141382559Y-83684675D01*
X141251192Y-83891531D01*
X141179582Y-84064438D01*
X138610577Y-84064438D01*
X138593309Y-84007515D01*
X138533064Y-83894804D01*
X138451988Y-83796012D01*
X138353196Y-83714936D01*
X138240485Y-83654691D01*
X138118187Y-83617592D01*
X138066000Y-83612452D01*
X138066000Y-82067780D01*
X138068539Y-82042000D01*
X138066000Y-82016220D01*
X138066000Y-82016212D01*
X138058403Y-81939082D01*
X138028383Y-81840119D01*
X137979633Y-81748914D01*
X137949576Y-81712289D01*
X137930466Y-81689003D01*
X137930462Y-81688999D01*
X137914027Y-81668973D01*
X137894001Y-81652538D01*
X137177000Y-80935539D01*
X137177000Y-80637528D01*
X137244097Y-80609735D01*
X137448828Y-80472938D01*
X137622938Y-80298828D01*
X137759735Y-80094097D01*
X137853963Y-79866611D01*
X137902000Y-79625114D01*
X137902000Y-79378886D01*
X137942000Y-79378886D01*
X137942000Y-79625114D01*
X137990037Y-79866611D01*
X138084265Y-80094097D01*
X138221062Y-80298828D01*
X138395172Y-80472938D01*
X138599903Y-80609735D01*
X138827389Y-80703963D01*
X139068886Y-80752000D01*
X139315114Y-80752000D01*
X139556611Y-80703963D01*
X139784097Y-80609735D01*
X139988828Y-80472938D01*
X140162938Y-80298828D01*
X140299735Y-80094097D01*
X140383213Y-79892563D01*
X140544573Y-79892563D01*
X140643584Y-80116714D01*
X140784422Y-80317242D01*
X140961675Y-80486441D01*
X141168531Y-80617808D01*
X141341438Y-80689418D01*
X141532000Y-80634475D01*
X141532000Y-79702000D01*
X141932000Y-79702000D01*
X141932000Y-80634475D01*
X142122562Y-80689418D01*
X142295469Y-80617808D01*
X142502325Y-80486441D01*
X142679578Y-80317242D01*
X142820416Y-80116714D01*
X142919427Y-79892563D01*
X142865905Y-79702000D01*
X141932000Y-79702000D01*
X141532000Y-79702000D01*
X140598095Y-79702000D01*
X140544573Y-79892563D01*
X140383213Y-79892563D01*
X140393963Y-79866611D01*
X140442000Y-79625114D01*
X140442000Y-79378886D01*
X140393963Y-79137389D01*
X140383214Y-79111437D01*
X140544573Y-79111437D01*
X140598095Y-79302000D01*
X141532000Y-79302000D01*
X141532000Y-78369525D01*
X141932000Y-78369525D01*
X141932000Y-79302000D01*
X142865905Y-79302000D01*
X142919427Y-79111437D01*
X142820416Y-78887286D01*
X142679578Y-78686758D01*
X142502325Y-78517559D01*
X142295469Y-78386192D01*
X142122562Y-78314582D01*
X141932000Y-78369525D01*
X141532000Y-78369525D01*
X141341438Y-78314582D01*
X141168531Y-78386192D01*
X140961675Y-78517559D01*
X140784422Y-78686758D01*
X140643584Y-78887286D01*
X140544573Y-79111437D01*
X140383214Y-79111437D01*
X140299735Y-78909903D01*
X140162938Y-78705172D01*
X139988828Y-78531062D01*
X139784097Y-78394265D01*
X139556611Y-78300037D01*
X139315114Y-78252000D01*
X139068886Y-78252000D01*
X138827389Y-78300037D01*
X138599903Y-78394265D01*
X138395172Y-78531062D01*
X138221062Y-78705172D01*
X138084265Y-78909903D01*
X137990037Y-79137389D01*
X137942000Y-79378886D01*
X137902000Y-79378886D01*
X137853963Y-79137389D01*
X137759735Y-78909903D01*
X137622938Y-78705172D01*
X137448828Y-78531062D01*
X137302000Y-78432955D01*
X137302000Y-76888045D01*
X137448828Y-76789938D01*
X137622938Y-76615828D01*
X137759735Y-76411097D01*
X137853963Y-76183611D01*
X137902000Y-75942114D01*
X137902000Y-75695886D01*
X137867549Y-75522690D01*
X138028353Y-75361885D01*
X137990037Y-75454389D01*
X137942000Y-75695886D01*
X137942000Y-75942114D01*
X137990037Y-76183611D01*
X138084265Y-76411097D01*
X138221062Y-76615828D01*
X138395172Y-76789938D01*
X138599903Y-76926735D01*
X138827389Y-77020963D01*
X139068886Y-77069000D01*
X139315114Y-77069000D01*
X139556611Y-77020963D01*
X139784097Y-76926735D01*
X139988828Y-76789938D01*
X140162938Y-76615828D01*
X140299735Y-76411097D01*
X140383213Y-76209563D01*
X140544573Y-76209563D01*
X140643584Y-76433714D01*
X140784422Y-76634242D01*
X140961675Y-76803441D01*
X141168531Y-76934808D01*
X141341438Y-77006418D01*
X141532000Y-76951475D01*
X141532000Y-76019000D01*
X141932000Y-76019000D01*
X141932000Y-76951475D01*
X142122562Y-77006418D01*
X142295469Y-76934808D01*
X142502325Y-76803441D01*
X142679578Y-76634242D01*
X142820416Y-76433714D01*
X142919427Y-76209563D01*
X142865905Y-76019000D01*
X141932000Y-76019000D01*
X141532000Y-76019000D01*
X140598095Y-76019000D01*
X140544573Y-76209563D01*
X140383213Y-76209563D01*
X140393963Y-76183611D01*
X140442000Y-75942114D01*
X140442000Y-75695886D01*
X140393963Y-75454389D01*
X140299735Y-75226903D01*
X140162938Y-75022172D01*
X140085766Y-74945000D01*
X140845977Y-74945000D01*
X140784422Y-75003758D01*
G36*
X125257001Y-77260846D02*
G01*
X125257000Y-81638329D01*
X125169804Y-81684936D01*
X125071012Y-81766012D01*
X124989936Y-81864804D01*
X124929691Y-81977515D01*
X124892592Y-82099813D01*
X124880065Y-82226999D01*
X124880065Y-82805407D01*
X124745236Y-82940236D01*
X124682000Y-82877000D01*
X124007000Y-82877000D01*
X124007000Y-83677000D01*
X124007736Y-83677736D01*
X118369473Y-89316000D01*
X116298939Y-89316000D01*
X122237939Y-83377000D01*
X122830065Y-83377000D01*
X122837788Y-83455414D01*
X122860660Y-83530814D01*
X122897803Y-83600303D01*
X122947789Y-83661211D01*
X123008697Y-83711197D01*
X123078186Y-83748340D01*
X123153586Y-83771212D01*
X123232000Y-83778935D01*
X123507000Y-83777000D01*
X123607000Y-83677000D01*
X123607000Y-82877000D01*
X122932000Y-82877000D01*
X122832000Y-82977000D01*
X122830065Y-83377000D01*
X122237939Y-83377000D01*
X122607420Y-83007520D01*
X122630317Y-82988729D01*
X122705296Y-82897367D01*
X122760215Y-82794621D01*
X122761010Y-82793134D01*
X122795318Y-82680033D01*
X122806903Y-82562412D01*
X122804000Y-82532938D01*
X122804000Y-81977000D01*
X122830065Y-81977000D01*
X122832000Y-82377000D01*
X122932000Y-82477000D01*
X123607000Y-82477000D01*
X123607000Y-81677000D01*
X124007000Y-81677000D01*
X124007000Y-82477000D01*
X124682000Y-82477000D01*
X124782000Y-82377000D01*
X124783935Y-81977000D01*
X124776212Y-81898586D01*
X124753340Y-81823186D01*
X124716197Y-81753697D01*
X124666211Y-81692789D01*
X124605303Y-81642803D01*
X124535814Y-81605660D01*
X124460414Y-81582788D01*
X124382000Y-81575065D01*
X124107000Y-81577000D01*
X124007000Y-81677000D01*
X123607000Y-81677000D01*
X123507000Y-81577000D01*
X123232000Y-81575065D01*
X123153586Y-81582788D01*
X123078186Y-81605660D01*
X123008697Y-81642803D01*
X122947789Y-81692789D01*
X122897803Y-81753697D01*
X122860660Y-81823186D01*
X122837788Y-81898586D01*
X122830065Y-81977000D01*
X122804000Y-81977000D01*
X122804000Y-79569647D01*
X122805360Y-79555835D01*
X122924000Y-79555000D01*
X123024000Y-79455000D01*
X123024000Y-78630000D01*
X123424000Y-78630000D01*
X123424000Y-79455000D01*
X123524000Y-79555000D01*
X123799000Y-79556935D01*
X123877414Y-79549212D01*
X123952814Y-79526340D01*
X124022303Y-79489197D01*
X124083211Y-79439211D01*
X124133197Y-79378303D01*
X124170340Y-79308814D01*
X124193212Y-79233414D01*
X124200935Y-79155000D01*
X124199000Y-78730000D01*
X124099000Y-78630000D01*
X123424000Y-78630000D01*
X123024000Y-78630000D01*
X123004000Y-78630000D01*
X123004000Y-78230000D01*
X123024000Y-78230000D01*
X123024000Y-78210000D01*
X123424000Y-78210000D01*
X123424000Y-78230000D01*
X124099000Y-78230000D01*
X124199000Y-78130000D01*
X124200935Y-77705000D01*
X124193212Y-77626586D01*
X124170340Y-77551186D01*
X124134267Y-77483699D01*
X124366190Y-77526623D01*
X124627168Y-77523140D01*
X124882453Y-77468810D01*
X125090901Y-77382469D01*
X125196756Y-77200601D01*
X125257001Y-77260846D01*
G37*
X125257001Y-77260846D02*
X125257000Y-81638329D01*
X125169804Y-81684936D01*
X125071012Y-81766012D01*
X124989936Y-81864804D01*
X124929691Y-81977515D01*
X124892592Y-82099813D01*
X124880065Y-82226999D01*
X124880065Y-82805407D01*
X124745236Y-82940236D01*
X124682000Y-82877000D01*
X124007000Y-82877000D01*
X124007000Y-83677000D01*
X124007736Y-83677736D01*
X118369473Y-89316000D01*
X116298939Y-89316000D01*
X122237939Y-83377000D01*
X122830065Y-83377000D01*
X122837788Y-83455414D01*
X122860660Y-83530814D01*
X122897803Y-83600303D01*
X122947789Y-83661211D01*
X123008697Y-83711197D01*
X123078186Y-83748340D01*
X123153586Y-83771212D01*
X123232000Y-83778935D01*
X123507000Y-83777000D01*
X123607000Y-83677000D01*
X123607000Y-82877000D01*
X122932000Y-82877000D01*
X122832000Y-82977000D01*
X122830065Y-83377000D01*
X122237939Y-83377000D01*
X122607420Y-83007520D01*
X122630317Y-82988729D01*
X122705296Y-82897367D01*
X122760215Y-82794621D01*
X122761010Y-82793134D01*
X122795318Y-82680033D01*
X122806903Y-82562412D01*
X122804000Y-82532938D01*
X122804000Y-81977000D01*
X122830065Y-81977000D01*
X122832000Y-82377000D01*
X122932000Y-82477000D01*
X123607000Y-82477000D01*
X123607000Y-81677000D01*
X124007000Y-81677000D01*
X124007000Y-82477000D01*
X124682000Y-82477000D01*
X124782000Y-82377000D01*
X124783935Y-81977000D01*
X124776212Y-81898586D01*
X124753340Y-81823186D01*
X124716197Y-81753697D01*
X124666211Y-81692789D01*
X124605303Y-81642803D01*
X124535814Y-81605660D01*
X124460414Y-81582788D01*
X124382000Y-81575065D01*
X124107000Y-81577000D01*
X124007000Y-81677000D01*
X123607000Y-81677000D01*
X123507000Y-81577000D01*
X123232000Y-81575065D01*
X123153586Y-81582788D01*
X123078186Y-81605660D01*
X123008697Y-81642803D01*
X122947789Y-81692789D01*
X122897803Y-81753697D01*
X122860660Y-81823186D01*
X122837788Y-81898586D01*
X122830065Y-81977000D01*
X122804000Y-81977000D01*
X122804000Y-79569647D01*
X122805360Y-79555835D01*
X122924000Y-79555000D01*
X123024000Y-79455000D01*
X123024000Y-78630000D01*
X123424000Y-78630000D01*
X123424000Y-79455000D01*
X123524000Y-79555000D01*
X123799000Y-79556935D01*
X123877414Y-79549212D01*
X123952814Y-79526340D01*
X124022303Y-79489197D01*
X124083211Y-79439211D01*
X124133197Y-79378303D01*
X124170340Y-79308814D01*
X124193212Y-79233414D01*
X124200935Y-79155000D01*
X124199000Y-78730000D01*
X124099000Y-78630000D01*
X123424000Y-78630000D01*
X123024000Y-78630000D01*
X123004000Y-78630000D01*
X123004000Y-78230000D01*
X123024000Y-78230000D01*
X123024000Y-78210000D01*
X123424000Y-78210000D01*
X123424000Y-78230000D01*
X124099000Y-78230000D01*
X124199000Y-78130000D01*
X124200935Y-77705000D01*
X124193212Y-77626586D01*
X124170340Y-77551186D01*
X124134267Y-77483699D01*
X124366190Y-77526623D01*
X124627168Y-77523140D01*
X124882453Y-77468810D01*
X125090901Y-77382469D01*
X125196756Y-77200601D01*
X125257001Y-77260846D01*
G36*
X127780065Y-76669000D02*
G01*
X127787788Y-76747414D01*
X127810660Y-76822814D01*
X127847803Y-76892303D01*
X127897789Y-76953211D01*
X127958697Y-77003197D01*
X128028186Y-77040340D01*
X128103586Y-77063212D01*
X128182000Y-77070935D01*
X128516423Y-77070935D01*
X128544617Y-77163880D01*
X128591946Y-77252426D01*
X128593368Y-77255086D01*
X128658974Y-77335027D01*
X128679005Y-77351466D01*
X129577604Y-78250065D01*
X128182000Y-78250065D01*
X128103586Y-78257788D01*
X128028186Y-78280660D01*
X127958697Y-78317803D01*
X127897789Y-78367789D01*
X127847803Y-78428697D01*
X127810660Y-78498186D01*
X127787788Y-78573586D01*
X127780065Y-78652000D01*
X127780065Y-80352000D01*
X127787788Y-80430414D01*
X127810660Y-80505814D01*
X127847803Y-80575303D01*
X127897789Y-80636211D01*
X127958697Y-80686197D01*
X128028186Y-80723340D01*
X128103586Y-80746212D01*
X128182000Y-80753935D01*
X128507000Y-80753935D01*
X128507001Y-81649847D01*
X128483697Y-81662303D01*
X128422789Y-81712289D01*
X128397000Y-81743713D01*
X128371211Y-81712289D01*
X128310303Y-81662303D01*
X128240814Y-81625160D01*
X128165414Y-81602288D01*
X128087000Y-81594565D01*
X127437000Y-81594565D01*
X127358586Y-81602288D01*
X127283186Y-81625160D01*
X127213697Y-81662303D01*
X127152789Y-81712289D01*
X127102803Y-81773197D01*
X127065660Y-81842686D01*
X127042788Y-81918086D01*
X127035065Y-81996500D01*
X127035065Y-82077000D01*
X126814488Y-82077000D01*
X126784309Y-81977515D01*
X126724064Y-81864804D01*
X126642988Y-81766012D01*
X126544196Y-81684936D01*
X126457000Y-81638329D01*
X126457000Y-76822525D01*
X127780065Y-75499461D01*
X127780065Y-76669000D01*
G37*
X127780065Y-76669000D02*
X127787788Y-76747414D01*
X127810660Y-76822814D01*
X127847803Y-76892303D01*
X127897789Y-76953211D01*
X127958697Y-77003197D01*
X128028186Y-77040340D01*
X128103586Y-77063212D01*
X128182000Y-77070935D01*
X128516423Y-77070935D01*
X128544617Y-77163880D01*
X128591946Y-77252426D01*
X128593368Y-77255086D01*
X128658974Y-77335027D01*
X128679005Y-77351466D01*
X129577604Y-78250065D01*
X128182000Y-78250065D01*
X128103586Y-78257788D01*
X128028186Y-78280660D01*
X127958697Y-78317803D01*
X127897789Y-78367789D01*
X127847803Y-78428697D01*
X127810660Y-78498186D01*
X127787788Y-78573586D01*
X127780065Y-78652000D01*
X127780065Y-80352000D01*
X127787788Y-80430414D01*
X127810660Y-80505814D01*
X127847803Y-80575303D01*
X127897789Y-80636211D01*
X127958697Y-80686197D01*
X128028186Y-80723340D01*
X128103586Y-80746212D01*
X128182000Y-80753935D01*
X128507000Y-80753935D01*
X128507001Y-81649847D01*
X128483697Y-81662303D01*
X128422789Y-81712289D01*
X128397000Y-81743713D01*
X128371211Y-81712289D01*
X128310303Y-81662303D01*
X128240814Y-81625160D01*
X128165414Y-81602288D01*
X128087000Y-81594565D01*
X127437000Y-81594565D01*
X127358586Y-81602288D01*
X127283186Y-81625160D01*
X127213697Y-81662303D01*
X127152789Y-81712289D01*
X127102803Y-81773197D01*
X127065660Y-81842686D01*
X127042788Y-81918086D01*
X127035065Y-81996500D01*
X127035065Y-82077000D01*
X126814488Y-82077000D01*
X126784309Y-81977515D01*
X126724064Y-81864804D01*
X126642988Y-81766012D01*
X126544196Y-81684936D01*
X126457000Y-81638329D01*
X126457000Y-76822525D01*
X127780065Y-75499461D01*
X127780065Y-76669000D01*
G36*
X130775172Y-74848062D02*
G01*
X130601062Y-75022172D01*
X130464265Y-75226903D01*
X130370037Y-75454389D01*
X130322000Y-75695886D01*
X130322000Y-75942114D01*
X130370037Y-76183611D01*
X130464265Y-76411097D01*
X130601062Y-76615828D01*
X130775172Y-76789938D01*
X130979903Y-76926735D01*
X131207389Y-77020963D01*
X131448886Y-77069000D01*
X131695114Y-77069000D01*
X131936611Y-77020963D01*
X132164097Y-76926735D01*
X132368828Y-76789938D01*
X132542938Y-76615828D01*
X132679735Y-76411097D01*
X132773963Y-76183611D01*
X132822000Y-75942114D01*
X132822000Y-75695886D01*
X132773963Y-75454389D01*
X132679735Y-75226903D01*
X132542938Y-75022172D01*
X132368828Y-74848062D01*
X132249007Y-74768000D01*
X133434993Y-74768000D01*
X133315172Y-74848062D01*
X133141062Y-75022172D01*
X133004265Y-75226903D01*
X132910037Y-75454389D01*
X132862000Y-75695886D01*
X132862000Y-75942114D01*
X132910037Y-76183611D01*
X133004265Y-76411097D01*
X133141062Y-76615828D01*
X133315172Y-76789938D01*
X133519903Y-76926735D01*
X133587000Y-76954528D01*
X133587001Y-78366472D01*
X133519903Y-78394265D01*
X133315172Y-78531062D01*
X133141062Y-78705172D01*
X133004265Y-78909903D01*
X132910037Y-79137389D01*
X132862000Y-79378886D01*
X132862000Y-79625114D01*
X132910037Y-79866611D01*
X132937830Y-79933709D01*
X132099539Y-80772000D01*
X132097000Y-80746221D01*
X132097000Y-80637528D01*
X132164097Y-80609735D01*
X132368828Y-80472938D01*
X132542938Y-80298828D01*
X132679735Y-80094097D01*
X132773963Y-79866611D01*
X132822000Y-79625114D01*
X132822000Y-79378886D01*
X132773963Y-79137389D01*
X132679735Y-78909903D01*
X132542938Y-78705172D01*
X132368828Y-78531062D01*
X132164097Y-78394265D01*
X131936611Y-78300037D01*
X131695114Y-78252000D01*
X131448886Y-78252000D01*
X131207389Y-78300037D01*
X131140291Y-78327830D01*
X129883271Y-77070810D01*
X129960414Y-77063212D01*
X130035814Y-77040340D01*
X130105303Y-77003197D01*
X130166211Y-76953211D01*
X130216197Y-76892303D01*
X130253340Y-76822814D01*
X130276212Y-76747414D01*
X130283935Y-76669000D01*
X130283935Y-74969000D01*
X130276212Y-74890586D01*
X130253340Y-74815186D01*
X130228118Y-74768000D01*
X130894993Y-74768000D01*
X130775172Y-74848062D01*
G37*
X130775172Y-74848062D02*
X130601062Y-75022172D01*
X130464265Y-75226903D01*
X130370037Y-75454389D01*
X130322000Y-75695886D01*
X130322000Y-75942114D01*
X130370037Y-76183611D01*
X130464265Y-76411097D01*
X130601062Y-76615828D01*
X130775172Y-76789938D01*
X130979903Y-76926735D01*
X131207389Y-77020963D01*
X131448886Y-77069000D01*
X131695114Y-77069000D01*
X131936611Y-77020963D01*
X132164097Y-76926735D01*
X132368828Y-76789938D01*
X132542938Y-76615828D01*
X132679735Y-76411097D01*
X132773963Y-76183611D01*
X132822000Y-75942114D01*
X132822000Y-75695886D01*
X132773963Y-75454389D01*
X132679735Y-75226903D01*
X132542938Y-75022172D01*
X132368828Y-74848062D01*
X132249007Y-74768000D01*
X133434993Y-74768000D01*
X133315172Y-74848062D01*
X133141062Y-75022172D01*
X133004265Y-75226903D01*
X132910037Y-75454389D01*
X132862000Y-75695886D01*
X132862000Y-75942114D01*
X132910037Y-76183611D01*
X133004265Y-76411097D01*
X133141062Y-76615828D01*
X133315172Y-76789938D01*
X133519903Y-76926735D01*
X133587000Y-76954528D01*
X133587001Y-78366472D01*
X133519903Y-78394265D01*
X133315172Y-78531062D01*
X133141062Y-78705172D01*
X133004265Y-78909903D01*
X132910037Y-79137389D01*
X132862000Y-79378886D01*
X132862000Y-79625114D01*
X132910037Y-79866611D01*
X132937830Y-79933709D01*
X132099539Y-80772000D01*
X132097000Y-80746221D01*
X132097000Y-80637528D01*
X132164097Y-80609735D01*
X132368828Y-80472938D01*
X132542938Y-80298828D01*
X132679735Y-80094097D01*
X132773963Y-79866611D01*
X132822000Y-79625114D01*
X132822000Y-79378886D01*
X132773963Y-79137389D01*
X132679735Y-78909903D01*
X132542938Y-78705172D01*
X132368828Y-78531062D01*
X132164097Y-78394265D01*
X131936611Y-78300037D01*
X131695114Y-78252000D01*
X131448886Y-78252000D01*
X131207389Y-78300037D01*
X131140291Y-78327830D01*
X129883271Y-77070810D01*
X129960414Y-77063212D01*
X130035814Y-77040340D01*
X130105303Y-77003197D01*
X130166211Y-76953211D01*
X130216197Y-76892303D01*
X130253340Y-76822814D01*
X130276212Y-76747414D01*
X130283935Y-76669000D01*
X130283935Y-74969000D01*
X130276212Y-74890586D01*
X130253340Y-74815186D01*
X130228118Y-74768000D01*
X130894993Y-74768000D01*
X130775172Y-74848062D01*
M02*
